NotoSans-SemiBoldItalic.ufo
<glyph name="plus" format="2">
  <advance width="572"/>
  <unicode hex="002B"/>
  <outline>
    <contour>
      <point x="349" y="406" type="line"/>
      <point x="349" y="596" type="line"/>
      <point x="242" y="596" type="line"/>
      <point x="242" y="406" type="line"/>
      <point x="53" y="406" type="line"/>
      <point x="53" y="299" type="line"/>
      <point x="242" y="299" type="line"/>
      <point x="242" y="111" type="line"/>
      <point x="349" y="111" type="line"/>
      <point x="349" y="299" type="line"/>
      <point x="538" y="299" type="line"/>
      <point x="538" y="406" type="line"/>
    </contour>
  </outline>
</glyph>
<glyph name="slash" format="2">
  <advance width="421"/>
  <unicode hex="002F"/>
  <outline>
    <contour>
      <point x="-44" y="0" type="line"/>
      <point x="100" y="0" type="line"/>
      <point x="495" y="714" type="line"/>
      <point x="351" y="714" type="line"/>
    </contour>
  </outline>
</glyph>
<glyph name="seven" format="2">
  <advance width="551"/>
  <unicode hex="0037"/>
  <outline>
    <contour>
      <point x="38" y="0" type="line"/>
      <point x="207" y="0" type="line"/>
      <point x="574" y="619" type="line"/>
      <point x="594" y="714" type="line"/>
      <point x="118" y="714" type="line"/>
      <point x="91" y="587" type="line"/>
      <point x="398" y="587" type="line"/>
    </contour>
  </outline>
</glyph>
<glyph name="L" format="2">
  <advance width="518"/>
  <unicode hex="004C"/>
  <anchor x="227" y="0" name="bottom"/>
  <anchor x="299" y="357" name="center"/>
  <anchor x="281" y="714" name="top"/>
  <anchor x="496" y="714" name="topright"/>
  <outline>
    <contour>
      <point x="26" y="0" type="line"/>
      <point x="425" y="0" type="line"/>
      <point x="451" y="125" type="line"/>
      <point x="201" y="125" type="line"/>
      <point x="326" y="714" type="line"/>
      <point x="177" y="714" type="line"/>
    </contour>
  </outline>
</glyph>
<glyph name="Y" format="2">
  <advance width="564"/>
  <unicode hex="0059"/>
  <anchor x="224" y="0" name="bottom"/>
  <anchor x="366" y="714" name="top"/>
  <anchor x="638" y="714" name="topright"/>
  <outline>
    <contour>
      <point x="148" y="0" type="line"/>
      <point x="296" y="0" type="line"/>
      <point x="354" y="273" type="line"/>
      <point x="656" y="714" type="line"/>
      <point x="489" y="714" type="line"/>
      <point x="306" y="425" type="line"/>
      <point x="243" y="714" type="line"/>
      <point x="91" y="714" type="line"/>
      <point x="206" y="273" type="line"/>
    </contour>
  </outline>
</glyph>
<glyph name="backslash" format="2">
  <advance width="421"/>
  <unicode hex="005C"/>
  <outline>
    <contour>
      <point x="214" y="0" type="line"/>
      <point x="344" y="0" type="line"/>
      <point x="235" y="714" type="line"/>
      <point x="108" y="714" type="line"/>
    </contour>
  </outline>
</glyph>
<glyph name="underscore" format="2">
  <advance width="400"/>
  <unicode hex="005F"/>
  <outline>
    <contour>
      <point x="-91" y="-158" type="line"/>
      <point x="310" y="-158" type="line"/>
      <point x="325" y="-90" type="line"/>
      <point x="-76" y="-90" type="line"/>
    </contour>
  </outline>
</glyph>
<glyph name="l" format="2">
  <advance width="297"/>
  <unicode hex="006C"/>
  <anchor x="91" y="0" name="bottom"/>
  <anchor x="207" y="273" name="center"/>
  <anchor x="254" y="760" name="top"/>
  <anchor x="343" y="760" name="topright"/>
  <outline>
    <contour>
      <point x="18" y="0" type="line"/>
      <point x="165" y="0" type="line"/>
      <point x="326" y="760" type="line"/>
      <point x="179" y="760" type="line"/>
    </contour>
  </outline>
</glyph>
<glyph name="logicalnot" format="2">
  <advance width="572"/>
  <unicode hex="00AC"/>
  <outline>
    <contour>
      <point x="538" y="406" type="line"/>
      <point x="53" y="406" type="line"/>
      <point x="53" y="299" type="line"/>
      <point x="431" y="299" type="line"/>
      <point x="431" y="121" type="line"/>
      <point x="538" y="121" type="line"/>
    </contour>
  </outline>
</glyph>
<glyph name="acute" format="2">
  <advance width="322"/>
  <unicode hex="00B4"/>
  <anchor x="181" y="546" name="_top"/>
  <outline>
    <contour>
      <point x="113" y="606" type="line"/>
      <point x="215" y="606" type="line"/>
      <point x="266" y="642"/>
      <point x="356" y="722"/>
      <point x="385" y="758" type="curve"/>
      <point x="385" y="766" type="line"/>
      <point x="221" y="766" type="line"/>
      <point x="190" y="719"/>
      <point x="146" y="655"/>
      <point x="113" y="618" type="curve"/>
    </contour>
  </outline>
</glyph>
<glyph name="Eth" format="2">
  <advance width="677"/>
  <unicode hex="00D0"/>
  <anchor x="281" y="0" name="bottom"/>
  <anchor x="433" y="714" name="top"/>
  <outline>
    <contour>
      <point x="26" y="0" type="line"/>
      <point x="246" y="0" type="line" smooth="yes"/>
      <point x="502" y="0"/>
      <point x="646" y="173"/>
      <point x="646" y="444" type="curve" smooth="yes"/>
      <point x="646" y="619"/>
      <point x="545" y="714"/>
      <point x="370" y="714" type="curve" smooth="yes"/>
      <point x="177" y="714" type="line"/>
      <point x="113" y="415" type="line"/>
      <point x="45" y="415" type="line"/>
      <point x="18" y="291" type="line"/>
      <point x="87" y="291" type="line"/>
    </contour>
    <contour>
      <point x="253" y="125" type="curve" smooth="yes"/>
      <point x="201" y="125" type="line"/>
      <point x="236" y="291" type="line"/>
      <point x="352" y="291" type="line"/>
      <point x="379" y="415" type="line"/>
      <point x="263" y="415" type="line"/>
      <point x="300" y="590" type="line"/>
      <point x="356" y="590" type="line" smooth="yes"/>
      <point x="441" y="590"/>
      <point x="493" y="541"/>
      <point x="493" y="436" type="curve" smooth="yes"/>
      <point x="493" y="271"/>
      <point x="417" y="125"/>
    </contour>
  </outline>
</glyph>
<glyph name="eogonek" format="2">
  <advance width="557"/>
  <unicode hex="0119"/>
  <anchor x="194" y="-240" name="bottom"/>
  <anchor x="343" y="546" name="top"/>
  <anchor x="595" y="546" name="topright"/>
  <outline>
    <contour>
      <point x="306" y="-240" type="curve" smooth="yes"/>
      <point x="338" y="-240"/>
      <point x="362" y="-235"/>
      <point x="386" y="-228" type="curve"/>
      <point x="386" y="-142" type="line"/>
      <point x="369" y="-147"/>
      <point x="354" y="-151"/>
      <point x="336" y="-151" type="curve" smooth="yes"/>
      <point x="318" y="-151"/>
      <point x="307" y="-140"/>
      <point x="307" y="-122" type="curve" smooth="yes"/>
      <point x="307" y="-75"/>
      <point x="354" y="-30"/>
      <point x="424" y="24" type="curve"/>
      <point x="303" y="0" type="line"/>
      <point x="242" y="-39"/>
      <point x="198" y="-80"/>
      <point x="198" y="-145" type="curve" smooth="yes"/>
      <point x="198" y="-202"/>
      <point x="239" y="-240"/>
    </contour>
    <component base="e"/>
  </outline>
</glyph>
<glyph name="idotless" format="2">
  <advance width="297"/>
  <unicode hex="0131"/>
  <anchor x="91" y="0" name="bottom"/>
  <anchor x="207" y="546" name="top"/>
  <outline>
    <contour>
      <point x="18" y="0" type="line"/>
      <point x="165" y="0" type="line"/>
      <point x="281" y="546" type="line"/>
      <point x="134" y="546" type="line"/>
    </contour>
  </outline>
</glyph>
<glyph name="uni018B" format="2">
  <advance width="592"/>
  <unicode hex="018B"/>
  <anchor x="238" y="0" name="bottom"/>
  <anchor x="390" y="714" name="top"/>
  <outline>
    <contour>
      <point x="274" y="0" type="curve" smooth="yes"/>
      <point x="446" y="0" type="line"/>
      <point x="597" y="714" type="line"/>
      <point x="177" y="714" type="line"/>
      <point x="151" y="589" type="line"/>
      <point x="422" y="589" type="line"/>
      <point x="391" y="440" type="line"/>
      <point x="342" y="440" type="line" smooth="yes"/>
      <point x="169" y="440"/>
      <point x="31" y="366"/>
      <point x="31" y="203" type="curve" smooth="yes"/>
      <point x="31" y="84"/>
      <point x="100" y="0"/>
    </contour>
    <contour>
      <point x="280" y="124" type="line" smooth="yes"/>
      <point x="217" y="124"/>
      <point x="181" y="153"/>
      <point x="181" y="208" type="curve" smooth="yes"/>
      <point x="181" y="278"/>
      <point x="245" y="316"/>
      <point x="330" y="316" type="curve" smooth="yes"/>
      <point x="364" y="316" type="line"/>
      <point x="323" y="124" type="line"/>
    </contour>
  </outline>
</glyph>
<glyph name="uni0191" format="2">
  <advance width="680"/>
  <unicode hex="0191"/>
  <anchor x="148" y="0" name="bottom"/>
  <anchor x="519" y="714" name="top"/>
  <anchor x="764" y="714" name="topright"/>
  <outline>
    <contour>
      <point x="163" y="-11" type="curve" smooth="yes"/>
      <point x="299" y="-11"/>
      <point x="359" y="72"/>
      <point x="381" y="176" type="curve" smooth="yes"/>
      <point x="409" y="308" type="line"/>
      <point x="620" y="308" type="line"/>
      <point x="647" y="432" type="line"/>
      <point x="436" y="432" type="line"/>
      <point x="469" y="590" type="line"/>
      <point x="697" y="590" type="line"/>
      <point x="723" y="714" type="line"/>
      <point x="346" y="714" type="line"/>
      <point x="233" y="193" type="line" smooth="yes"/>
      <point x="222" y="141"/>
      <point x="202" y="99"/>
      <point x="157" y="99" type="curve" smooth="yes"/>
      <point x="125" y="99"/>
      <point x="100" y="119"/>
      <point x="100" y="159" type="curve" smooth="yes"/>
      <point x="100" y="176"/>
      <point x="105" y="193"/>
      <point x="115" y="209" type="curve"/>
      <point x="7" y="255" type="line"/>
      <point x="-17" y="223"/>
      <point x="-28" y="187"/>
      <point x="-28" y="152" type="curve" smooth="yes"/>
      <point x="-28" y="50"/>
      <point x="42" y="-11"/>
    </contour>
  </outline>
</glyph>
<glyph name="florin" format="2">
  <advance width="493"/>
  <unicode hex="0192"/>
  <anchor x="132" y="0" name="bottom"/>
  <anchor x="484" y="765" name="top"/>
  <anchor x="618" y="765" name="topright"/>
  <outline>
    <contour>
      <point x="136" y="-12" type="curve" smooth="yes"/>
      <point x="258" y="-12"/>
      <point x="319" y="62"/>
      <point x="343" y="172" type="curve" smooth="yes"/>
      <point x="400" y="434" type="line"/>
      <point x="507" y="434" type="line"/>
      <point x="531" y="546" type="line"/>
      <point x="424" y="546" type="line"/>
      <point x="430" y="576" type="line" smooth="yes"/>
      <point x="438" y="618"/>
      <point x="461" y="647"/>
      <point x="498" y="647" type="curve"/>
      <point x="524" y="647"/>
      <point x="544" y="640"/>
      <point x="563" y="632" type="curve"/>
      <point x="602" y="741" type="line"/>
      <point x="570" y="756"/>
      <point x="532" y="765"/>
      <point x="487" y="765" type="curve"/>
      <point x="380" y="765"/>
      <point x="315" y="719"/>
      <point x="286" y="587" type="curve" smooth="yes"/>
      <point x="277" y="546" type="line"/>
      <point x="188" y="505" type="line"/>
      <point x="173" y="434" type="line"/>
      <point x="253" y="434" type="line"/>
      <point x="199" y="178" type="line" smooth="yes"/>
      <point x="187" y="122"/>
      <point x="163" y="98"/>
      <point x="137" y="98" type="curve" smooth="yes"/>
      <point x="108" y="98"/>
      <point x="94" y="116"/>
      <point x="94" y="147" type="curve" smooth="yes"/>
      <point x="94" y="163"/>
      <point x="99" y="186"/>
      <point x="108" y="203" type="curve"/>
      <point x="-6" y="241" type="line"/>
      <point x="-21" y="216"/>
      <point x="-35" y="181"/>
      <point x="-35" y="139" type="curve" smooth="yes"/>
      <point x="-35" y="42"/>
      <point x="37" y="-12"/>
    </contour>
  </outline>
</glyph>
<glyph name="uni023A" format="2">
  <advance width="628"/>
  <unicode hex="023A"/>
  <anchor x="256" y="0" name="bottom"/>
  <anchor x="408" y="714" name="top"/>
  <anchor x="702" y="714" name="topright"/>
  <outline>
    <contour>
      <point x="99" y="-75" type="line"/>
      <point x="193" y="-75" type="line"/>
      <point x="596" y="760" type="line"/>
      <point x="504" y="760" type="line"/>
    </contour>
    <component base="A"/>
  </outline>
</glyph>
<glyph name="uni023B" format="2">
  <advance width="612"/>
  <unicode hex="023B"/>
  <anchor x="320" y="0" name="bottom"/>
  <anchor x="436" y="714" name="top"/>
  <anchor x="686" y="714" name="topright"/>
  <outline>
    <contour>
      <point x="120" y="-75" type="line"/>
      <point x="214" y="-75" type="line"/>
      <point x="617" y="760" type="line"/>
      <point x="525" y="760" type="line"/>
    </contour>
    <component base="C"/>
  </outline>
</glyph>
<glyph name="uni023C" format="2">
  <advance width="483"/>
  <unicode hex="023C"/>
  <anchor x="194" y="-155" name="bottom"/>
  <anchor x="356" y="680" name="top"/>
  <anchor x="521" y="546" name="topright"/>
  <outline>
    <contour>
      <point x="40" y="-155" type="line"/>
      <point x="134" y="-155" type="line"/>
      <point x="537" y="680" type="line"/>
      <point x="445" y="680" type="line"/>
    </contour>
    <component base="c"/>
  </outline>
</glyph>
<glyph name="uni023E" format="2">
  <advance width="531"/>
  <unicode hex="023E"/>
  <anchor x="208" y="0" name="bottom"/>
  <anchor x="360" y="714" name="top"/>
  <anchor x="306" y="357" name="center"/>
  <anchor x="605" y="714" name="topright"/>
  <outline>
    <contour>
      <point x="-48" y="-44" type="line"/>
      <point x="59" y="-44" type="line"/>
      <point x="616" y="791" type="line"/>
      <point x="511" y="791" type="line"/>
    </contour>
    <component base="T"/>
  </outline>
</glyph>
<glyph name="uni0262" format="2">
  <advance width="589"/>
  <unicode hex="0262"/>
  <anchor x="237" y="0" name="bottom"/>
  <anchor x="353" y="546" name="top"/>
  <anchor x="519" y="546" name="topright"/>
  <outline>
    <contour>
      <point x="288" y="-10" type="curve" smooth="yes"/>
      <point x="367" y="-10"/>
      <point x="425" y="6"/>
      <point x="482" y="33" type="curve"/>
      <point x="540" y="309" type="line"/>
      <point x="297" y="309" type="line"/>
      <point x="276" y="210" type="line"/>
      <point x="378" y="210" type="line"/>
      <point x="359" y="118" type="line"/>
      <point x="341" y="113"/>
      <point x="322" y="109"/>
      <point x="302" y="109" type="curve" smooth="yes"/>
      <point x="231" y="109"/>
      <point x="193" y="150"/>
      <point x="193" y="234" type="curve" smooth="yes"/>
      <point x="193" y="333"/>
      <point x="233" y="437"/>
      <point x="363" y="437" type="curve" smooth="yes"/>
      <point x="415" y="437"/>
      <point x="468" y="423"/>
      <point x="507" y="405" type="curve"/>
      <point x="553" y="517" type="line"/>
      <point x="503" y="541"/>
      <point x="435" y="556"/>
      <point x="371" y="556" type="curve" smooth="yes"/>
      <point x="129" y="556"/>
      <point x="44" y="396"/>
      <point x="44" y="225" type="curve" smooth="yes"/>
      <point x="44" y="74"/>
      <point x="131" y="-10"/>
    </contour>
  </outline>
</glyph>
<glyph name="uni026A" format="2">
  <advance width="348"/>
  <unicode hex="026A"/>
  <anchor x="116" y="0" name="bottom"/>
  <anchor x="232" y="546" name="top"/>
  <outline>
    <contour>
      <point x="-40" y="0" type="line"/>
      <point x="272" y="0" type="line"/>
      <point x="287" y="72" type="line"/>
      <point x="213" y="114" type="line"/>
      <point x="281" y="432" type="line"/>
      <point x="372" y="474" type="line"/>
      <point x="388" y="546" type="line"/>
      <point x="76" y="546" type="line"/>
      <point x="60" y="474" type="line"/>
      <point x="134" y="432" type="line"/>
      <point x="67" y="114" type="line"/>
      <point x="-25" y="72" type="line"/>
    </contour>
  </outline>
</glyph>
<glyph name="uni0274" format="2">
  <advance width="670"/>
  <unicode hex="0274"/>
  <anchor x="277" y="0" name="bottom"/>
  <anchor x="393" y="546" name="top"/>
  <anchor x="669" y="546" name="topright"/>
  <outline>
    <contour>
      <point x="18" y="0" type="line"/>
      <point x="159" y="0" type="line"/>
      <point x="205" y="222" type="line" smooth="yes"/>
      <point x="213" y="261"/>
      <point x="225" y="336"/>
      <point x="231" y="382" type="curve"/>
      <point x="369" y="0" type="line"/>
      <point x="537" y="0" type="line"/>
      <point x="653" y="546" type="line"/>
      <point x="511" y="546" type="line"/>
      <point x="465" y="330" type="line" smooth="yes"/>
      <point x="458" y="297"/>
      <point x="446" y="215"/>
      <point x="440" y="163" type="curve"/>
      <point x="301" y="546" type="line"/>
      <point x="134" y="546" type="line"/>
    </contour>
  </outline>
</glyph>
<glyph name="uni0289" format="2">
  <advance width="604"/>
  <unicode hex="0289"/>
  <anchor x="236" y="0" name="bottom"/>
  <anchor x="360" y="546" name="top"/>
  <anchor x="642" y="546" name="topright"/>
  <outline>
    <contour>
      <point x="-3" y="249" type="line"/>
      <point x="593" y="249" type="line"/>
      <point x="614" y="346" type="line"/>
      <point x="18" y="346" type="line"/>
    </contour>
    <component base="u"/>
  </outline>
</glyph>
<glyph name="uni028F" format="2">
  <advance width="536"/>
  <unicode hex="028F"/>
  <anchor x="210" y="0" name="bottom"/>
  <anchor x="326" y="546" name="top"/>
  <outline>
    <contour>
      <point x="136" y="0" type="line"/>
      <point x="283" y="0" type="line"/>
      <point x="326" y="204" type="line"/>
      <point x="596" y="546" type="line"/>
      <point x="424" y="546" type="line"/>
      <point x="271" y="339" type="line"/>
      <point x="201" y="546" type="line"/>
      <point x="50" y="546" type="line"/>
      <point x="179" y="204" type="line"/>
    </contour>
  </outline>
</glyph>
<glyph name="uni0299" format="2">
  <advance width="520"/>
  <unicode hex="0299"/>
  <anchor x="228" y="0" name="bottom"/>
  <anchor x="344" y="546" name="top"/>
  <outline>
    <contour>
      <point x="27" y="0" type="line"/>
      <point x="239" y="0" type="line" smooth="yes"/>
      <point x="358" y="0"/>
      <point x="452" y="54"/>
      <point x="452" y="179" type="curve" smooth="yes"/>
      <point x="452" y="232"/>
      <point x="420" y="271"/>
      <point x="371" y="280" type="curve"/>
      <point x="371" y="285" type="line"/>
      <point x="452" y="304"/>
      <point x="489" y="353"/>
      <point x="489" y="425" type="curve" smooth="yes"/>
      <point x="489" y="511"/>
      <point x="419" y="546"/>
      <point x="317" y="546" type="curve" smooth="yes"/>
      <point x="141" y="546" type="line"/>
    </contour>
    <contour>
      <point x="159" y="94" type="line"/>
      <point x="189" y="240" type="line"/>
      <point x="271" y="240" type="line" smooth="yes"/>
      <point x="315" y="240"/>
      <point x="336" y="216"/>
      <point x="336" y="177" type="curve" smooth="yes"/>
      <point x="336" y="123"/>
      <point x="299" y="94"/>
      <point x="245" y="94" type="curve" smooth="yes"/>
    </contour>
    <contour>
      <point x="207" y="330" type="line"/>
      <point x="233" y="453" type="line"/>
      <point x="308" y="453" type="line" smooth="yes"/>
      <point x="350" y="453"/>
      <point x="371" y="435"/>
      <point x="371" y="401" type="curve" smooth="yes"/>
      <point x="371" y="351"/>
      <point x="335" y="330"/>
      <point x="282" y="330" type="curve" smooth="yes"/>
    </contour>
  </outline>
</glyph>
<glyph name="uni029F" format="2">
  <advance width="459"/>
  <unicode hex="029F"/>
  <anchor x="172" y="0" name="bottom"/>
  <anchor x="288" y="546" name="top"/>
  <outline>
    <contour>
      <point x="18" y="0" type="line"/>
      <point x="378" y="0" type="line"/>
      <point x="402" y="114" type="line"/>
      <point x="189" y="114" type="line"/>
      <point x="281" y="546" type="line"/>
      <point x="134" y="546" type="line"/>
    </contour>
  </outline>
</glyph>
<glyph name="uni02AB" format="2">
  <advance width="638"/>
  <unicode hex="02AB"/>
  <anchor x="261" y="0" name="bottom"/>
  <anchor x="422" y="760" name="top"/>
  <outline>
    <contour>
      <point x="18" y="0" type="line"/>
      <point x="548" y="0" type="line"/>
      <point x="572" y="114" type="line"/>
      <point x="358" y="114" type="line"/>
      <point x="634" y="448" type="line"/>
      <point x="655" y="546" type="line"/>
      <point x="280" y="546" type="line"/>
      <point x="326" y="760" type="line"/>
      <point x="179" y="760" type="line"/>
    </contour>
    <contour>
      <point x="186" y="99" type="line"/>
      <point x="256" y="432" type="line"/>
      <point x="458" y="432" type="line"/>
    </contour>
  </outline>
</glyph>
<glyph name="uni02BF" format="2">
  <advance width="186"/>
  <unicode hex="02BF"/>
  <outline>
    <contour>
      <point x="221" y="584" type="curve"/>
      <point x="236" y="652" type="line"/>
      <point x="215" y="656"/>
      <point x="200" y="673"/>
      <point x="200" y="698" type="curve" smooth="yes"/>
      <point x="200" y="726"/>
      <point x="216" y="745"/>
      <point x="256" y="745" type="curve"/>
      <point x="270" y="815" type="line"/>
      <point x="185" y="815"/>
      <point x="123" y="779"/>
      <point x="123" y="696" type="curve" smooth="yes"/>
      <point x="123" y="631"/>
      <point x="164" y="594"/>
    </contour>
  </outline>
</glyph>
<glyph name="uni02C4" format="2">
  <advance width="285"/>
  <unicode hex="02C4"/>
  <outline>
    <contour>
      <point x="82" y="542" type="line"/>
      <point x="140" y="542" type="line"/>
      <point x="218" y="709" type="line"/>
      <point x="286" y="542" type="line"/>
      <point x="345" y="542" type="line"/>
      <point x="238" y="785" type="line"/>
      <point x="203" y="785" type="line"/>
    </contour>
  </outline>
</glyph>
<glyph name="uni02C8" format="2">
  <advance width="180"/>
  <unicode hex="02C8"/>
  <outline>
    <contour>
      <point x="87" y="496" type="line"/>
      <point x="187" y="496" type="line"/>
      <point x="246" y="770" type="line"/>
      <point x="146" y="770" type="line"/>
    </contour>
  </outline>
</glyph>
<glyph name="macron" format="2">
  <advance width="382"/>
  <unicode hex="02C9"/>
  <outline>
    <contour>
      <point x="111" y="606" type="line"/>
      <point x="413" y="606" type="line"/>
      <point x="435" y="709" type="line"/>
      <point x="133" y="709" type="line"/>
    </contour>
  </outline>
</glyph>
<glyph name="uni02EA" format="2">
  <advance width="418"/>
  <unicode hex="02EA"/>
  <outline>
    <contour>
      <point x="78" y="166" type="line"/>
      <point x="340" y="166" type="line"/>
      <point x="340" y="232" type="line"/>
      <point x="144" y="232" type="line"/>
      <point x="144" y="528" type="line"/>
      <point x="78" y="528" type="line"/>
    </contour>
  </outline>
</glyph>
<glyph name="uni02EF" format="2">
  <advance width="413"/>
  <unicode hex="02EF"/>
  <outline>
    <contour>
      <point x="74" y="-240" type="line"/>
      <point x="123" y="-240" type="line"/>
      <point x="311" y="-18" type="line"/>
      <point x="229" y="-18" type="line"/>
      <point x="111" y="-152" type="line"/>
      <point x="53" y="-18" type="line"/>
      <point x="-22" y="-18" type="line"/>
    </contour>
  </outline>
</glyph>
<glyph name="uni02F0" format="2">
  <advance width="413"/>
  <unicode hex="02F0"/>
  <outline>
    <contour>
      <point x="-69" y="-240" type="line"/>
      <point x="13" y="-240" type="line"/>
      <point x="132" y="-108" type="line"/>
      <point x="189" y="-240" type="line"/>
      <point x="264" y="-240" type="line"/>
      <point x="168" y="-20" type="line"/>
      <point x="120" y="-20" type="line"/>
    </contour>
  </outline>
</glyph>
<glyph name="uni02F1" format="2">
  <advance width="330"/>
  <unicode hex="02F1"/>
  <outline>
    <contour>
      <point x="181" y="-240" type="line"/>
      <point x="195" y="-174" type="line"/>
      <point x="46" y="-113" type="line"/>
      <point x="221" y="-49" type="line"/>
      <point x="237" y="23" type="line"/>
      <point x="-36" y="-84" type="line"/>
      <point x="-46" y="-133" type="line"/>
    </contour>
  </outline>
</glyph>
<glyph name="uni02F2" format="2">
  <advance width="330"/>
  <unicode hex="02F2"/>
  <outline>
    <contour>
      <point x="-69" y="-240" type="line"/>
      <point x="204" y="-133" type="line"/>
      <point x="214" y="-84" type="line"/>
      <point x="-13" y="23" type="line"/>
      <point x="-27" y="-43" type="line"/>
      <point x="122" y="-104" type="line"/>
      <point x="-53" y="-168" type="line"/>
    </contour>
  </outline>
</glyph>
<glyph name="uni02FF" format="2">
  <advance width="546"/>
  <unicode hex="02FF"/>
  <outline>
    <contour>
      <point x="221" y="-240" type="line"/>
      <point x="221" y="-181" type="line"/>
      <point x="89" y="-112" type="line"/>
      <point x="424" y="-112" type="line"/>
      <point x="424" y="-52" type="line"/>
      <point x="89" y="-52" type="line"/>
      <point x="221" y="16" type="line"/>
      <point x="221" y="75" type="line"/>
      <point x="-30" y="-58" type="line"/>
      <point x="-30" y="-107" type="line"/>
    </contour>
  </outline>
</glyph>
<glyph name="overlinecmb" format="2">
  <unicode hex="0305"/>
  <anchor x="46" y="546" name="_top"/>
  <anchor x="100" y="842" name="top"/>
  <outline>
    <contour>
      <point x="-115" y="739" type="line"/>
      <point x="289" y="739" type="line"/>
      <point x="310" y="842" type="line"/>
      <point x="-94" y="842" type="line"/>
    </contour>
  </outline>
</glyph>
<glyph name="lefttackbelowcomb" format="2">
  <unicode hex="0318"/>
  <anchor x="-43" y="0" name="_bottom"/>
  <anchor x="-67" y="-218" name="bottom"/>
  <outline>
    <contour>
      <point x="-74" y="-218" type="line"/>
      <point x="-9" y="-218" type="line"/>
      <point x="32" y="-28" type="line"/>
      <point x="-34" y="-28" type="line"/>
      <point x="-48" y="-93" type="line"/>
      <point x="-157" y="-93" type="line"/>
      <point x="-170" y="-153" type="line"/>
      <point x="-60" y="-153" type="line"/>
    </contour>
  </outline>
</glyph>
<glyph name="downtackbelowcomb" format="2">
  <unicode hex="031E"/>
  <anchor x="-39" y="0" name="_bottom"/>
  <anchor x="-65" y="-208" name="bottom"/>
  <outline>
    <contour>
      <point x="-127" y="-208" type="line"/>
      <point x="-61" y="-208" type="line"/>
      <point x="-40" y="-108" type="line"/>
      <point x="32" y="-108" type="line"/>
      <point x="44" y="-48" type="line"/>
      <point x="-165" y="-48" type="line"/>
      <point x="-177" y="-108" type="line"/>
      <point x="-105" y="-108" type="line"/>
    </contour>
  </outline>
</glyph>
<glyph name="bridgebelowcomb" format="2">
  <unicode hex="032A"/>
  <anchor x="-50" y="0" name="_bottom"/>
  <anchor x="-77" y="-218" name="bottom"/>
  <outline>
    <contour>
      <point x="-274" y="-218" type="line"/>
      <point x="-208" y="-218" type="line"/>
      <point x="-184" y="-108" type="line"/>
      <point x="39" y="-108" type="line"/>
      <point x="15" y="-218" type="line"/>
      <point x="81" y="-218" type="line"/>
      <point x="117" y="-48" type="line"/>
      <point x="-238" y="-48" type="line"/>
    </contour>
  </outline>
</glyph>
<glyph name="lowlinecomb" format="2">
  <unicode hex="0332"/>
  <anchor x="-47" y="0" name="_bottom"/>
  <anchor x="-71" y="-158" name="bottom"/>
  <outline>
    <contour>
      <point x="-304" y="-158" type="line"/>
      <point x="144" y="-158" type="line"/>
      <point x="158" y="-90" type="line"/>
      <point x="-290" y="-90" type="line"/>
    </contour>
  </outline>
</glyph>
<glyph name="ypogegrammenicomb" format="2">
  <unicode hex="0345"/>
  <anchor x="-57" y="0" name="_bottom"/>
  <anchor x="-54" y="-228" name="bottom"/>
  <outline>
    <contour>
      <point x="-47" y="-228" type="curve" smooth="yes"/>
      <point x="-20" y="-228"/>
      <point x="7" y="-223"/>
      <point x="19" y="-219" type="curve"/>
      <point x="19" y="-151" type="line"/>
      <point x="13" y="-153"/>
      <point x="1" y="-156"/>
      <point x="-10" y="-156" type="curve" smooth="yes"/>
      <point x="-26" y="-156"/>
      <point x="-35" y="-148"/>
      <point x="-35" y="-134" type="curve" smooth="yes"/>
      <point x="-35" y="-129"/>
      <point x="-34" y="-120"/>
      <point x="-32" y="-111" type="curve" smooth="yes"/>
      <point x="-22" y="-62" type="line"/>
      <point x="-114" y="-62" type="line"/>
      <point x="-128" y="-125" type="line" smooth="yes"/>
      <point x="-130" y="-134"/>
      <point x="-131" y="-143"/>
      <point x="-131" y="-155" type="curve" smooth="yes"/>
      <point x="-131" y="-197"/>
      <point x="-103" y="-228"/>
    </contour>
  </outline>
</glyph>
<glyph name="tildedoublecomb" format="2">
  <unicode hex="0360"/>
  <anchor x="332" y="546" name="_top"/>
  <anchor x="364" y="760" name="top"/>
  <outline>
    <contour>
      <point x="-34" y="607" type="curve"/>
      <point x="41" y="607" type="line"/>
      <point x="60" y="642"/>
      <point x="100" y="662"/>
      <point x="146" y="662" type="curve" smooth="yes"/>
      <point x="289" y="662"/>
      <point x="399" y="608"/>
      <point x="554" y="608" type="curve" smooth="yes"/>
      <point x="643" y="608"/>
      <point x="725" y="657"/>
      <point x="757" y="760" type="curve"/>
      <point x="682" y="760" type="line"/>
      <point x="662" y="725"/>
      <point x="624" y="706"/>
      <point x="577" y="706" type="curve" smooth="yes"/>
      <point x="429" y="706"/>
      <point x="328" y="760"/>
      <point x="167" y="760" type="curve" smooth="yes"/>
      <point x="79" y="760"/>
      <point x="-2" y="711"/>
    </contour>
  </outline>
</glyph>
<glyph name="Heta" format="2">
  <advance width="478"/>
  <unicode hex="0370"/>
  <anchor x="181" y="0" name="bottom"/>
  <anchor x="333" y="714" name="top"/>
  <outline>
    <contour>
      <point x="26" y="0" type="line"/>
      <point x="175" y="0" type="line"/>
      <point x="240" y="308" type="line"/>
      <point x="430" y="308" type="line"/>
      <point x="457" y="434" type="line"/>
      <point x="267" y="434" type="line"/>
      <point x="326" y="714" type="line"/>
      <point x="177" y="714" type="line"/>
    </contour>
  </outline>
</glyph>
<glyph name="archaicsampi" format="2">
  <advance width="611"/>
  <unicode hex="0373"/>
  <anchor x="248" y="0" name="bottom"/>
  <anchor x="409" y="760" name="top"/>
  <outline>
    <contour>
      <point x="171" y="0" type="line"/>
      <point x="318" y="0" type="line"/>
      <point x="454" y="640" type="line"/>
      <point x="566" y="640" type="line"/>
      <point x="592" y="760" type="line"/>
      <point x="217" y="760" type="line"/>
      <point x="191" y="640" type="line"/>
      <point x="307" y="640" type="line"/>
    </contour>
    <contour>
      <point x="75" y="485" type="line"/>
      <point x="201" y="485" type="line"/>
      <point x="261" y="760" type="line"/>
      <point x="135" y="760" type="line"/>
    </contour>
    <contour>
      <point x="498" y="485" type="line"/>
      <point x="624" y="485" type="line"/>
      <point x="684" y="760" type="line"/>
      <point x="558" y="760" type="line"/>
    </contour>
  </outline>
</glyph>
<glyph name="uni0375" format="2">
  <advance width="233"/>
  <unicode hex="0375"/>
  <outline>
    <contour>
      <point x="-72" y="-220" type="line"/>
      <point x="66" y="-220" type="line"/>
      <point x="80" y="-177"/>
      <point x="108" y="-112"/>
      <point x="127" y="-73" type="curve"/>
      <point x="127" y="-60" type="line"/>
      <point x="39" y="-60" type="line"/>
      <point x="-5" y="-109"/>
      <point x="-48" y="-166"/>
      <point x="-72" y="-210" type="curve"/>
    </contour>
  </outline>
</glyph>
<glyph name="pamphyliandigamma" format="2">
  <advance width="674"/>
  <unicode hex="0377"/>
  <anchor x="279" y="0" name="bottom"/>
  <anchor x="395" y="546" name="top"/>
  <outline>
    <contour>
      <point x="25" y="0" type="line"/>
      <point x="197" y="0" type="line"/>
      <point x="492" y="380" type="line"/>
      <point x="473" y="325"/>
      <point x="459" y="271"/>
      <point x="447" y="215" type="curve" smooth="yes"/>
      <point x="401" y="0" type="line"/>
      <point x="541" y="0" type="line"/>
      <point x="657" y="546" type="line"/>
      <point x="484" y="546" type="line"/>
      <point x="189" y="166" type="line"/>
      <point x="209" y="222"/>
      <point x="224" y="277"/>
      <point x="236" y="334" type="curve" smooth="yes"/>
      <point x="281" y="546" type="line"/>
      <point x="141" y="546" type="line"/>
    </contour>
  </outline>
</glyph>
<glyph name="tonos" format="2">
  <advance width="554"/>
  <unicode hex="0384"/>
  <anchor x="328" y="546" name="_top"/>
  <outline>
    <contour>
      <point x="276" y="606" type="line"/>
      <point x="364" y="606" type="line"/>
      <point x="414" y="669"/>
      <point x="456" y="732"/>
      <point x="488" y="784" type="curve"/>
      <point x="488" y="796" type="line"/>
      <point x="349" y="796" type="line"/>
      <point x="331" y="745"/>
      <point x="300" y="668"/>
      <point x="276" y="621" type="curve"/>
    </contour>
  </outline>
</glyph>
<glyph name="Gamma" format="2">
  <advance width="503"/>
  <unicode hex="0393"/>
  <anchor x="194" y="0" name="bottom"/>
  <anchor x="382" y="714" name="top"/>
  <outline>
    <contour>
      <point x="26" y="0" type="line"/>
      <point x="173" y="0" type="line"/>
      <point x="298" y="590" type="line"/>
      <point x="548" y="590" type="line"/>
      <point x="574" y="714" type="line"/>
      <point x="177" y="714" type="line"/>
    </contour>
  </outline>
</glyph>
<glyph name="Delta" format="2">
  <advance width="605"/>
  <unicode hex="0394"/>
  <anchor x="245" y="0" name="bottom"/>
  <anchor x="397" y="714" name="top"/>
  <outline>
    <contour>
      <point x="-26" y="0" type="line"/>
      <point x="529" y="0" type="line"/>
      <point x="548" y="85" type="line"/>
      <point x="479" y="717" type="line"/>
      <point x="307" y="717" type="line"/>
      <point x="-9" y="88" type="line"/>
    </contour>
    <contour>
      <point x="156" y="126" type="line"/>
      <point x="339" y="504" type="line" smooth="yes"/>
      <point x="348" y="523"/>
      <point x="360" y="549"/>
      <point x="367" y="573" type="curve"/>
      <point x="367" y="546"/>
      <point x="370" y="511"/>
      <point x="371" y="496" type="curve" smooth="yes"/>
      <point x="408" y="126" type="line"/>
    </contour>
  </outline>
</glyph>
<glyph name="Theta" format="2">
  <advance width="742"/>
  <unicode hex="0398"/>
  <anchor x="313" y="0" name="bottom"/>
  <anchor x="465" y="714" name="top"/>
  <outline>
    <contour>
      <point x="338" y="-10" type="curve" smooth="yes"/>
      <point x="590" y="-10"/>
      <point x="711" y="198"/>
      <point x="711" y="441" type="curve" smooth="yes"/>
      <point x="711" y="616"/>
      <point x="616" y="725"/>
      <point x="441" y="725" type="curve" smooth="yes"/>
      <point x="185" y="725"/>
      <point x="60" y="506"/>
      <point x="60" y="271" type="curve" smooth="yes"/>
      <point x="60" y="98"/>
      <point x="162" y="-10"/>
    </contour>
    <contour>
      <point x="344" y="117" type="curve" smooth="yes"/>
      <point x="260" y="117"/>
      <point x="212" y="178"/>
      <point x="212" y="267" type="curve" smooth="yes"/>
      <point x="212" y="422"/>
      <point x="277" y="599"/>
      <point x="432" y="599" type="curve" smooth="yes"/>
      <point x="514" y="599"/>
      <point x="559" y="537"/>
      <point x="559" y="448" type="curve" smooth="yes"/>
      <point x="559" y="272"/>
      <point x="491" y="117"/>
    </contour>
    <contour>
      <point x="265" y="301" type="line"/>
      <point x="482" y="301" type="line"/>
      <point x="508" y="425" type="line"/>
      <point x="291" y="425" type="line"/>
    </contour>
  </outline>
</glyph>
<glyph name="Xi" format="2">
  <advance width="521"/>
  <unicode hex="039E"/>
  <anchor x="203" y="0" name="bottom"/>
  <anchor x="355" y="714" name="top"/>
  <outline>
    <contour>
      <point x="-21" y="0" type="line"/>
      <point x="419" y="0" type="line"/>
      <point x="445" y="125" type="line"/>
      <point x="4" y="125" type="line"/>
    </contour>
    <contour>
      <point x="101" y="309" type="line"/>
      <point x="427" y="309" type="line"/>
      <point x="454" y="433" type="line"/>
      <point x="128" y="433" type="line"/>
    </contour>
    <contour>
      <point x="123" y="590" type="line"/>
      <point x="525" y="590" type="line"/>
      <point x="551" y="714" type="line"/>
      <point x="149" y="714" type="line"/>
    </contour>
  </outline>
</glyph>
<glyph name="Sigma" format="2">
  <advance width="543"/>
  <unicode hex="03A3"/>
  <anchor x="214" y="0" name="bottom"/>
  <anchor x="366" y="714" name="top"/>
  <outline>
    <contour>
      <point x="-21" y="0" type="line"/>
      <point x="454" y="0" type="line"/>
      <point x="480" y="125" type="line"/>
      <point x="189" y="125" type="line"/>
      <point x="433" y="355" type="line"/>
      <point x="278" y="590" type="line"/>
      <point x="551" y="590" type="line"/>
      <point x="577" y="714" type="line"/>
      <point x="135" y="714" type="line"/>
      <point x="111" y="600" type="line"/>
      <point x="268" y="365" type="line"/>
      <point x="3" y="118" type="line"/>
    </contour>
  </outline>
</glyph>
<glyph name="Phi" format="2">
  <advance width="816"/>
  <unicode hex="03A6"/>
  <anchor x="350" y="0" name="bottom"/>
  <anchor x="502" y="714" name="top"/>
  <outline>
    <contour>
      <point x="272" y="-10" type="line"/>
      <point x="411" y="-10" type="line"/>
      <point x="435" y="100" type="line"/>
      <point x="657" y="103"/>
      <point x="785" y="215"/>
      <point x="785" y="401" type="curve" smooth="yes"/>
      <point x="785" y="521"/>
      <point x="718" y="622"/>
      <point x="549" y="636" type="curve"/>
      <point x="567" y="724" type="line"/>
      <point x="428" y="724" type="line"/>
      <point x="410" y="636" type="line"/>
      <point x="208" y="629"/>
      <point x="60" y="537"/>
      <point x="60" y="337" type="curve" smooth="yes"/>
      <point x="60" y="224"/>
      <point x="118" y="113"/>
      <point x="296" y="99" type="curve"/>
    </contour>
    <contour>
      <point x="321" y="217" type="line"/>
      <point x="243" y="219"/>
      <point x="209" y="269"/>
      <point x="209" y="336" type="curve" smooth="yes"/>
      <point x="209" y="449"/>
      <point x="279" y="511"/>
      <point x="385" y="518" type="curve"/>
    </contour>
    <contour>
      <point x="460" y="217" type="curve"/>
      <point x="524" y="518" type="line"/>
      <point x="601" y="516"/>
      <point x="636" y="466"/>
      <point x="636" y="401" type="curve" smooth="yes"/>
      <point x="636" y="292"/>
      <point x="573" y="224"/>
    </contour>
  </outline>
</glyph>
<glyph name="Omega" format="2">
  <advance width="739"/>
  <unicode hex="03A9"/>
  <anchor x="312" y="0" name="bottom"/>
  <anchor x="464" y="714" name="top"/>
  <anchor x="114" y="714" name="topleft"/>
  <outline>
    <contour>
      <point x="-20" y="0" type="line"/>
      <point x="263" y="0" type="line"/>
      <point x="292" y="135" type="line"/>
      <point x="243" y="182"/>
      <point x="221" y="242"/>
      <point x="221" y="328" type="curve" smooth="yes"/>
      <point x="221" y="455"/>
      <point x="271" y="599"/>
      <point x="422" y="599" type="curve" smooth="yes"/>
      <point x="513" y="599"/>
      <point x="562" y="543"/>
      <point x="562" y="440" type="curve" smooth="yes"/>
      <point x="562" y="310"/>
      <point x="509" y="202"/>
      <point x="383" y="135" type="curve"/>
      <point x="354" y="0" type="line"/>
      <point x="661" y="0" type="line"/>
      <point x="688" y="127" type="line"/>
      <point x="510" y="127" type="line"/>
      <point x="598" y="170"/>
      <point x="714" y="264"/>
      <point x="714" y="467" type="curve" smooth="yes"/>
      <point x="714" y="612"/>
      <point x="617" y="725"/>
      <point x="430" y="725" type="curve" smooth="yes"/>
      <point x="155.003" y="725"/>
      <point x="71" y="514"/>
      <point x="71" y="364" type="curve" smooth="yes"/>
      <point x="71" y="241"/>
      <point x="127" y="162"/>
      <point x="183" y="127" type="curve"/>
      <point x="6" y="127" type="line"/>
    </contour>
  </outline>
</glyph>
<glyph name="alpha" format="2">
  <advance width="606"/>
  <unicode hex="03B1"/>
  <anchor x="250" y="0" name="bottom"/>
  <anchor x="361" y="546" name="top"/>
  <outline>
    <contour>
      <point x="193" y="-10" type="curve" smooth="yes"/>
      <point x="272" y="-10"/>
      <point x="312" y="28"/>
      <point x="348" y="71" type="curve"/>
      <point x="352" y="71" type="line"/>
      <point x="367" y="13"/>
      <point x="410" y="-10"/>
      <point x="471" y="-10" type="curve" smooth="yes"/>
      <point x="508" y="-10"/>
      <point x="537" y="-2"/>
      <point x="552" y="5" type="curve"/>
      <point x="552" y="121" type="line"/>
      <point x="544" y="118"/>
      <point x="530" y="115"/>
      <point x="520" y="115" type="curve" smooth="yes"/>
      <point x="502" y="115"/>
      <point x="490" y="125"/>
      <point x="490" y="147" type="curve" smooth="yes"/>
      <point x="490" y="155"/>
      <point x="491" y="163"/>
      <point x="493" y="173" type="curve" smooth="yes"/>
      <point x="526" y="329" type="line"/>
      <point x="545" y="418"/>
      <point x="583" y="503"/>
      <point x="606" y="546" type="curve"/>
      <point x="482" y="546" type="line"/>
      <point x="464" y="528"/>
      <point x="445" y="494"/>
      <point x="434" y="472" type="curve"/>
      <point x="430" y="472" type="line"/>
      <point x="404" y="520"/>
      <point x="371" y="556"/>
      <point x="301" y="556" type="curve" smooth="yes"/>
      <point x="149" y="556"/>
      <point x="44" y="398"/>
      <point x="44" y="188" type="curve" smooth="yes"/>
      <point x="44" y="52"/>
      <point x="107" y="-10"/>
    </contour>
    <contour>
      <point x="258" y="109" type="curve" smooth="yes"/>
      <point x="214" y="109"/>
      <point x="193" y="138"/>
      <point x="193" y="202" type="curve" smooth="yes"/>
      <point x="193" y="310"/>
      <point x="245" y="437"/>
      <point x="322" y="437" type="curve" smooth="yes"/>
      <point x="364" y="437"/>
      <point x="385" y="403"/>
      <point x="385" y="351" type="curve" smooth="yes"/>
      <point x="385" y="316"/>
      <point x="376" y="270"/>
      <point x="366" y="235" type="curve" smooth="yes"/>
      <point x="346" y="162"/>
      <point x="312" y="109"/>
    </contour>
  </outline>
</glyph>
<glyph name="gamma" format="2">
  <advance width="512"/>
  <unicode hex="03B3"/>
  <anchor x="147" y="-240" name="bottom"/>
  <anchor x="314" y="546" name="top"/>
  <anchor x="550" y="546" name="topright"/>
  <outline>
    <contour>
      <point x="29" y="-240" type="curve"/>
      <point x="186" y="-240" type="line"/>
      <point x="205" y="-151"/>
      <point x="237" y="-65"/>
      <point x="301" y="52" type="curve" smooth="yes"/>
      <point x="570" y="546" type="line"/>
      <point x="412" y="546" type="line"/>
      <point x="291" y="304" type="line" smooth="yes"/>
      <point x="266" y="254"/>
      <point x="238" y="195"/>
      <point x="221" y="148" type="curve"/>
      <point x="217" y="148" type="line" smooth="yes"/>
      <point x="217" y="195"/>
      <point x="217" y="250"/>
      <point x="213" y="302" type="curve" smooth="yes"/>
      <point x="194" y="546" type="line"/>
      <point x="50" y="546" type="line"/>
      <point x="118" y="7" type="line"/>
      <point x="74" y="-76"/>
      <point x="45" y="-158"/>
    </contour>
  </outline>
</glyph>
<glyph name="delta" format="2">
  <advance width="588"/>
  <unicode hex="03B4"/>
  <anchor x="236" y="0" name="bottom"/>
  <anchor x="399" y="765" name="top"/>
  <outline>
    <contour>
      <point x="241" y="-10" type="curve" smooth="yes"/>
      <point x="421" y="-10"/>
      <point x="528" y="103"/>
      <point x="528" y="279" type="curve" smooth="yes"/>
      <point x="528" y="365"/>
      <point x="484" y="436"/>
      <point x="414" y="492" type="curve" smooth="yes"/>
      <point x="351" y="543"/>
      <point x="331" y="560"/>
      <point x="331" y="596" type="curve" smooth="yes"/>
      <point x="331" y="637"/>
      <point x="365" y="655"/>
      <point x="403" y="655" type="curve" smooth="yes"/>
      <point x="450" y="655"/>
      <point x="495" y="636"/>
      <point x="543" y="605" type="curve"/>
      <point x="601" y="710" type="line"/>
      <point x="545" y="744"/>
      <point x="485" y="765"/>
      <point x="402" y="765" type="curve" smooth="yes"/>
      <point x="281" y="765"/>
      <point x="185" y="708"/>
      <point x="185" y="591" type="curve" smooth="yes"/>
      <point x="185" y="535"/>
      <point x="216" y="488"/>
      <point x="259" y="452" type="curve"/>
      <point x="121" y="417"/>
      <point x="27" y="323"/>
      <point x="27" y="182" type="curve" smooth="yes"/>
      <point x="27" y="83"/>
      <point x="89" y="-10"/>
    </contour>
    <contour>
      <point x="258" y="110" type="curve" smooth="yes"/>
      <point x="207" y="110"/>
      <point x="182" y="142"/>
      <point x="182" y="197" type="curve" smooth="yes"/>
      <point x="182" y="285"/>
      <point x="243" y="359"/>
      <point x="323" y="386" type="curve"/>
      <point x="354" y="362"/>
      <point x="373" y="323"/>
      <point x="373" y="275" type="curve" smooth="yes"/>
      <point x="373" y="182"/>
      <point x="326" y="110"/>
    </contour>
  </outline>
</glyph>
<glyph name="epsilon" format="2">
  <advance width="513"/>
  <unicode hex="03B5"/>
  <anchor x="199" y="0" name="bottom"/>
  <anchor x="335" y="546" name="top"/>
  <outline>
    <contour>
      <point x="236" y="-10" type="curve" smooth="yes"/>
      <point x="323" y="-10"/>
      <point x="384" y="5"/>
      <point x="432" y="29" type="curve"/>
      <point x="432" y="149" type="line"/>
      <point x="388" y="126"/>
      <point x="337" y="105"/>
      <point x="260" y="105" type="curve" smooth="yes"/>
      <point x="204" y="105"/>
      <point x="174" y="126"/>
      <point x="174" y="162" type="curve" smooth="yes"/>
      <point x="174" y="208"/>
      <point x="224" y="233"/>
      <point x="300" y="233" type="curve" smooth="yes"/>
      <point x="372" y="233" type="line"/>
      <point x="394" y="336" type="line"/>
      <point x="328" y="336" type="line" smooth="yes"/>
      <point x="263" y="336"/>
      <point x="232" y="351"/>
      <point x="232" y="385" type="curve" smooth="yes"/>
      <point x="232" y="428"/>
      <point x="274" y="446"/>
      <point x="330" y="446" type="curve" smooth="yes"/>
      <point x="388" y="446"/>
      <point x="431" y="429"/>
      <point x="478" y="406" type="curve"/>
      <point x="523" y="514" type="line"/>
      <point x="473" y="541"/>
      <point x="410" y="556"/>
      <point x="326" y="556" type="curve" smooth="yes"/>
      <point x="207" y="556"/>
      <point x="98" y="513"/>
      <point x="98" y="394" type="curve" smooth="yes"/>
      <point x="98" y="342"/>
      <point x="135" y="306"/>
      <point x="179" y="289" type="curve"/>
      <point x="179" y="285" type="line"/>
      <point x="83" y="269"/>
      <point x="19" y="227"/>
      <point x="19" y="134" type="curve" smooth="yes"/>
      <point x="19" y="40"/>
      <point x="107" y="-10"/>
    </contour>
  </outline>
</glyph>
<glyph name="zeta" format="2">
  <advance width="463"/>
  <unicode hex="03B6"/>
  <anchor x="135" y="-185" name="bottom"/>
  <anchor x="335" y="760" name="top"/>
  <outline>
    <contour>
      <point x="158" y="-185" type="curve"/>
      <point x="312" y="-185" type="line"/>
      <point x="369" y="-132"/>
      <point x="403" y="-83"/>
      <point x="403" y="-18" type="curve" smooth="yes"/>
      <point x="403" y="60"/>
      <point x="349" y="93"/>
      <point x="280" y="125" type="curve" smooth="yes"/>
      <point x="228" y="149"/>
      <point x="193" y="178"/>
      <point x="193" y="235" type="curve" smooth="yes"/>
      <point x="193" y="349"/>
      <point x="270" y="453"/>
      <point x="542" y="671" type="curve"/>
      <point x="561" y="760" type="line"/>
      <point x="180" y="760" type="line"/>
      <point x="156" y="651" type="line"/>
      <point x="272" y="651" type="line" smooth="yes"/>
      <point x="291" y="651"/>
      <point x="328" y="652"/>
      <point x="360" y="657" type="curve"/>
      <point x="175" y="516"/>
      <point x="44" y="397"/>
      <point x="44" y="214" type="curve" smooth="yes"/>
      <point x="44" y="113"/>
      <point x="94" y="54"/>
      <point x="187" y="12" type="curve" smooth="yes"/>
      <point x="244" y="-14"/>
      <point x="254" y="-28"/>
      <point x="254" y="-48" type="curve" smooth="yes"/>
      <point x="254" y="-88"/>
      <point x="209" y="-134"/>
    </contour>
  </outline>
</glyph>
<glyph name="eta" format="2">
  <advance width="604"/>
  <unicode hex="03B7"/>
  <anchor x="47" y="-240" name="bottom"/>
  <anchor x="366" y="546" name="top"/>
  <outline>
    <contour>
      <point x="279" y="-240" type="line"/>
      <point x="426" y="-240" type="line"/>
      <point x="542" y="311" type="line"/>
      <point x="549" y="344"/>
      <point x="553" y="375"/>
      <point x="553" y="399" type="curve" smooth="yes"/>
      <point x="553" y="495"/>
      <point x="506" y="556"/>
      <point x="412" y="556" type="curve" smooth="yes"/>
      <point x="336" y="556"/>
      <point x="281" y="510"/>
      <point x="239" y="445" type="curve"/>
      <point x="235" y="445" type="line"/>
      <point x="245" y="546" type="line"/>
      <point x="134" y="546" type="line"/>
      <point x="18" y="0" type="line"/>
      <point x="165" y="0" type="line"/>
      <point x="213" y="226" type="line" smooth="yes"/>
      <point x="238" y="342"/>
      <point x="285" y="437"/>
      <point x="352" y="437" type="curve" smooth="yes"/>
      <point x="387" y="437"/>
      <point x="405" y="418"/>
      <point x="405" y="377" type="curve" smooth="yes"/>
      <point x="405" y="361"/>
      <point x="402" y="341"/>
      <point x="397" y="319" type="curve" smooth="yes"/>
    </contour>
  </outline>
</glyph>
<glyph name="theta" format="2">
  <advance width="585"/>
  <unicode hex="03B8"/>
  <anchor x="235" y="0" name="bottom"/>
  <anchor x="398" y="765" name="top"/>
  <anchor x="670" y="765" name="topright"/>
  <outline>
    <contour>
      <point x="240" y="-10" type="curve" smooth="yes"/>
      <point x="418" y="-10"/>
      <point x="499" y="136"/>
      <point x="542" y="336" type="curve" smooth="yes"/>
      <point x="560" y="418"/>
      <point x="567" y="486"/>
      <point x="567" y="544" type="curve" smooth="yes"/>
      <point x="567" y="687"/>
      <point x="504" y="765"/>
      <point x="380" y="765" type="curve" smooth="yes"/>
      <point x="206" y="765"/>
      <point x="129" y="634"/>
      <point x="77" y="427" type="curve" smooth="yes"/>
      <point x="57" y="345"/>
      <point x="49" y="264"/>
      <point x="49" y="209" type="curve" smooth="yes"/>
      <point x="49" y="85"/>
      <point x="100" y="-10"/>
    </contour>
    <contour>
      <point x="251" y="98" type="curve" smooth="yes"/>
      <point x="210" y="98"/>
      <point x="193" y="133"/>
      <point x="193" y="188" type="curve" smooth="yes"/>
      <point x="193" y="230"/>
      <point x="198" y="274"/>
      <point x="208" y="325" type="curve"/>
      <point x="386" y="325" type="line"/>
      <point x="350" y="171"/>
      <point x="310" y="98"/>
    </contour>
    <contour>
      <point x="232" y="436" type="line"/>
      <point x="266" y="578"/>
      <point x="310" y="657"/>
      <point x="368" y="657" type="curve" smooth="yes"/>
      <point x="405" y="657"/>
      <point x="422" y="623"/>
      <point x="422" y="572" type="curve" smooth="yes"/>
      <point x="422" y="526"/>
      <point x="417" y="486"/>
      <point x="408" y="436" type="curve"/>
    </contour>
  </outline>
</glyph>
<glyph name="lambda" format="2">
  <advance width="572"/>
  <unicode hex="03BB"/>
  <anchor x="228" y="0" name="bottom"/>
  <anchor x="391" y="766" name="top"/>
  <outline>
    <contour>
      <point x="434" y="-10" type="curve" smooth="yes"/>
      <point x="476" y="-10"/>
      <point x="506" y="-3"/>
      <point x="527" y="6" type="curve"/>
      <point x="527" y="120" type="line"/>
      <point x="513" y="116"/>
      <point x="503" y="115"/>
      <point x="494" y="115" type="curve" smooth="yes"/>
      <point x="464" y="115"/>
      <point x="448" y="136"/>
      <point x="438" y="214" type="curve" smooth="yes"/>
      <point x="388" y="588" type="line" smooth="yes"/>
      <point x="373" y="702"/>
      <point x="323" y="766"/>
      <point x="211" y="766" type="curve" smooth="yes"/>
      <point x="177" y="766"/>
      <point x="145" y="762"/>
      <point x="117" y="755" type="curve"/>
      <point x="135" y="635" type="line"/>
      <point x="149" y="638"/>
      <point x="167" y="641"/>
      <point x="184" y="641" type="curve" smooth="yes"/>
      <point x="222" y="641"/>
      <point x="242" y="624"/>
      <point x="249" y="563" type="curve" smooth="yes"/>
      <point x="254" y="518" type="line"/>
      <point x="-45" y="0" type="line"/>
      <point x="115" y="0" type="line"/>
      <point x="235" y="224" type="line" smooth="yes"/>
      <point x="256" y="263"/>
      <point x="271" y="307"/>
      <point x="286" y="338" type="curve"/>
      <point x="288" y="308"/>
      <point x="290" y="256"/>
      <point x="295" y="221" type="curve" smooth="yes"/>
      <point x="309" y="123" type="line" smooth="yes"/>
      <point x="322" y="35"/>
      <point x="357" y="-10"/>
    </contour>
  </outline>
</glyph>
<glyph name="nu" format="2">
  <advance width="550"/>
  <unicode hex="03BD"/>
  <anchor x="217" y="0" name="bottom"/>
  <anchor x="333" y="546" name="top"/>
  <outline>
    <contour>
      <point x="118" y="0" type="line"/>
      <point x="263" y="0" type="line"/>
      <point x="441" y="160"/>
      <point x="522" y="339"/>
      <point x="559" y="546" type="curve"/>
      <point x="409" y="546" type="line"/>
      <point x="369" y="358"/>
      <point x="316" y="236"/>
      <point x="229" y="133" type="curve"/>
      <point x="229" y="162"/>
      <point x="228" y="208"/>
      <point x="224" y="245" type="curve" smooth="yes"/>
      <point x="194" y="546" type="line"/>
      <point x="50" y="546" type="line"/>
    </contour>
  </outline>
</glyph>
<glyph name="xi" format="2">
  <advance width="463"/>
  <unicode hex="03BE"/>
  <anchor x="135" y="-185" name="bottom"/>
  <anchor x="335" y="760" name="top"/>
  <outline>
    <contour>
      <point x="158" y="-185" type="curve"/>
      <point x="312" y="-185" type="line"/>
      <point x="369" y="-132"/>
      <point x="403" y="-83"/>
      <point x="403" y="-18" type="curve" smooth="yes"/>
      <point x="403" y="60"/>
      <point x="348" y="92"/>
      <point x="280" y="125" type="curve" smooth="yes"/>
      <point x="222" y="153"/>
      <point x="193" y="173"/>
      <point x="193" y="225" type="curve" smooth="yes"/>
      <point x="193" y="292"/>
      <point x="251" y="344"/>
      <point x="380" y="344" type="curve" smooth="yes"/>
      <point x="414" y="344" type="line"/>
      <point x="436" y="447" type="line"/>
      <point x="386" y="447" type="line" smooth="yes"/>
      <point x="312" y="447"/>
      <point x="273" y="475"/>
      <point x="273" y="527" type="curve" smooth="yes"/>
      <point x="273" y="629"/>
      <point x="396" y="657"/>
      <point x="494" y="657" type="curve" smooth="yes"/>
      <point x="506" y="657" type="line"/>
      <point x="528" y="760" type="line"/>
      <point x="160" y="760" type="line"/>
      <point x="136" y="651" type="line"/>
      <point x="162" y="651" type="line" smooth="yes"/>
      <point x="198" y="651"/>
      <point x="235" y="654"/>
      <point x="281" y="657" type="curve"/>
      <point x="192" y="635"/>
      <point x="123" y="597"/>
      <point x="123" y="510" type="curve" smooth="yes"/>
      <point x="123" y="458"/>
      <point x="160" y="419"/>
      <point x="222" y="404" type="curve"/>
      <point x="222" y="400" type="line"/>
      <point x="117" y="372"/>
      <point x="45" y="315"/>
      <point x="45" y="200" type="curve" smooth="yes"/>
      <point x="45" y="116"/>
      <point x="88" y="58"/>
      <point x="187" y="12" type="curve" smooth="yes"/>
      <point x="246" y="-15"/>
      <point x="252" y="-28"/>
      <point x="252" y="-48" type="curve" smooth="yes"/>
      <point x="252" y="-88"/>
      <point x="209" y="-134"/>
    </contour>
  </outline>
</glyph>
<glyph name="pi" format="2">
  <advance width="715"/>
  <unicode hex="03C0"/>
  <anchor x="300" y="0" name="bottom"/>
  <anchor x="416" y="546" name="top"/>
  <outline>
    <contour>
      <point x="516" y="-10" type="curve" smooth="yes"/>
      <point x="573" y="-10"/>
      <point x="610" y="2"/>
      <point x="637" y="17" type="curve"/>
      <point x="637" y="123" type="line"/>
      <point x="616" y="113"/>
      <point x="596" y="107"/>
      <point x="573" y="107" type="curve" smooth="yes"/>
      <point x="550" y="107"/>
      <point x="536" y="117"/>
      <point x="536" y="142" type="curve" smooth="yes"/>
      <point x="536" y="149"/>
      <point x="538" y="160"/>
      <point x="540" y="170" type="curve" smooth="yes"/>
      <point x="593" y="434" type="line"/>
      <point x="710" y="434" type="line"/>
      <point x="733" y="546" type="line"/>
      <point x="156" y="546" type="line"/>
      <point x="60" y="506" type="line"/>
      <point x="46" y="434" type="line"/>
      <point x="163" y="434" type="line"/>
      <point x="70" y="0" type="line"/>
      <point x="219" y="0" type="line"/>
      <point x="311" y="434" type="line"/>
      <point x="445" y="434" type="line"/>
      <point x="391" y="169" type="line" smooth="yes"/>
      <point x="387" y="148"/>
      <point x="384" y="129"/>
      <point x="384" y="112" type="curve" smooth="yes"/>
      <point x="384" y="33"/>
      <point x="431" y="-10"/>
    </contour>
  </outline>
</glyph>
<glyph name="rho" format="2">
  <advance width="595"/>
  <unicode hex="03C1"/>
  <anchor x="189" y="-240" name="bottom"/>
  <anchor x="353" y="546" name="top"/>
  <outline>
    <contour>
      <point x="79" y="288" type="curve" smooth="yes"/>
      <point x="-32" y="-240" type="line"/>
      <point x="114" y="-240" type="line"/>
      <point x="143" y="-103" type="line" smooth="yes"/>
      <point x="154" y="-49"/>
      <point x="163" y="0"/>
      <point x="169" y="51" type="curve"/>
      <point x="196" y="15"/>
      <point x="239" y="-10"/>
      <point x="295" y="-10" type="curve" smooth="yes"/>
      <point x="457" y="-10"/>
      <point x="551" y="148"/>
      <point x="551" y="344" type="curve" smooth="yes"/>
      <point x="551" y="471"/>
      <point x="481" y="556"/>
      <point x="348" y="556" type="curve" smooth="yes"/>
      <point x="173" y="556"/>
      <point x="114" y="453"/>
    </contour>
    <contour>
      <point x="274" y="109" type="curve" smooth="yes"/>
      <point x="243" y="109"/>
      <point x="217" y="124"/>
      <point x="201" y="152" type="curve"/>
      <point x="228" y="281" type="line" smooth="yes"/>
      <point x="250" y="387"/>
      <point x="282" y="437"/>
      <point x="339" y="437" type="curve" smooth="yes"/>
      <point x="380" y="437"/>
      <point x="402" y="403"/>
      <point x="402" y="346" type="curve" smooth="yes"/>
      <point x="402" y="267"/>
      <point x="362" y="109"/>
    </contour>
  </outline>
</glyph>
<glyph name="sigma" format="2">
  <advance width="618"/>
  <unicode hex="03C3"/>
  <anchor x="251" y="0" name="bottom"/>
  <anchor x="367" y="546" name="top"/>
  <outline>
    <contour>
      <point x="256" y="-10" type="curve" smooth="yes"/>
      <point x="482" y="-10"/>
      <point x="536" y="202"/>
      <point x="536" y="288" type="curve" smooth="yes"/>
      <point x="536" y="355"/>
      <point x="516" y="408"/>
      <point x="492" y="437" type="curve"/>
      <point x="631" y="437" type="line"/>
      <point x="654" y="546" type="line"/>
      <point x="372" y="546" type="line" smooth="yes"/>
      <point x="155" y="546"/>
      <point x="44" y="404"/>
      <point x="44" y="207" type="curve" smooth="yes"/>
      <point x="44" y="68"/>
      <point x="128" y="-10"/>
    </contour>
    <contour>
      <point x="265" y="110" type="curve" smooth="yes"/>
      <point x="216" y="110"/>
      <point x="192" y="145"/>
      <point x="192" y="210" type="curve" smooth="yes"/>
      <point x="192" y="323"/>
      <point x="243" y="437"/>
      <point x="359" y="437" type="curve" smooth="yes"/>
      <point x="373" y="437" type="line"/>
      <point x="385" y="408"/>
      <point x="393" y="376"/>
      <point x="393" y="333" type="curve" smooth="yes"/>
      <point x="393" y="217"/>
      <point x="346" y="110"/>
    </contour>
  </outline>
</glyph>
<glyph name="tau" format="2">
  <advance width="499"/>
  <unicode hex="03C4"/>
  <anchor x="192" y="0" name="bottom"/>
  <anchor x="308" y="546" name="top"/>
  <outline>
    <contour>
      <point x="264" y="-10" type="curve" smooth="yes"/>
      <point x="318" y="-10"/>
      <point x="363" y="1"/>
      <point x="394" y="16" type="curve"/>
      <point x="394" y="126" type="line"/>
      <point x="364" y="115"/>
      <point x="342" y="109"/>
      <point x="315" y="109" type="curve" smooth="yes"/>
      <point x="289" y="109"/>
      <point x="272" y="119"/>
      <point x="272" y="145" type="curve" smooth="yes"/>
      <point x="272" y="151"/>
      <point x="273" y="161"/>
      <point x="275" y="171" type="curve" smooth="yes"/>
      <point x="331" y="434" type="line"/>
      <point x="494" y="434" type="line"/>
      <point x="518" y="546" type="line"/>
      <point x="153" y="546" type="line"/>
      <point x="60" y="506" type="line"/>
      <point x="46" y="434" type="line"/>
      <point x="184" y="434" type="line"/>
      <point x="128" y="171" type="line" smooth="yes"/>
      <point x="124" y="151"/>
      <point x="122" y="132"/>
      <point x="122" y="116" type="curve" smooth="yes"/>
      <point x="122" y="21"/>
      <point x="178" y="-10"/>
    </contour>
  </outline>
</glyph>
<glyph name="phi" format="2">
  <advance width="764"/>
  <unicode hex="03C6"/>
  <anchor x="273" y="-240" name="bottom"/>
  <anchor x="440" y="546" name="top"/>
  <outline>
    <contour>
      <point x="194" y="-240" type="line"/>
      <point x="336" y="-240" type="line"/>
      <point x="383" y="-9" type="line"/>
      <point x="591" y="1"/>
      <point x="720" y="140"/>
      <point x="720" y="346" type="curve" smooth="yes"/>
      <point x="720" y="474"/>
      <point x="652" y="556"/>
      <point x="530" y="556" type="curve" smooth="yes"/>
      <point x="410" y="556"/>
      <point x="350" y="490"/>
      <point x="322" y="362" type="curve" smooth="yes"/>
      <point x="268" y="110" type="line"/>
      <point x="224" y="121"/>
      <point x="194" y="159"/>
      <point x="194" y="230" type="curve" smooth="yes"/>
      <point x="194" y="324"/>
      <point x="240" y="397"/>
      <point x="316" y="473" type="curve"/>
      <point x="220" y="556" type="line"/>
      <point x="110" y="464"/>
      <point x="44" y="370"/>
      <point x="44" y="225" type="curve" smooth="yes"/>
      <point x="44" y="90"/>
      <point x="128" y="11"/>
      <point x="245" y="-5" type="curve"/>
    </contour>
    <contour>
      <point x="408" y="111" type="curve"/>
      <point x="462" y="360" type="line" smooth="yes"/>
      <point x="476" y="423"/>
      <point x="499" y="446"/>
      <point x="525" y="446" type="curve" smooth="yes"/>
      <point x="559" y="446"/>
      <point x="571" y="410"/>
      <point x="571" y="359" type="curve" smooth="yes"/>
      <point x="571" y="248"/>
      <point x="522" y="129"/>
    </contour>
  </outline>
</glyph>
<glyph name="chi" format="2">
  <advance width="552"/>
  <unicode hex="03C7"/>
  <anchor x="167" y="-240" name="bottom"/>
  <anchor x="334" y="546" name="top"/>
  <anchor x="590" y="546" name="topright"/>
  <outline>
    <contour>
      <point x="-127" y="-240" type="line"/>
      <point x="33" y="-240" type="line"/>
      <point x="221" y="43" type="line"/>
      <point x="241" y="-94" type="line" smooth="yes"/>
      <point x="256" y="-196"/>
      <point x="294" y="-240"/>
      <point x="378" y="-240" type="curve" smooth="yes"/>
      <point x="417" y="-240"/>
      <point x="445" y="-234"/>
      <point x="473" y="-224" type="curve"/>
      <point x="473" y="-108" type="line"/>
      <point x="450" y="-114"/>
      <point x="436" y="-115"/>
      <point x="423" y="-115" type="curve" smooth="yes"/>
      <point x="395" y="-115"/>
      <point x="378" y="-102"/>
      <point x="371" y="-58" type="curve" smooth="yes"/>
      <point x="335" y="168" type="line"/>
      <point x="615" y="546" type="line"/>
      <point x="453" y="546" type="line"/>
      <point x="297" y="319" type="line"/>
      <point x="284" y="408" type="line" smooth="yes"/>
      <point x="269" y="513"/>
      <point x="231" y="556"/>
      <point x="150" y="556" type="curve" smooth="yes"/>
      <point x="115" y="556"/>
      <point x="79" y="548"/>
      <point x="51" y="537" type="curve"/>
      <point x="76" y="421" type="line"/>
      <point x="90" y="426"/>
      <point x="99" y="428"/>
      <point x="112" y="428" type="curve" smooth="yes"/>
      <point x="139" y="428"/>
      <point x="151" y="409"/>
      <point x="159" y="359" type="curve" smooth="yes"/>
      <point x="185" y="196" type="line"/>
    </contour>
  </outline>
</glyph>
<glyph name="psi" format="2">
  <advance width="808"/>
  <unicode hex="03C8"/>
  <anchor x="295" y="-240" name="bottom"/>
  <anchor x="507" y="759" name="top"/>
  <outline>
    <contour>
      <point x="267" y="-14" type="curve"/>
      <point x="219" y="-240" type="line"/>
      <point x="360" y="-240" type="line"/>
      <point x="408" y="-14" type="line"/>
      <point x="719" y="13"/>
      <point x="764" y="266"/>
      <point x="764" y="546" type="curve"/>
      <point x="617" y="546" type="line"/>
      <point x="617" y="246"/>
      <point x="554" y="125"/>
      <point x="433" y="105" type="curve"/>
      <point x="572" y="759" type="line"/>
      <point x="431" y="759" type="line"/>
      <point x="292" y="103" type="line"/>
      <point x="236" y="106"/>
      <point x="205" y="136"/>
      <point x="205" y="186" type="curve" smooth="yes"/>
      <point x="205" y="203"/>
      <point x="207" y="222"/>
      <point x="212" y="245" type="curve" smooth="yes"/>
      <point x="275" y="546" type="line"/>
      <point x="129" y="546" type="line"/>
      <point x="66" y="249" type="line" smooth="yes"/>
      <point x="61" y="223"/>
      <point x="58" y="199"/>
      <point x="58" y="176" type="curve" smooth="yes"/>
      <point x="58" y="73"/>
      <point x="122" y="0"/>
    </contour>
  </outline>
</glyph>
<glyph name="omega" format="2">
  <advance width="820"/>
  <unicode hex="03C9"/>
  <anchor x="364" y="0" name="bottom"/>
  <anchor x="465" y="546" name="top"/>
  <outline>
    <contour>
      <point x="214" y="-10" type="curve" smooth="yes"/>
      <point x="294" y="-10"/>
      <point x="341" y="29"/>
      <point x="377" y="89" type="curve"/>
      <point x="394" y="29"/>
      <point x="432" y="-10"/>
      <point x="511" y="-10" type="curve" smooth="yes"/>
      <point x="690" y="-10"/>
      <point x="776" y="173"/>
      <point x="776" y="417" type="curve" smooth="yes"/>
      <point x="776" y="461"/>
      <point x="769" y="513"/>
      <point x="761" y="546" type="curve"/>
      <point x="622" y="546" type="line"/>
      <point x="632" y="503"/>
      <point x="637" y="459"/>
      <point x="637" y="406" type="curve" smooth="yes"/>
      <point x="637" y="264"/>
      <point x="590" y="106"/>
      <point x="508" y="106" type="curve" smooth="yes"/>
      <point x="474" y="106"/>
      <point x="459" y="127"/>
      <point x="459" y="162" type="curve" smooth="yes"/>
      <point x="459" y="180"/>
      <point x="463" y="203"/>
      <point x="468" y="228" type="curve" smooth="yes"/>
      <point x="499" y="372" type="line"/>
      <point x="360" y="372" type="line"/>
      <point x="329" y="228" type="line" smooth="yes"/>
      <point x="312" y="150"/>
      <point x="290" y="106"/>
      <point x="240" y="106" type="curve" smooth="yes"/>
      <point x="201" y="106"/>
      <point x="185" y="138"/>
      <point x="185" y="190" type="curve" smooth="yes"/>
      <point x="185" y="306"/>
      <point x="240" y="440"/>
      <point x="312" y="546" type="curve"/>
      <point x="164" y="546" type="line"/>
      <point x="98" y="441"/>
      <point x="44" y="318"/>
      <point x="44" y="186" type="curve" smooth="yes"/>
      <point x="44" y="70"/>
      <point x="100" y="-10"/>
    </contour>
  </outline>
</glyph>
<glyph name="uni03D0" format="2">
  <advance width="612"/>
  <unicode hex="03D0"/>
  <anchor x="246" y="-10" name="bottom"/>
  <anchor x="411" y="765" name="top"/>
  <outline>
    <contour>
      <point x="266" y="-10" type="curve" smooth="yes"/>
      <point x="443" y="-10"/>
      <point x="558" y="104"/>
      <point x="558" y="274" type="curve" smooth="yes"/>
      <point x="558" y="388"/>
      <point x="490" y="462"/>
      <point x="377" y="462" type="curve" smooth="yes"/>
      <point x="309" y="462"/>
      <point x="247" y="421"/>
      <point x="208" y="379" type="curve"/>
      <point x="220" y="437"/>
      <point x="244" y="494"/>
      <point x="268" y="535" type="curve"/>
      <point x="299" y="515"/>
      <point x="342" y="502"/>
      <point x="393" y="502" type="curve" smooth="yes"/>
      <point x="492" y="502"/>
      <point x="584" y="540"/>
      <point x="584" y="648" type="curve" smooth="yes"/>
      <point x="584" y="713"/>
      <point x="535" y="765"/>
      <point x="435" y="765" type="curve" smooth="yes"/>
      <point x="240" y="765"/>
      <point x="112" y="607"/>
      <point x="61" y="353" type="curve" smooth="yes"/>
      <point x="52" y="309"/>
      <point x="48" y="268"/>
      <point x="48" y="231" type="curve" smooth="yes"/>
      <point x="48" y="79"/>
      <point x="124" y="-10"/>
    </contour>
    <contour>
      <point x="281" y="111" type="curve" smooth="yes"/>
      <point x="223" y="111"/>
      <point x="189" y="152"/>
      <point x="189" y="226" type="curve" smooth="yes"/>
      <point x="189" y="245"/>
      <point x="191" y="265"/>
      <point x="195" y="288" type="curve"/>
      <point x="229" y="322"/>
      <point x="272" y="353"/>
      <point x="328" y="353" type="curve" smooth="yes"/>
      <point x="374" y="353"/>
      <point x="409" y="318"/>
      <point x="409" y="264" type="curve" smooth="yes"/>
      <point x="409" y="174"/>
      <point x="352" y="111"/>
    </contour>
    <contour>
      <point x="401" y="591" type="curve" smooth="yes"/>
      <point x="369" y="591"/>
      <point x="336" y="600"/>
      <point x="317" y="615" type="curve"/>
      <point x="344" y="650"/>
      <point x="388" y="676"/>
      <point x="427" y="676" type="curve" smooth="yes"/>
      <point x="456" y="676"/>
      <point x="477" y="662"/>
      <point x="477" y="640" type="curve" smooth="yes"/>
      <point x="477" y="612"/>
      <point x="448" y="591"/>
    </contour>
  </outline>
</glyph>
<glyph name="uni03D2" format="2">
  <advance width="575"/>
  <unicode hex="03D2"/>
  <anchor x="382" y="714" name="top"/>
  <outline>
    <contour>
      <point x="147" y="0" type="line"/>
      <point x="295" y="0" type="line"/>
      <point x="352" y="268" type="line"/>
      <point x="449" y="440"/>
      <point x="505" y="520"/>
      <point x="539" y="562" type="curve" smooth="yes"/>
      <point x="560" y="588"/>
      <point x="578" y="601"/>
      <point x="599" y="601" type="curve" smooth="yes"/>
      <point x="614" y="601"/>
      <point x="626" y="597"/>
      <point x="633" y="594" type="curve"/>
      <point x="660" y="707" type="line"/>
      <point x="634" y="716"/>
      <point x="613" y="720"/>
      <point x="581" y="720" type="curve" smooth="yes"/>
      <point x="524" y="720"/>
      <point x="481" y="695"/>
      <point x="440" y="645" type="curve" smooth="yes"/>
      <point x="394" y="589"/>
      <point x="348" y="505"/>
      <point x="305" y="425" type="curve"/>
      <point x="242" y="714" type="line"/>
      <point x="90" y="714" type="line"/>
      <point x="205" y="273" type="line"/>
    </contour>
  </outline>
</glyph>
<glyph name="uni03D6" format="2">
  <advance width="938"/>
  <unicode hex="03D6"/>
  <outline>
    <contour>
      <point x="270" y="-10" type="curve" smooth="yes"/>
      <point x="350" y="-10"/>
      <point x="397" y="29"/>
      <point x="433" y="89" type="curve"/>
      <point x="450" y="29"/>
      <point x="488" y="-10"/>
      <point x="567" y="-10" type="curve" smooth="yes"/>
      <point x="738" y="-10"/>
      <point x="823" y="173"/>
      <point x="823" y="337" type="curve" smooth="yes"/>
      <point x="823" y="380"/>
      <point x="819" y="414"/>
      <point x="815" y="434" type="curve"/>
      <point x="934" y="434" type="line"/>
      <point x="957" y="546" type="line"/>
      <point x="156" y="546" type="line"/>
      <point x="60" y="506" type="line"/>
      <point x="46" y="434" type="line"/>
      <point x="179" y="434" type="line"/>
      <point x="133" y="366"/>
      <point x="100" y="273"/>
      <point x="100" y="186" type="curve" smooth="yes"/>
      <point x="100" y="70"/>
      <point x="156" y="-10"/>
    </contour>
    <contour>
      <point x="296" y="106" type="curve" smooth="yes"/>
      <point x="257" y="106"/>
      <point x="241" y="138"/>
      <point x="241" y="190" type="curve" smooth="yes"/>
      <point x="241" y="268"/>
      <point x="270" y="354"/>
      <point x="311" y="434" type="curve"/>
      <point x="682" y="434" type="line"/>
      <point x="683" y="424"/>
      <point x="685" y="409"/>
      <point x="685" y="375" type="curve" smooth="yes"/>
      <point x="685" y="239"/>
      <point x="650" y="106"/>
      <point x="564" y="106" type="curve" smooth="yes"/>
      <point x="530" y="106"/>
      <point x="515" y="127"/>
      <point x="515" y="162" type="curve" smooth="yes"/>
      <point x="515" y="180"/>
      <point x="519" y="203"/>
      <point x="524" y="228" type="curve" smooth="yes"/>
      <point x="539" y="295" type="line"/>
      <point x="400" y="295" type="line"/>
      <point x="385" y="228" type="line" smooth="yes"/>
      <point x="368" y="150"/>
      <point x="346" y="106"/>
    </contour>
  </outline>
</glyph>
<glyph name="uni03D8" format="2">
  <advance width="776"/>
  <unicode hex="03D8"/>
  <anchor x="330" y="0" name="bottom"/>
  <anchor x="482" y="714" name="top"/>
  <outline>
    <contour>
      <point x="249" y="0" type="line"/>
      <point x="398" y="0" type="line"/>
      <point x="425" y="128" type="line"/>
      <point x="623" y="139"/>
      <point x="743" y="276"/>
      <point x="743" y="458" type="curve" smooth="yes"/>
      <point x="743" y="614"/>
      <point x="635" y="725"/>
      <point x="444" y="725" type="curve" smooth="yes"/>
      <point x="186" y="725"/>
      <point x="84" y="564"/>
      <point x="84" y="384" type="curve" smooth="yes"/>
      <point x="84" y="259"/>
      <point x="153" y="164"/>
      <point x="277" y="132" type="curve"/>
    </contour>
    <contour>
      <point x="392" y="255" type="curve" smooth="yes"/>
      <point x="287" y="255"/>
      <point x="240" y="309"/>
      <point x="240" y="397" type="curve" smooth="yes"/>
      <point x="240" y="505"/>
      <point x="293" y="599"/>
      <point x="436" y="599" type="curve" smooth="yes"/>
      <point x="539" y="599"/>
      <point x="587" y="539"/>
      <point x="587" y="455" type="curve" smooth="yes"/>
      <point x="587" y="326"/>
      <point x="512" y="255"/>
    </contour>
  </outline>
</glyph>
<glyph name="uni03DA" format="2">
  <advance width="600"/>
  <unicode hex="03DA"/>
  <anchor x="242" y="0" name="bottom"/>
  <anchor x="394" y="714" name="top"/>
  <outline>
    <contour>
      <point x="250" y="0" type="line"/>
      <point x="399" y="0" type="line"/>
      <point x="453" y="255" type="line"/>
      <point x="407" y="255" type="line" smooth="yes"/>
      <point x="291" y="255"/>
      <point x="232" y="301"/>
      <point x="232" y="385" type="curve" smooth="yes"/>
      <point x="232" y="504"/>
      <point x="311" y="599"/>
      <point x="436" y="599" type="curve" smooth="yes"/>
      <point x="491" y="599"/>
      <point x="540" y="576"/>
      <point x="582" y="552" type="curve"/>
      <point x="640" y="674" type="line"/>
      <point x="582" y="705"/>
      <point x="520" y="725"/>
      <point x="437" y="725" type="curve" smooth="yes"/>
      <point x="230" y="725"/>
      <point x="80" y="579"/>
      <point x="80" y="377" type="curve" smooth="yes"/>
      <point x="80" y="244"/>
      <point x="163" y="169"/>
      <point x="279" y="141" type="curve"/>
    </contour>
  </outline>
</glyph>
<glyph name="uni03DD" format="2">
  <advance width="509"/>
  <unicode hex="03DD"/>
  <anchor x="146" y="-240" name="bottom"/>
  <anchor x="313" y="546" name="top"/>
  <outline>
    <contour>
      <point x="-33" y="-240" type="line"/>
      <point x="114" y="-240" type="line"/>
      <point x="197" y="151" type="line"/>
      <point x="305" y="151" type="line"/>
      <point x="280" y="36" type="line"/>
      <point x="400" y="36" type="line"/>
      <point x="448" y="263" type="line"/>
      <point x="220" y="263" type="line"/>
      <point x="257" y="434" type="line"/>
      <point x="505" y="434" type="line"/>
      <point x="529" y="546" type="line"/>
      <point x="134" y="546" type="line"/>
    </contour>
  </outline>
</glyph>
<glyph name="uni03DE" format="2">
  <advance width="481"/>
  <unicode hex="03DE"/>
  <anchor x="183" y="0" name="bottom"/>
  <anchor x="335" y="714" name="top"/>
  <outline>
    <contour>
      <point x="345" y="-10" type="curve" smooth="yes"/>
      <point x="379" y="-10"/>
      <point x="414" y="-3"/>
      <point x="431" y="3" type="curve"/>
      <point x="431" y="107" type="line"/>
      <point x="419" y="103"/>
      <point x="402" y="98"/>
      <point x="382" y="98" type="curve" smooth="yes"/>
      <point x="362" y="98"/>
      <point x="352" y="106"/>
      <point x="352" y="122" type="curve" smooth="yes"/>
      <point x="352" y="140"/>
      <point x="364" y="161"/>
      <point x="377" y="187" type="curve" smooth="yes"/>
      <point x="501" y="434" type="line"/>
      <point x="236" y="434" type="line"/>
      <point x="273" y="507" type="line" smooth="yes"/>
      <point x="295" y="550"/>
      <point x="307" y="581"/>
      <point x="307" y="613" type="curve" smooth="yes"/>
      <point x="307" y="679"/>
      <point x="263" y="724"/>
      <point x="173" y="724" type="curve" smooth="yes"/>
      <point x="138" y="724"/>
      <point x="100" y="717"/>
      <point x="72" y="706" type="curve"/>
      <point x="94" y="605" type="line"/>
      <point x="108" y="612"/>
      <point x="125" y="616"/>
      <point x="136" y="616" type="curve" smooth="yes"/>
      <point x="155" y="616"/>
      <point x="168" y="608"/>
      <point x="168" y="592" type="curve" smooth="yes"/>
      <point x="168" y="572"/>
      <point x="154" y="547"/>
      <point x="143" y="525" type="curve" smooth="yes"/>
      <point x="33" y="308" type="line"/>
      <point x="297" y="308" type="line"/>
      <point x="245" y="206" type="line"/>
      <point x="225" y="166"/>
      <point x="209" y="133"/>
      <point x="209" y="95" type="curve" smooth="yes"/>
      <point x="209" y="28"/>
      <point x="264" y="-10"/>
    </contour>
  </outline>
</glyph>
<glyph name="uni03DF" format="2">
  <advance width="531"/>
  <unicode hex="03DF"/>
  <anchor x="157" y="-240" name="bottom"/>
  <anchor x="371" y="767" name="top"/>
  <outline>
    <contour>
      <point x="272" y="-240" type="curve" smooth="yes"/>
      <point x="315" y="-240"/>
      <point x="357" y="-233"/>
      <point x="373" y="-228" type="curve"/>
      <point x="373" y="-123" type="line"/>
      <point x="362" y="-127"/>
      <point x="340" y="-132"/>
      <point x="320" y="-132" type="curve" smooth="yes"/>
      <point x="294" y="-132"/>
      <point x="279" y="-118"/>
      <point x="279" y="-93" type="curve" smooth="yes"/>
      <point x="279" y="-71"/>
      <point x="293" y="-41"/>
      <point x="311" y="-11" type="curve" smooth="yes"/>
      <point x="506" y="312" type="line"/>
      <point x="506" y="394" type="line"/>
      <point x="212" y="333" type="line"/>
      <point x="324" y="519" type="line" smooth="yes"/>
      <point x="349" y="561"/>
      <point x="373" y="606"/>
      <point x="373" y="657" type="curve" smooth="yes"/>
      <point x="373" y="721"/>
      <point x="329" y="767"/>
      <point x="245" y="767" type="curve" smooth="yes"/>
      <point x="211" y="767"/>
      <point x="171" y="760"/>
      <point x="142" y="750" type="curve"/>
      <point x="162" y="648" type="line"/>
      <point x="176" y="655"/>
      <point x="193" y="659"/>
      <point x="207" y="659" type="curve" smooth="yes"/>
      <point x="223" y="659"/>
      <point x="237" y="649"/>
      <point x="237" y="632" type="curve" smooth="yes"/>
      <point x="237" y="610"/>
      <point x="225" y="589"/>
      <point x="212" y="566" type="curve" smooth="yes"/>
      <point x="43" y="278" type="line"/>
      <point x="43" y="184" type="line"/>
      <point x="331" y="247" type="line"/>
      <point x="173" y="-5" type="line" smooth="yes"/>
      <point x="147" y="-47"/>
      <point x="136" y="-81"/>
      <point x="136" y="-115" type="curve" smooth="yes"/>
      <point x="136" y="-187"/>
      <point x="184" y="-240"/>
    </contour>
  </outline>
</glyph>
<glyph name="uni03F0" format="2">
  <advance width="625"/>
  <unicode hex="03F0"/>
  <anchor x="255" y="0" name="bottom"/>
  <anchor x="371" y="546" name="top"/>
  <outline>
    <contour>
      <point x="502" y="-10" type="curve" smooth="yes"/>
      <point x="527" y="-10"/>
      <point x="558" y="-5"/>
      <point x="577" y="2" type="curve"/>
      <point x="577" y="107" type="line"/>
      <point x="567" y="103"/>
      <point x="550" y="99"/>
      <point x="534" y="99" type="curve" smooth="yes"/>
      <point x="497" y="99"/>
      <point x="475" y="115"/>
      <point x="475" y="158" type="curve" smooth="yes"/>
      <point x="475" y="280"/>
      <point x="581" y="460"/>
      <point x="646" y="546" type="curve"/>
      <point x="515" y="546" type="line"/>
      <point x="229" y="259" type="line"/>
      <point x="242" y="292"/>
      <point x="260" y="334"/>
      <point x="260" y="399" type="curve" smooth="yes"/>
      <point x="260" y="508"/>
      <point x="193" y="546"/>
      <point x="111" y="546" type="curve" smooth="yes"/>
      <point x="81" y="546"/>
      <point x="48" y="540"/>
      <point x="28" y="532" type="curve"/>
      <point x="45" y="430" type="line"/>
      <point x="55" y="434"/>
      <point x="68" y="438"/>
      <point x="85" y="438" type="curve" smooth="yes"/>
      <point x="113" y="438"/>
      <point x="131" y="417"/>
      <point x="131" y="373" type="curve" smooth="yes"/>
      <point x="131" y="269"/>
      <point x="49" y="96"/>
      <point x="-20" y="0" type="curve"/>
      <point x="110" y="0" type="line"/>
      <point x="384" y="282" type="line"/>
      <point x="361" y="237"/>
      <point x="345" y="188"/>
      <point x="345" y="133" type="curve" smooth="yes"/>
      <point x="345" y="28"/>
      <point x="414" y="-10"/>
    </contour>
  </outline>
</glyph>
<glyph name="uni03F1" format="2">
  <advance width="615"/>
  <unicode hex="03F1"/>
  <anchor x="199" y="-240" name="bottom"/>
  <anchor x="366" y="546" name="top"/>
  <outline>
    <contour>
      <point x="246" y="-240" type="curve"/>
      <point x="376" y="-240" type="line"/>
      <point x="387" y="-226"/>
      <point x="395" y="-207"/>
      <point x="395" y="-184" type="curve" smooth="yes"/>
      <point x="395" y="-124"/>
      <point x="365" y="-89"/>
      <point x="243" y="-70" type="curve" smooth="yes"/>
      <point x="174" y="-59"/>
      <point x="158" y="-29"/>
      <point x="158" y="6" type="curve" smooth="yes"/>
      <point x="158" y="16"/>
      <point x="159" y="37"/>
      <point x="160" y="45" type="curve"/>
      <point x="164" y="45" type="line"/>
      <point x="190" y="19"/>
      <point x="237" y="-10"/>
      <point x="303" y="-10" type="curve" smooth="yes"/>
      <point x="479" y="-10"/>
      <point x="570" y="136"/>
      <point x="570" y="332" type="curve" smooth="yes"/>
      <point x="570" y="475"/>
      <point x="490" y="556"/>
      <point x="357" y="556" type="curve" smooth="yes"/>
      <point x="197" y="556"/>
      <point x="90" y="469"/>
      <point x="39" y="207" type="curve" smooth="yes"/>
      <point x="25" y="136"/>
      <point x="18" y="68"/>
      <point x="18" y="21" type="curve" smooth="yes"/>
      <point x="18" y="-106"/>
      <point x="76" y="-170"/>
      <point x="176" y="-187" type="curve" smooth="yes"/>
      <point x="242" y="-198"/>
      <point x="253" y="-204"/>
      <point x="253" y="-220" type="curve" smooth="yes"/>
      <point x="253" y="-228"/>
      <point x="250" y="-234"/>
    </contour>
    <contour>
      <point x="281" y="107" type="curve" smooth="yes"/>
      <point x="239" y="107"/>
      <point x="197" y="132"/>
      <point x="176" y="157" type="curve"/>
      <point x="199" y="286"/>
      <point x="239" y="437"/>
      <point x="345" y="437" type="curve" smooth="yes"/>
      <point x="394" y="437"/>
      <point x="421" y="404"/>
      <point x="421" y="336" type="curve" smooth="yes"/>
      <point x="421" y="241"/>
      <point x="384" y="107"/>
    </contour>
  </outline>
</glyph>
<glyph name="uni03FA" format="2">
  <advance width="880"/>
  <unicode hex="03FA"/>
  <anchor x="382" y="0" name="bottom"/>
  <anchor x="534" y="714" name="top"/>
  <outline>
    <contour>
      <point x="26" y="0" type="line"/>
      <point x="160" y="0" type="line"/>
      <point x="230" y="332" type="line" smooth="yes"/>
      <point x="249" y="420"/>
      <point x="266" y="526"/>
      <point x="272" y="573" type="curve"/>
      <point x="276" y="573" type="line"/>
      <point x="369" y="240" type="line"/>
      <point x="487" y="240" type="line"/>
      <point x="721" y="572" type="line"/>
      <point x="725" y="572" type="line"/>
      <point x="713" y="532"/>
      <point x="683" y="409"/>
      <point x="665" y="325" type="curve" smooth="yes"/>
      <point x="597" y="0" type="line"/>
      <point x="734" y="0" type="line"/>
      <point x="885" y="714" type="line"/>
      <point x="688" y="714" type="line"/>
      <point x="451" y="373" type="line"/>
      <point x="448" y="373" type="line"/>
      <point x="353" y="714" type="line"/>
      <point x="177" y="714" type="line"/>
    </contour>
  </outline>
</glyph>
<glyph name="uni03FB" format="2">
  <advance width="792"/>
  <unicode hex="03FB"/>
  <anchor x="287" y="-240" name="bottom"/>
  <anchor x="454" y="546" name="top"/>
  <outline>
    <contour>
      <point x="-34" y="-240" type="line"/>
      <point x="105" y="-240" type="line"/>
      <point x="227" y="339" type="line" smooth="yes"/>
      <point x="233" y="369"/>
      <point x="238" y="398"/>
      <point x="242" y="428" type="curve"/>
      <point x="327" y="190" type="line"/>
      <point x="431" y="190" type="line"/>
      <point x="610" y="421" type="line"/>
      <point x="600" y="392"/>
      <point x="593" y="362"/>
      <point x="587" y="333" type="curve" smooth="yes"/>
      <point x="516" y="0" type="line"/>
      <point x="659" y="0" type="line"/>
      <point x="774" y="546" type="line"/>
      <point x="569" y="546" type="line"/>
      <point x="402" y="333" type="line"/>
      <point x="327" y="546" type="line"/>
      <point x="134" y="546" type="line"/>
    </contour>
  </outline>
</glyph>
<glyph name="uni03FC" format="2">
  <advance width="595"/>
  <unicode hex="03FC"/>
  <anchor x="189" y="-240" name="bottom"/>
  <anchor x="353" y="546" name="top"/>
  <outline>
    <contour>
      <point x="-88" y="-183" type="line"/>
      <point x="277" y="-183" type="line"/>
      <point x="297" y="-86" type="line"/>
      <point x="-68" y="-86" type="line"/>
    </contour>
    <component base="rho"/>
  </outline>
</glyph>
<glyph name="afii10018" format="2">
  <advance width="592"/>
  <unicode hex="0411"/>
  <anchor x="238" y="0" name="bottom"/>
  <anchor x="390" y="714" name="top"/>
  <outline>
    <contour>
      <point x="26" y="0" type="line"/>
      <point x="238" y="0" type="line" smooth="yes"/>
      <point x="424" y="0"/>
      <point x="538" y="80"/>
      <point x="538" y="240" type="curve" smooth="yes"/>
      <point x="538" y="359"/>
      <point x="467" y="440"/>
      <point x="299" y="440" type="curve" smooth="yes"/>
      <point x="266" y="440" type="line"/>
      <point x="298" y="590" type="line"/>
      <point x="552" y="590" type="line"/>
      <point x="578" y="714" type="line"/>
      <point x="177" y="714" type="line"/>
    </contour>
    <contour>
      <point x="199" y="124" type="line"/>
      <point x="240" y="316" type="line"/>
      <point x="293" y="316" type="line" smooth="yes"/>
      <point x="356" y="316"/>
      <point x="387" y="288"/>
      <point x="387" y="233" type="curve" smooth="yes"/>
      <point x="387" y="175"/>
      <point x="352" y="124"/>
      <point x="248" y="124" type="curve" smooth="yes"/>
    </contour>
  </outline>
</glyph>
<glyph name="afii10028" format="2">
  <advance width="595"/>
  <unicode hex="041A"/>
  <anchor x="240" y="0" name="bottom"/>
  <anchor x="411" y="714" name="top"/>
  <outline>
    <contour>
      <point x="26" y="0" type="line"/>
      <point x="175" y="0" type="line"/>
      <point x="249" y="351" type="line"/>
      <point x="382" y="0" type="line"/>
      <point x="547" y="0" type="line"/>
      <point x="403" y="361" type="line"/>
      <point x="687" y="714" type="line"/>
      <point x="519" y="714" type="line"/>
      <point x="255" y="380" type="line"/>
      <point x="326" y="714" type="line"/>
      <point x="177" y="714" type="line"/>
    </contour>
  </outline>
</glyph>
<glyph name="afii10076" format="2">
  <advance width="578"/>
  <unicode hex="043A"/>
  <anchor x="231" y="0" name="bottom"/>
  <anchor x="360" y="546" name="top"/>
  <outline>
    <contour>
      <point x="18" y="0" type="line"/>
      <point x="165" y="0" type="line"/>
      <point x="222" y="266" type="line"/>
      <point x="347" y="0" type="line"/>
      <point x="512" y="0" type="line"/>
      <point x="377" y="272" type="line"/>
      <point x="611" y="546" type="line"/>
      <point x="443" y="546" type="line"/>
      <point x="228" y="292" type="line"/>
      <point x="282" y="546" type="line"/>
      <point x="135" y="546" type="line"/>
    </contour>
  </outline>
</glyph>
<glyph name="afii10079" format="2">
  <advance width="616"/>
  <unicode hex="043D"/>
  <anchor x="250" y="0" name="bottom"/>
  <anchor x="366" y="546" name="top"/>
  <outline>
    <contour>
      <point x="18" y="0" type="line"/>
      <point x="166" y="0" type="line"/>
      <point x="214" y="225" type="line"/>
      <point x="383" y="225" type="line"/>
      <point x="336" y="0" type="line"/>
      <point x="483" y="0" type="line"/>
      <point x="599" y="546" type="line"/>
      <point x="452" y="546" type="line"/>
      <point x="408" y="336" type="line"/>
      <point x="238" y="336" type="line"/>
      <point x="283" y="546" type="line"/>
      <point x="135" y="546" type="line"/>
    </contour>
  </outline>
</glyph>
<glyph name="afii10193" format="2">
  <advance width="604"/>
  <unicode hex="045F"/>
  <anchor x="193" y="-240" name="bottom"/>
  <anchor x="360" y="546" name="top"/>
  <outline>
    <contour>
      <point x="193" y="-10" type="curve" smooth="yes"/>
      <point x="269" y="-10"/>
      <point x="324" y="36"/>
      <point x="366" y="101" type="curve"/>
      <point x="370" y="101" type="line"/>
      <point x="360" y="0" type="line"/>
      <point x="471" y="0" type="line"/>
      <point x="587" y="546" type="line"/>
      <point x="440" y="546" type="line"/>
      <point x="392" y="320" type="line" smooth="yes"/>
      <point x="367" y="204"/>
      <point x="320" y="109"/>
      <point x="253" y="109" type="curve" smooth="yes"/>
      <point x="218" y="109"/>
      <point x="200" y="128"/>
      <point x="200" y="169" type="curve" smooth="yes"/>
      <point x="200" y="185"/>
      <point x="203" y="205"/>
      <point x="208" y="227" type="curve" smooth="yes"/>
      <point x="275" y="546" type="line"/>
      <point x="128" y="546" type="line"/>
      <point x="66" y="251" type="line" smooth="yes"/>
      <point x="58" y="212"/>
      <point x="52" y="171"/>
      <point x="52" y="147" type="curve" smooth="yes"/>
      <point x="52" y="51"/>
      <point x="99" y="-10"/>
    </contour>
    <contour>
      <point x="131" y="-240" type="line"/>
      <point x="268" y="-240" type="line"/>
      <point x="315" y="-20" type="line"/>
      <point x="291" y="-20" type="line"/>
      <point x="168" y="-72" type="line"/>
    </contour>
  </outline>
</glyph>
<glyph name="uni0460" format="2">
  <advance width="886"/>
  <unicode hex="0460"/>
  <anchor x="385" y="0" name="bottom"/>
  <anchor x="554" y="714" name="top"/>
  <outline>
    <contour>
      <point x="157" y="0" type="curve"/>
      <point x="305" y="0" type="line"/>
      <point x="431" y="285" type="line"/>
      <point x="439" y="195"/>
      <point x="457" y="86"/>
      <point x="486" y="0" type="curve"/>
      <point x="632" y="0" type="line"/>
      <point x="799" y="201"/>
      <point x="902" y="436"/>
      <point x="962" y="713" type="curve"/>
      <point x="813" y="713" type="line"/>
      <point x="760" y="482"/>
      <point x="687" y="312"/>
      <point x="597" y="174" type="curve"/>
      <point x="591" y="174" type="line"/>
      <point x="558" y="318"/>
      <point x="565" y="523"/>
      <point x="603" y="714" type="curve"/>
      <point x="454" y="714" type="line"/>
      <point x="438" y="636"/>
      <point x="432" y="596"/>
      <point x="428" y="525" type="curve"/>
      <point x="338" y="344" type="line" smooth="yes"/>
      <point x="316" y="299"/>
      <point x="281" y="227"/>
      <point x="264" y="184" type="curve"/>
      <point x="260" y="184" type="line"/>
      <point x="239" y="300"/>
      <point x="233" y="493"/>
      <point x="263" y="713" type="curve"/>
      <point x="110" y="713" type="line"/>
      <point x="63" y="462"/>
      <point x="90" y="177"/>
    </contour>
  </outline>
</glyph>
<glyph name="uni0461" format="2">
  <advance width="808"/>
  <unicode hex="0461"/>
  <anchor x="346" y="0" name="bottom"/>
  <anchor x="469" y="546" name="top"/>
  <outline>
    <contour>
      <point x="134" y="0" type="curve"/>
      <point x="261" y="0" type="line"/>
      <point x="383" y="211" type="line"/>
      <point x="393" y="145"/>
      <point x="412" y="63"/>
      <point x="436" y="0" type="curve"/>
      <point x="564" y="0" type="line"/>
      <point x="713" y="199"/>
      <point x="796" y="354"/>
      <point x="845" y="546" type="curve"/>
      <point x="700" y="546" type="line"/>
      <point x="652" y="379"/>
      <point x="592" y="245"/>
      <point x="529" y="151" type="curve"/>
      <point x="525" y="151" type="line"/>
      <point x="506" y="270"/>
      <point x="502" y="392"/>
      <point x="529" y="546" type="curve"/>
      <point x="383" y="546" type="line"/>
      <point x="371" y="480"/>
      <point x="366" y="430"/>
      <point x="366" y="382" type="curve"/>
      <point x="294" y="263" type="line" smooth="yes"/>
      <point x="271" y="225"/>
      <point x="246" y="187"/>
      <point x="231" y="153" type="curve"/>
      <point x="228" y="153" type="line"/>
      <point x="214" y="247"/>
      <point x="195" y="369"/>
      <point x="227" y="546" type="curve"/>
      <point x="85" y="546" type="line"/>
      <point x="43" y="355"/>
      <point x="84" y="136"/>
    </contour>
  </outline>
</glyph>
<glyph name="uni0463" format="2">
  <advance width="603"/>
  <unicode hex="0463"/>
  <anchor x="244" y="0" name="bottom"/>
  <anchor x="381" y="644" name="top"/>
  <outline>
    <contour>
      <point x="286" y="-10" type="curve" smooth="yes"/>
      <point x="480" y="-10"/>
      <point x="547" y="91"/>
      <point x="547" y="187" type="curve" smooth="yes"/>
      <point x="547" y="271"/>
      <point x="488" y="335"/>
      <point x="374" y="335" type="curve" smooth="yes"/>
      <point x="330" y="335"/>
      <point x="296" y="331"/>
      <point x="268" y="324" type="curve"/>
      <point x="292" y="434" type="line"/>
      <point x="433" y="434" type="line"/>
      <point x="456" y="546" type="line"/>
      <point x="316" y="546" type="line"/>
      <point x="338" y="644" type="line"/>
      <point x="191" y="644" type="line"/>
      <point x="170" y="546" type="line"/>
      <point x="53" y="546" type="line"/>
      <point x="30" y="434" type="line"/>
      <point x="145" y="434" type="line"/>
      <point x="103" y="240" type="line" smooth="yes"/>
      <point x="95" y="204"/>
      <point x="91" y="174"/>
      <point x="91" y="150" type="curve" smooth="yes"/>
      <point x="91" y="59"/>
      <point x="143" y="-10"/>
    </contour>
    <contour>
      <point x="307" y="93" type="curve" smooth="yes"/>
      <point x="256" y="93"/>
      <point x="237" y="122"/>
      <point x="237" y="155" type="curve" smooth="yes"/>
      <point x="237" y="174"/>
      <point x="240" y="188"/>
      <point x="248" y="223" type="curve"/>
      <point x="277" y="229"/>
      <point x="305" y="232"/>
      <point x="326" y="232" type="curve" smooth="yes"/>
      <point x="380" y="232"/>
      <point x="399" y="208"/>
      <point x="399" y="172" type="curve" smooth="yes"/>
      <point x="399" y="129"/>
      <point x="368" y="93"/>
    </contour>
  </outline>
</glyph>
<glyph name="uni0467" format="2">
  <advance width="580"/>
  <unicode hex="0467"/>
  <anchor x="232" y="0" name="bottom"/>
  <anchor x="348" y="546" name="top"/>
  <outline>
    <contour>
      <point x="-61" y="0" type="line"/>
      <point x="89" y="0" type="line"/>
      <point x="203" y="206" type="line"/>
      <point x="223" y="206" type="line"/>
      <point x="176" y="0" type="line"/>
      <point x="308" y="0" type="line"/>
      <point x="347" y="206" type="line"/>
      <point x="365" y="206" type="line"/>
      <point x="393" y="0" type="line"/>
      <point x="529" y="0" type="line"/>
      <point x="437" y="546" type="line"/>
      <point x="260" y="546" type="line"/>
    </contour>
    <contour>
      <point x="262" y="307" type="line"/>
      <point x="295" y="370"/>
      <point x="316" y="411"/>
      <point x="334" y="448" type="curve"/>
      <point x="338" y="408"/>
      <point x="344" y="365"/>
      <point x="353" y="307" type="curve"/>
    </contour>
  </outline>
</glyph>
<glyph name="uni0475" format="2">
  <advance width="546"/>
  <unicode hex="0475"/>
  <anchor x="215" y="0" name="bottom"/>
  <anchor x="310" y="546" name="top"/>
  <outline>
    <contour>
      <point x="117" y="0" type="line"/>
      <point x="275" y="0" type="line"/>
      <point x="482" y="383" type="line" smooth="yes"/>
      <point x="494" y="406"/>
      <point x="513" y="430"/>
      <point x="542" y="430" type="curve" smooth="yes"/>
      <point x="557" y="430"/>
      <point x="568" y="427"/>
      <point x="581" y="421" type="curve"/>
      <point x="581" y="537" type="line"/>
      <point x="562" y="546"/>
      <point x="542" y="550"/>
      <point x="517" y="550" type="curve" smooth="yes"/>
      <point x="424" y="550"/>
      <point x="384" y="496"/>
      <point x="334" y="393" type="curve" smooth="yes"/>
      <point x="267" y="256" type="line" smooth="yes"/>
      <point x="254" y="229"/>
      <point x="234" y="184"/>
      <point x="222" y="151" type="curve"/>
      <point x="218" y="151" type="line"/>
      <point x="218" y="188"/>
      <point x="218" y="233"/>
      <point x="216" y="260" type="curve" smooth="yes"/>
      <point x="194" y="546" type="line"/>
      <point x="50" y="546" type="line"/>
    </contour>
  </outline>
</glyph>
<glyph name="uni048F" format="2">
  <advance width="595"/>
  <unicode hex="048F"/>
  <anchor x="189" y="-240" name="bottom"/>
  <anchor x="356" y="546" name="top"/>
  <anchor x="633" y="546" name="topright"/>
  <outline>
    <contour>
      <point x="397" y="-79" type="line"/>
      <point x="476" y="-28" type="line"/>
      <point x="320" y="228" type="line"/>
      <point x="240" y="177" type="line"/>
    </contour>
    <component base="p"/>
  </outline>
</glyph>
<glyph name="afii10050" format="2">
  <advance width="503"/>
  <unicode hex="0490"/>
  <anchor x="194" y="0" name="bottom"/>
  <anchor x="378" y="865" name="top"/>
  <outline>
    <contour>
      <point x="26" y="0" type="line"/>
      <point x="173" y="0" type="line"/>
      <point x="298" y="590" type="line"/>
      <point x="548" y="590" type="line"/>
      <point x="605" y="865" type="line"/>
      <point x="472" y="865" type="line"/>
      <point x="440" y="714" type="line"/>
      <point x="177" y="714" type="line"/>
    </contour>
  </outline>
</glyph>
<glyph name="uni0493" format="2">
  <advance width="463"/>
  <unicode hex="0493"/>
  <anchor x="174" y="0" name="bottom"/>
  <anchor x="290" y="546" name="top"/>
  <outline>
    <contour>
      <point x="18" y="0" type="line"/>
      <point x="165" y="0" type="line"/>
      <point x="208" y="204" type="line"/>
      <point x="336" y="204" type="line"/>
      <point x="360" y="319" type="line"/>
      <point x="232" y="319" type="line"/>
      <point x="255" y="425" type="line"/>
      <point x="469" y="425" type="line"/>
      <point x="495" y="546" type="line"/>
      <point x="134" y="546" type="line"/>
      <point x="86" y="319" type="line"/>
      <point x="18" y="319" type="line"/>
      <point x="-6" y="204" type="line"/>
      <point x="62" y="204" type="line"/>
    </contour>
  </outline>
</glyph>
<glyph name="uni049F" format="2">
  <advance width="578"/>
  <unicode hex="049F"/>
  <anchor x="231" y="0" name="bottom"/>
  <anchor x="405" y="760" name="top"/>
  <outline>
    <contour>
      <point x="18" y="0" type="line"/>
      <point x="165" y="0" type="line"/>
      <point x="222" y="266" type="line"/>
      <point x="347" y="0" type="line"/>
      <point x="512" y="0" type="line"/>
      <point x="377" y="272" type="line"/>
      <point x="611" y="546" type="line"/>
      <point x="443" y="546" type="line"/>
      <point x="228" y="292" type="line"/>
      <point x="290" y="584" type="line"/>
      <point x="437" y="584" type="line"/>
      <point x="458" y="681" type="line"/>
      <point x="311" y="681" type="line"/>
      <point x="328" y="760" type="line"/>
      <point x="181" y="760" type="line"/>
      <point x="164" y="681" type="line"/>
      <point x="85" y="681" type="line"/>
      <point x="64" y="584" type="line"/>
      <point x="143" y="584" type="line"/>
    </contour>
  </outline>
</glyph>
<glyph name="uni04A4" format="2">
  <advance width="770"/>
  <unicode hex="04A4"/>
  <anchor x="327" y="0" name="bottom"/>
  <anchor x="479" y="714" name="top"/>
  <outline>
    <contour>
      <point x="26" y="0" type="line"/>
      <point x="175" y="0" type="line"/>
      <point x="240" y="308" type="line"/>
      <point x="470" y="308" type="line"/>
      <point x="405" y="0" type="line"/>
      <point x="554" y="0" type="line"/>
      <point x="678" y="588" type="line"/>
      <point x="830" y="588" type="line"/>
      <point x="856" y="714" type="line"/>
      <point x="556" y="714" type="line"/>
      <point x="497" y="434" type="line"/>
      <point x="267" y="434" type="line"/>
      <point x="326" y="714" type="line"/>
      <point x="177" y="714" type="line"/>
    </contour>
  </outline>
</glyph>
<glyph name="uni04AC" format="2">
  <advance width="531"/>
  <unicode hex="04AC"/>
  <anchor x="164" y="-208" name="bottom"/>
  <anchor x="360" y="714" name="top"/>
  <outline>
    <contour>
      <point x="225" y="-208" type="line"/>
      <point x="373" y="-208" type="line"/>
      <point x="443" y="120" type="line"/>
      <point x="304" y="120" type="line"/>
      <point x="403" y="588" type="line"/>
      <point x="575" y="588" type="line"/>
      <point x="602" y="714" type="line"/>
      <point x="109" y="714" type="line"/>
      <point x="82" y="588" type="line"/>
      <point x="254" y="588" type="line"/>
      <point x="130" y="0" type="line"/>
      <point x="270" y="0" type="line"/>
    </contour>
  </outline>
</glyph>
<glyph name="uni04BF" format="2">
  <advance width="661"/>
  <unicode hex="04BF"/>
  <anchor x="231" y="-196" name="bottom"/>
  <anchor x="389" y="546" name="top"/>
  <outline>
    <contour>
      <point x="281" y="1" type="curve"/>
      <point x="236" y="-196" type="line"/>
      <point x="372" y="-196" type="line"/>
      <point x="411" y="-8" type="line"/>
      <point x="465" y="-3"/>
      <point x="509" y="10"/>
      <point x="554" y="32" type="curve"/>
      <point x="554" y="143" type="line"/>
      <point x="490" y="113"/>
      <point x="450" y="101"/>
      <point x="393" y="101" type="curve" smooth="yes"/>
      <point x="331" y="101"/>
      <point x="296" y="138"/>
      <point x="296" y="197" type="curve" smooth="yes"/>
      <point x="296" y="204"/>
      <point x="296" y="209"/>
      <point x="297" y="217" type="curve"/>
      <point x="322" y="217" type="line" smooth="yes"/>
      <point x="534" y="217"/>
      <point x="636" y="292"/>
      <point x="636" y="407" type="curve" smooth="yes"/>
      <point x="636" y="494"/>
      <point x="575" y="556"/>
      <point x="453" y="556" type="curve" smooth="yes"/>
      <point x="297" y="556"/>
      <point x="198" y="451"/>
      <point x="163" y="317" type="curve"/>
      <point x="138" y="317"/>
      <point x="121" y="328"/>
      <point x="121" y="360" type="curve" smooth="yes"/>
      <point x="121" y="388"/>
      <point x="132" y="410"/>
      <point x="142" y="426" type="curve"/>
      <point x="38" y="426" type="line"/>
      <point x="19" y="399"/>
      <point x="10" y="369"/>
      <point x="10" y="337" type="curve" smooth="yes"/>
      <point x="10" y="275"/>
      <point x="58" y="232"/>
      <point x="148" y="221" type="curve"/>
      <point x="148" y="214"/>
      <point x="148" y="208"/>
      <point x="148" y="201" type="curve" smooth="yes"/>
      <point x="148" y="92"/>
      <point x="199" y="26"/>
    </contour>
    <contour>
      <point x="335" y="316" type="curve" smooth="yes"/>
      <point x="313" y="316" type="line"/>
      <point x="330" y="395"/>
      <point x="389" y="450"/>
      <point x="444" y="450" type="curve" smooth="yes"/>
      <point x="476" y="450"/>
      <point x="495" y="435"/>
      <point x="495" y="404" type="curve" smooth="yes"/>
      <point x="495" y="357"/>
      <point x="448" y="316"/>
    </contour>
  </outline>
</glyph>
<glyph name="uni04F6" format="2">
  <advance width="503"/>
  <unicode hex="04F6"/>
  <anchor x="150" y="-208" name="bottom"/>
  <anchor x="346" y="714" name="top"/>
  <outline>
    <contour>
      <point x="119" y="-208" type="line"/>
      <point x="267" y="-208" type="line"/>
      <point x="337" y="120" type="line"/>
      <point x="198" y="120" type="line"/>
      <point x="298" y="590" type="line"/>
      <point x="548" y="590" type="line"/>
      <point x="574" y="714" type="line"/>
      <point x="177" y="714" type="line"/>
      <point x="26" y="0" type="line"/>
      <point x="164" y="0" type="line"/>
    </contour>
  </outline>
</glyph>
<glyph name="uni04F7" format="2">
  <advance width="463"/>
  <unicode hex="04F7"/>
  <anchor x="132" y="-196" name="bottom"/>
  <anchor x="290" y="546" name="top"/>
  <outline>
    <contour>
      <point x="98" y="-196" type="line"/>
      <point x="234" y="-196" type="line"/>
      <point x="301" y="122" type="line"/>
      <point x="191" y="122" type="line"/>
      <point x="255" y="425" type="line"/>
      <point x="469" y="425" type="line"/>
      <point x="494" y="546" type="line"/>
      <point x="134" y="546" type="line"/>
      <point x="18" y="0" type="line"/>
      <point x="145" y="0" type="line"/>
    </contour>
  </outline>
</glyph>
<glyph name="uni0512" format="2">
  <advance width="776"/>
  <unicode hex="0512"/>
  <anchor x="279" y="-242" name="bottom"/>
  <anchor x="482" y="714" name="top"/>
  <outline>
    <contour>
      <point x="491" y="-242" type="curve" smooth="yes"/>
      <point x="595" y="-242"/>
      <point x="656" y="-189"/>
      <point x="682" y="-61" type="curve" smooth="yes"/>
      <point x="725" y="148" type="line"/>
      <point x="579" y="148" type="line"/>
      <point x="700" y="714" type="line"/>
      <point x="280" y="714" type="line"/>
      <point x="216" y="469"/>
      <point x="172" y="320"/>
      <point x="134" y="232" type="curve" smooth="yes"/>
      <point x="95" y="143"/>
      <point x="62" y="116"/>
      <point x="19" y="116" type="curve" smooth="yes"/>
      <point x="0" y="116"/>
      <point x="-14" y="120"/>
      <point x="-30" y="126" type="curve"/>
      <point x="-30" y="2" type="line"/>
      <point x="-11" y="-5"/>
      <point x="13" y="-10"/>
      <point x="40" y="-10" type="curve" smooth="yes"/>
      <point x="144" y="-10"/>
      <point x="208" y="33"/>
      <point x="271" y="183" type="curve" smooth="yes"/>
      <point x="309" y="274"/>
      <point x="346" y="404"/>
      <point x="392" y="588" type="curve"/>
      <point x="525" y="588" type="line"/>
      <point x="400" y="0" type="line"/>
      <point x="548" y="0" type="line"/>
      <point x="540" y="-39" type="line" smooth="yes"/>
      <point x="526" y="-105"/>
      <point x="497" y="-122"/>
      <point x="461" y="-122" type="curve" smooth="yes"/>
      <point x="442" y="-122"/>
      <point x="422" y="-118"/>
      <point x="405" y="-112" type="curve"/>
      <point x="405" y="-229" type="line"/>
      <point x="426" y="-237"/>
      <point x="460" y="-242"/>
    </contour>
  </outline>
</glyph>
<glyph name="uni1AB7" format="2">
  <unicode hex="1AB7"/>
  <anchor x="-48" y="0" name="_bottom"/>
  <anchor x="-78" y="-271" name="bottom"/>
  <outline>
    <contour>
      <point x="-29" y="-271" type="curve"/>
      <point x="-14" y="-198" type="line"/>
      <point x="-38" y="-192"/>
      <point x="-51" y="-177"/>
      <point x="-51" y="-150" type="curve" smooth="yes"/>
      <point x="-51" y="-143"/>
      <point x="-50" y="-134"/>
      <point x="-48" y="-125" type="curve" smooth="yes"/>
      <point x="-27" y="-25" type="line"/>
      <point x="-117" y="-25" type="line"/>
      <point x="-141" y="-137" type="line" smooth="yes"/>
      <point x="-144" y="-151"/>
      <point x="-145" y="-163"/>
      <point x="-145" y="-175" type="curve" smooth="yes"/>
      <point x="-145" y="-233"/>
      <point x="-110" y="-271"/>
    </contour>
  </outline>
</glyph>
<glyph name="uni1AB8" format="2">
  <unicode hex="1AB8"/>
  <anchor x="-48" y="0" name="_bottom"/>
  <anchor x="-78" y="-271" name="bottom"/>
  <outline>
    <contour>
      <point x="57" y="-271" type="curve"/>
      <point x="72" y="-198" type="line"/>
      <point x="48" y="-192"/>
      <point x="35" y="-177"/>
      <point x="35" y="-150" type="curve" smooth="yes"/>
      <point x="35" y="-143"/>
      <point x="36" y="-134"/>
      <point x="38" y="-125" type="curve" smooth="yes"/>
      <point x="59" y="-25" type="line"/>
      <point x="-31" y="-25" type="line"/>
      <point x="-55" y="-137" type="line" smooth="yes"/>
      <point x="-58" y="-151"/>
      <point x="-59" y="-163"/>
      <point x="-59" y="-175" type="curve" smooth="yes"/>
      <point x="-59" y="-233"/>
      <point x="-24" y="-271"/>
    </contour>
    <contour>
      <point x="-115" y="-271" type="curve"/>
      <point x="-100" y="-198" type="line"/>
      <point x="-124" y="-192"/>
      <point x="-137" y="-177"/>
      <point x="-137" y="-150" type="curve" smooth="yes"/>
      <point x="-137" y="-143"/>
      <point x="-136" y="-134"/>
      <point x="-134" y="-125" type="curve" smooth="yes"/>
      <point x="-113" y="-25" type="line"/>
      <point x="-203" y="-25" type="line"/>
      <point x="-227" y="-137" type="line" smooth="yes"/>
      <point x="-230" y="-151"/>
      <point x="-231" y="-163"/>
      <point x="-231" y="-175" type="curve" smooth="yes"/>
      <point x="-231" y="-233"/>
      <point x="-196" y="-271"/>
    </contour>
  </outline>
</glyph>
<glyph name="uni1ABA" format="2">
  <unicode hex="1ABA"/>
  <anchor x="-52" y="0" name="_bottom"/>
  <anchor x="-71" y="-241" name="bottom"/>
  <outline>
    <contour>
      <point x="-185" y="-196" type="line"/>
      <point x="-119" y="-222" type="line"/>
      <point x="48" y="40" type="line"/>
      <point x="-36" y="40" type="line"/>
    </contour>
    <contour>
      <point x="-135" y="-241" type="curve" smooth="yes"/>
      <point x="-90" y="-241"/>
      <point x="-60" y="-210"/>
      <point x="-60" y="-167" type="curve" smooth="yes"/>
      <point x="-60" y="-133"/>
      <point x="-83" y="-112"/>
      <point x="-117" y="-112" type="curve" smooth="yes"/>
      <point x="-173" y="-112"/>
      <point x="-194" y="-150"/>
      <point x="-194" y="-188" type="curve" smooth="yes"/>
      <point x="-194" y="-215"/>
      <point x="-179" y="-241"/>
    </contour>
  </outline>
</glyph>
<glyph name="uni1D00" format="2">
  <advance width="484"/>
  <unicode hex="1D00"/>
  <anchor x="184" y="0" name="bottom"/>
  <anchor x="300" y="546" name="top"/>
  <outline>
    <contour>
      <point x="-50" y="0" type="line"/>
      <point x="67" y="0" type="line"/>
      <point x="130" y="128" type="line"/>
      <point x="303" y="128" type="line"/>
      <point x="312" y="0" type="line"/>
      <point x="421" y="0" type="line"/>
      <point x="368" y="546" type="line"/>
      <point x="231" y="546" type="line"/>
    </contour>
    <contour>
      <point x="176" y="223" type="line"/>
      <point x="246" y="372" type="line" smooth="yes"/>
      <point x="257" y="396"/>
      <point x="273" y="430"/>
      <point x="282" y="456" type="curve"/>
      <point x="285" y="456" type="line"/>
      <point x="285" y="432"/>
      <point x="286" y="401"/>
      <point x="289" y="360" type="curve" smooth="yes"/>
      <point x="298" y="223" type="line"/>
    </contour>
  </outline>
</glyph>
<glyph name="uni1D03" format="2">
  <advance width="520"/>
  <unicode hex="1D03"/>
  <anchor x="202" y="0" name="bottom"/>
  <anchor x="318" y="546" name="top"/>
  <outline>
    <contour>
      <point x="8" y="240" type="line"/>
      <point x="504" y="240" type="line"/>
      <point x="523" y="330" type="line"/>
      <point x="27" y="330" type="line"/>
    </contour>
    <component base="uni0299"/>
  </outline>
</glyph>
<glyph name="uni1D04" format="2">
  <advance width="484"/>
  <unicode hex="1D04"/>
  <anchor x="184" y="0" name="bottom"/>
  <anchor x="300" y="546" name="top"/>
  <outline>
    <contour>
      <point x="236" y="-8" type="curve" smooth="yes"/>
      <point x="302" y="-8"/>
      <point x="353" y="9"/>
      <point x="383" y="21" type="curve"/>
      <point x="383" y="116" type="line"/>
      <point x="341" y="100"/>
      <point x="299" y="88"/>
      <point x="259" y="88" type="curve" smooth="yes"/>
      <point x="186" y="88"/>
      <point x="154" y="129"/>
      <point x="154" y="213" type="curve" smooth="yes"/>
      <point x="154" y="321"/>
      <point x="206" y="462"/>
      <point x="329" y="462" type="curve" smooth="yes"/>
      <point x="374" y="462"/>
      <point x="409" y="446"/>
      <point x="443" y="427" type="curve"/>
      <point x="487" y="518" type="line"/>
      <point x="440" y="544"/>
      <point x="397" y="556"/>
      <point x="329" y="556" type="curve" smooth="yes"/>
      <point x="128" y="556"/>
      <point x="40" y="368"/>
      <point x="40" y="208" type="curve" smooth="yes"/>
      <point x="40" y="76"/>
      <point x="107" y="-8"/>
    </contour>
  </outline>
</glyph>
<glyph name="uni1D05" format="2">
  <advance width="557"/>
  <unicode hex="1D05"/>
  <anchor x="221" y="0" name="bottom"/>
  <anchor x="337" y="546" name="top"/>
  <outline>
    <contour>
      <point x="28" y="0" type="line"/>
      <point x="193" y="0" type="line" smooth="yes"/>
      <point x="415" y="0"/>
      <point x="513" y="132"/>
      <point x="513" y="329" type="curve" smooth="yes"/>
      <point x="513" y="474"/>
      <point x="431" y="546"/>
      <point x="286" y="546" type="curve" smooth="yes"/>
      <point x="142" y="546" type="line"/>
    </contour>
    <contour>
      <point x="160" y="94" type="line"/>
      <point x="234" y="453" type="line"/>
      <point x="276" y="453" type="line" smooth="yes"/>
      <point x="353" y="453"/>
      <point x="399" y="415"/>
      <point x="399" y="324" type="curve" smooth="yes"/>
      <point x="399" y="207"/>
      <point x="352" y="94"/>
      <point x="199" y="94" type="curve" smooth="yes"/>
    </contour>
  </outline>
</glyph>
<glyph name="uni1D07" format="2">
  <advance width="432"/>
  <unicode hex="1D07"/>
  <anchor x="158" y="0" name="bottom"/>
  <anchor x="274" y="546" name="top"/>
  <outline>
    <contour>
      <point x="28" y="0" type="line"/>
      <point x="328" y="0" type="line"/>
      <point x="347" y="94" type="line"/>
      <point x="160" y="94" type="line"/>
      <point x="189" y="238" type="line"/>
      <point x="364" y="238" type="line"/>
      <point x="384" y="331" type="line"/>
      <point x="209" y="331" type="line"/>
      <point x="234" y="453" type="line"/>
      <point x="421" y="453" type="line"/>
      <point x="441" y="546" type="line"/>
      <point x="142" y="546" type="line"/>
    </contour>
  </outline>
</glyph>
<glyph name="uni1D0A" format="2">
  <advance width="365"/>
  <unicode hex="1D0A"/>
  <anchor x="131" y="-158" name="bottom"/>
  <anchor x="281" y="546" name="top"/>
  <outline>
    <contour>
      <point x="70" y="-10" type="curve" smooth="yes"/>
      <point x="176" y="-10"/>
      <point x="236" y="39"/>
      <point x="262" y="162" type="curve" smooth="yes"/>
      <point x="343" y="546" type="line"/>
      <point x="231" y="546" type="line"/>
      <point x="154" y="178" type="line" smooth="yes"/>
      <point x="141" y="114"/>
      <point x="110" y="86"/>
      <point x="62" y="86" type="curve" smooth="yes"/>
      <point x="38" y="86"/>
      <point x="19" y="89"/>
      <point x="2" y="93" type="curve"/>
      <point x="2" y="0" type="line"/>
      <point x="20" y="-5"/>
      <point x="40" y="-10"/>
    </contour>
  </outline>
</glyph>
<glyph name="uni1D0B" format="2">
  <advance width="484"/>
  <unicode hex="1D0B"/>
  <anchor x="184" y="0" name="bottom"/>
  <anchor x="300" y="546" name="top"/>
  <outline>
    <contour>
      <point x="28" y="0" type="line"/>
      <point x="140" y="0" type="line"/>
      <point x="182" y="202" type="line"/>
      <point x="228" y="227" type="line"/>
      <point x="303" y="0" type="line"/>
      <point x="427" y="0" type="line"/>
      <point x="322" y="289" type="line"/>
      <point x="540" y="546" type="line"/>
      <point x="408" y="546" type="line"/>
      <point x="257" y="363" type="line" smooth="yes"/>
      <point x="236" y="338"/>
      <point x="217" y="313"/>
      <point x="199" y="287" type="curve"/>
      <point x="255" y="546" type="line"/>
      <point x="144" y="546" type="line"/>
    </contour>
  </outline>
</glyph>
<glyph name="uni1D0F" format="2">
  <advance width="575"/>
  <unicode hex="1D0F"/>
  <anchor x="230" y="0" name="bottom"/>
  <anchor x="346" y="546" name="top"/>
  <outline>
    <contour>
      <point x="241" y="-8" type="curve" smooth="yes"/>
      <point x="436" y="-8"/>
      <point x="521" y="172"/>
      <point x="521" y="350" type="curve" smooth="yes"/>
      <point x="521" y="474"/>
      <point x="455" y="554"/>
      <point x="325" y="554" type="curve" smooth="yes"/>
      <point x="130" y="554"/>
      <point x="42" y="371"/>
      <point x="42" y="201" type="curve" smooth="yes"/>
      <point x="42" y="75"/>
      <point x="111" y="-8"/>
    </contour>
    <contour>
      <point x="249" y="88" type="curve" smooth="yes"/>
      <point x="190" y="88"/>
      <point x="156" y="126"/>
      <point x="156" y="200" type="curve" smooth="yes"/>
      <point x="156" y="341"/>
      <point x="223" y="460"/>
      <point x="316" y="460" type="curve" smooth="yes"/>
      <point x="376" y="460"/>
      <point x="407" y="416"/>
      <point x="407" y="348" type="curve" smooth="yes"/>
      <point x="407" y="190"/>
      <point x="336" y="88"/>
    </contour>
  </outline>
</glyph>
<glyph name="uni1D18" format="2">
  <advance width="474"/>
  <unicode hex="1D18"/>
  <anchor x="179" y="0" name="bottom"/>
  <anchor x="295" y="546" name="top"/>
  <outline>
    <contour>
      <point x="28" y="0" type="line"/>
      <point x="140" y="0" type="line"/>
      <point x="180" y="196" type="line"/>
      <point x="221" y="196" type="line" smooth="yes"/>
      <point x="354" y="196"/>
      <point x="455" y="258"/>
      <point x="455" y="388" type="curve" smooth="yes"/>
      <point x="455" y="482"/>
      <point x="406" y="546"/>
      <point x="275" y="546" type="curve" smooth="yes"/>
      <point x="142" y="546" type="line"/>
    </contour>
    <contour>
      <point x="200" y="289" type="line"/>
      <point x="234" y="453" type="line"/>
      <point x="271" y="453" type="line" smooth="yes"/>
      <point x="318" y="453"/>
      <point x="342" y="431"/>
      <point x="342" y="385" type="curve" smooth="yes"/>
      <point x="342" y="324"/>
      <point x="297" y="289"/>
      <point x="230" y="289" type="curve" smooth="yes"/>
    </contour>
  </outline>
</glyph>
<glyph name="uni1D1B" format="2">
  <advance width="437"/>
  <unicode hex="1D1B"/>
  <anchor x="161" y="0" name="bottom"/>
  <anchor x="277" y="546" name="top"/>
  <outline>
    <contour>
      <point x="106" y="0" type="line"/>
      <point x="218" y="0" type="line"/>
      <point x="313" y="452" type="line"/>
      <point x="462" y="452" type="line"/>
      <point x="482" y="546" type="line"/>
      <point x="73" y="546" type="line"/>
      <point x="52" y="452" type="line"/>
      <point x="201" y="452" type="line"/>
    </contour>
  </outline>
</glyph>
<glyph name="uni1D1C" format="2">
  <advance width="627"/>
  <unicode hex="1D1C"/>
  <anchor x="256" y="0" name="bottom"/>
  <anchor x="372" y="546" name="top"/>
  <outline>
    <contour>
      <point x="271" y="-10" type="curve" smooth="yes"/>
      <point x="454" y="-10"/>
      <point x="519" y="95"/>
      <point x="552" y="249" type="curve" smooth="yes"/>
      <point x="614" y="546" type="line"/>
      <point x="467" y="546" type="line"/>
      <point x="404" y="244" type="line" smooth="yes"/>
      <point x="384" y="149"/>
      <point x="349" y="110"/>
      <point x="287" y="110" type="curve" smooth="yes"/>
      <point x="235" y="110"/>
      <point x="206" y="136"/>
      <point x="206" y="193" type="curve" smooth="yes"/>
      <point x="206" y="208"/>
      <point x="208" y="225"/>
      <point x="212" y="245" type="curve" smooth="yes"/>
      <point x="275" y="546" type="line"/>
      <point x="128" y="546" type="line"/>
      <point x="66" y="250" type="line" smooth="yes"/>
      <point x="61" y="225"/>
      <point x="58" y="201"/>
      <point x="58" y="177" type="curve" smooth="yes"/>
      <point x="58" y="74"/>
      <point x="118" y="-10"/>
    </contour>
  </outline>
</glyph>
<glyph name="uni1D20" format="2">
  <advance width="450"/>
  <unicode hex="1D20"/>
  <anchor x="167" y="0" name="bottom"/>
  <anchor x="283" y="546" name="top"/>
  <outline>
    <contour>
      <point x="104" y="0" type="line"/>
      <point x="226" y="0" type="line"/>
      <point x="515" y="546" type="line"/>
      <point x="399" y="546" type="line"/>
      <point x="229" y="213" type="line" smooth="yes"/>
      <point x="218" y="191"/>
      <point x="201" y="149"/>
      <point x="189" y="113" type="curve"/>
      <point x="186" y="113" type="line"/>
      <point x="187" y="146"/>
      <point x="187" y="176"/>
      <point x="184" y="213" type="curve" smooth="yes"/>
      <point x="160" y="546" type="line"/>
      <point x="52" y="546" type="line"/>
    </contour>
  </outline>
</glyph>
<glyph name="uni1D21" format="2">
  <advance width="682"/>
  <unicode hex="1D21"/>
  <anchor x="283" y="0" name="bottom"/>
  <anchor x="399" y="546" name="top"/>
  <outline>
    <contour>
      <point x="79" y="0" type="line"/>
      <point x="203" y="0" type="line"/>
      <point x="321" y="274" type="line" smooth="yes"/>
      <point x="336" y="307"/>
      <point x="350" y="343"/>
      <point x="362" y="383" type="curve"/>
      <point x="365" y="383" type="line"/>
      <point x="363" y="352"/>
      <point x="363" y="306"/>
      <point x="364" y="274" type="curve" smooth="yes"/>
      <point x="372" y="0" type="line"/>
      <point x="499" y="0" type="line"/>
      <point x="736" y="546" type="line"/>
      <point x="623" y="546" type="line"/>
      <point x="502" y="244" type="line" smooth="yes"/>
      <point x="494" y="225"/>
      <point x="468" y="158"/>
      <point x="455" y="116" type="curve"/>
      <point x="452" y="116" type="line"/>
      <point x="455" y="157"/>
      <point x="455" y="219"/>
      <point x="455" y="236" type="curve" smooth="yes"/>
      <point x="447" y="546" type="line"/>
      <point x="348" y="546" type="line"/>
      <point x="213" y="236" type="line" smooth="yes"/>
      <point x="205" y="218"/>
      <point x="181" y="155"/>
      <point x="167" y="116" type="curve"/>
      <point x="164" y="116" type="line"/>
      <point x="168" y="155"/>
      <point x="170" y="223"/>
      <point x="170" y="243" type="curve" smooth="yes"/>
      <point x="167" y="546" type="line"/>
      <point x="62" y="546" type="line"/>
    </contour>
  </outline>
</glyph>
<glyph name="uni1D22" format="2">
  <advance width="426"/>
  <unicode hex="1D22"/>
  <anchor x="155" y="0" name="bottom"/>
  <anchor x="271" y="546" name="top"/>
  <outline>
    <contour>
      <point x="-29" y="0" type="line"/>
      <point x="351" y="0" type="line"/>
      <point x="370" y="99" type="line"/>
      <point x="132" y="99" type="line"/>
      <point x="441" y="466" type="line"/>
      <point x="456" y="546" type="line" smooth="yes"/>
      <point x="94" y="546" type="line"/>
      <point x="74" y="446" type="line"/>
      <point x="293" y="446" type="line"/>
      <point x="-14" y="79" type="line"/>
    </contour>
  </outline>
</glyph>
<glyph name="uni1D24" format="2">
  <advance width="552"/>
  <unicode hex="1D24"/>
  <anchor x="235" y="0" name="bottom"/>
  <anchor x="382" y="760" name="top"/>
  <outline>
    <contour>
      <point x="239" y="-9" type="curve" smooth="yes"/>
      <point x="317" y="-9"/>
      <point x="379" y="10"/>
      <point x="460" y="55" type="curve"/>
      <point x="415" y="157" type="line"/>
      <point x="355" y="124"/>
      <point x="311" y="109"/>
      <point x="270" y="109" type="curve" smooth="yes"/>
      <point x="218" y="109"/>
      <point x="186" y="136"/>
      <point x="186" y="178" type="curve" smooth="yes"/>
      <point x="186" y="238"/>
      <point x="248" y="284"/>
      <point x="374" y="320" type="curve"/>
      <point x="385" y="368" type="line"/>
      <point x="512" y="420"/>
      <point x="585" y="487"/>
      <point x="585" y="597" type="curve" smooth="yes"/>
      <point x="585" y="704"/>
      <point x="504" y="765"/>
      <point x="383" y="765" type="curve" smooth="yes"/>
      <point x="305" y="765"/>
      <point x="242" y="747"/>
      <point x="162" y="701" type="curve"/>
      <point x="207" y="598" type="line"/>
      <point x="266" y="631"/>
      <point x="310" y="647"/>
      <point x="353" y="647" type="curve" smooth="yes"/>
      <point x="405" y="647"/>
      <point x="437" y="623"/>
      <point x="437" y="582" type="curve" smooth="yes"/>
      <point x="437" y="521"/>
      <point x="376" y="473"/>
      <point x="248" y="436" type="curve"/>
      <point x="237" y="388" type="line"/>
      <point x="114" y="338"/>
      <point x="37" y="270"/>
      <point x="37" y="161" type="curve" smooth="yes"/>
      <point x="37" y="53"/>
      <point x="117" y="-9"/>
    </contour>
  </outline>
</glyph>
<glyph name="uni1D3B" format="2">
  <advance width="491"/>
  <unicode hex="1D3B"/>
  <anchor x="255" y="287" name="bottom"/>
  <anchor x="363" y="715" name="top"/>
  <anchor x="592" y="715" name="topright"/>
  <outline>
    <contour>
      <point x="70" y="287" type="line"/>
      <point x="184" y="287" type="line"/>
      <point x="436" y="603" type="line"/>
      <point x="439" y="602" type="line"/>
      <point x="432" y="577"/>
      <point x="417" y="526"/>
      <point x="409" y="491" type="curve" smooth="yes"/>
      <point x="363" y="287" type="line"/>
      <point x="449" y="287" type="line"/>
      <point x="547" y="715" type="line"/>
      <point x="438" y="715" type="line"/>
      <point x="177" y="393" type="line"/>
      <point x="175" y="394" type="line"/>
      <point x="178" y="402"/>
      <point x="200" y="473"/>
      <point x="209" y="513" type="curve" smooth="yes"/>
      <point x="256" y="715" type="line"/>
      <point x="168" y="715" type="line"/>
    </contour>
  </outline>
</glyph>
<glyph name="uni1D7A" format="2">
  <advance width="975"/>
  <unicode hex="1D7A"/>
  <anchor x="190" y="0" name="bottom_1"/>
  <anchor x="624" y="0" name="bottom_2"/>
  <anchor x="203" y="273" name="center_1"/>
  <anchor x="731" y="273" name="center_2"/>
  <anchor x="288" y="662" name="top_1"/>
  <anchor x="625" y="760" name="top_2"/>
  <anchor x="415" y="860" name="topright_1"/>
  <anchor x="1008" y="760" name="topright_2"/>
  <outline>
    <contour>
      <point x="17" y="-75" type="line"/>
      <point x="131" y="-75" type="line"/>
      <point x="936" y="760" type="line"/>
      <point x="821" y="760" type="line"/>
    </contour>
    <component base="t"/>
    <component base="h" xOffset="371"/>
  </outline>
</glyph>
<glyph name="uni1D7B" format="2">
  <advance width="348"/>
  <unicode hex="1D7B"/>
  <anchor x="116" y="0" name="bottom"/>
  <anchor x="232" y="546" name="top"/>
  <outline>
    <contour>
      <point x="15" y="230" type="line"/>
      <point x="312" y="230" type="line"/>
      <point x="333" y="327" type="line"/>
      <point x="36" y="327" type="line"/>
    </contour>
    <component base="uni026A"/>
  </outline>
</glyph>
<glyph name="uni1D7D" format="2">
  <advance width="595"/>
  <unicode hex="1D7D"/>
  <anchor x="189" y="-240" name="bottom"/>
  <anchor x="356" y="546" name="top"/>
  <anchor x="633" y="546" name="topright"/>
  <outline>
    <contour>
      <point x="-8" y="230" type="line"/>
      <point x="579" y="230" type="line"/>
      <point x="600" y="327" type="line"/>
      <point x="13" y="327" type="line"/>
    </contour>
    <component base="p"/>
  </outline>
</glyph>
<glyph name="uni1D7F" format="2">
  <advance width="638"/>
  <unicode hex="1D7F"/>
  <anchor x="261" y="0" name="bottom"/>
  <anchor x="377" y="546" name="top"/>
  <outline>
    <contour>
      <point x="-17" y="227" type="line"/>
      <point x="631" y="227" type="line"/>
      <point x="652" y="324" type="line"/>
      <point x="4" y="324" type="line"/>
    </contour>
    <component base="uni028A"/>
  </outline>
</glyph>
<glyph name="gravemacron" format="2">
  <unicode hex="1DC5"/>
  <anchor x="49" y="546" name="_top"/>
  <anchor x="78" y="752" name="top"/>
  <outline>
    <contour>
      <point x="66" y="596" type="line"/>
      <point x="228" y="596" type="line"/>
      <point x="228" y="687" type="line"/>
      <point x="86" y="687" type="line"/>
      <point x="-34" y="752" type="line"/>
      <point x="-76" y="673" type="line"/>
    </contour>
  </outline>
</glyph>
<glyph name="graveacutegrave" format="2">
  <unicode hex="1DC8"/>
  <anchor x="55" y="546" name="_top"/>
  <anchor x="82" y="746" name="top"/>
  <outline>
    <contour>
      <point x="7" y="584" type="line"/>
      <point x="146" y="649" type="line"/>
      <point x="260" y="588" type="line"/>
      <point x="302" y="667" type="line"/>
      <point x="153" y="746" type="line"/>
      <point x="14" y="681" type="line"/>
      <point x="-100" y="742" type="line"/>
      <point x="-142" y="663" type="line"/>
    </contour>
  </outline>
</glyph>
<glyph name="ogonekabove" format="2">
  <unicode hex="1DCE"/>
  <anchor x="-136" y="546" name="_top"/>
  <anchor x="-111" y="802" name="top"/>
  <outline>
    <contour>
      <point x="-133" y="510" type="line"/>
      <point x="-61" y="562"/>
      <point x="-4" y="621"/>
      <point x="-4" y="692" type="curve" smooth="yes"/>
      <point x="-4" y="761"/>
      <point x="-50" y="802"/>
      <point x="-118" y="802" type="curve" smooth="yes"/>
      <point x="-153" y="802"/>
      <point x="-179" y="797"/>
      <point x="-203" y="789" type="curve"/>
      <point x="-222" y="703" type="line"/>
      <point x="-206" y="709"/>
      <point x="-183" y="713"/>
      <point x="-158" y="713" type="curve" smooth="yes"/>
      <point x="-128" y="713"/>
      <point x="-112" y="696"/>
      <point x="-112" y="663" type="curve" smooth="yes"/>
      <point x="-112" y="618"/>
      <point x="-141" y="583"/>
      <point x="-195" y="533" type="curve"/>
    </contour>
  </outline>
</glyph>
<glyph name="usabove" format="2">
  <unicode hex="1DD2"/>
  <anchor x="33" y="400" name="_top"/>
  <anchor x="92" y="847" name="top"/>
  <outline>
    <contour>
      <point x="-13" y="491" type="line"/>
      <point x="132" y="491"/>
      <point x="227" y="563"/>
      <point x="227" y="706" type="curve" smooth="yes"/>
      <point x="227" y="785"/>
      <point x="181" y="847"/>
      <point x="94" y="847" type="curve" smooth="yes"/>
      <point x="17" y="847"/>
      <point x="-47" y="792"/>
      <point x="-47" y="714" type="curve" smooth="yes"/>
      <point x="-47" y="648"/>
      <point x="-6" y="611"/>
      <point x="43" y="611" type="curve" smooth="yes"/>
      <point x="64" y="611"/>
      <point x="82" y="615"/>
      <point x="93" y="623" type="curve"/>
      <point x="110" y="694" type="line"/>
      <point x="101" y="688"/>
      <point x="91" y="683"/>
      <point x="70" y="683" type="curve" smooth="yes"/>
      <point x="50" y="683"/>
      <point x="41" y="698"/>
      <point x="41" y="720" type="curve" smooth="yes"/>
      <point x="41" y="750"/>
      <point x="65" y="770"/>
      <point x="91" y="770" type="curve" smooth="yes"/>
      <point x="124" y="770"/>
      <point x="138" y="741"/>
      <point x="138" y="714" type="curve" smooth="yes"/>
      <point x="138" y="615"/>
      <point x="81" y="564"/>
      <point x="2" y="564" type="curve"/>
    </contour>
  </outline>
</glyph>
<glyph name="uni1E10" format="2">
  <advance width="677"/>
  <unicode hex="1E10"/>
  <anchor x="236" y="-240" name="bottom"/>
  <anchor x="429" y="714" name="top"/>
  <anchor x="379" y="357" name="center"/>
  <anchor x="751" y="714" name="topright"/>
  <outline>
    <contour>
      <point x="226" y="-240" type="curve" smooth="yes"/>
      <point x="335" y="-240"/>
      <point x="381" y="-189"/>
      <point x="381" y="-122" type="curve" smooth="yes"/>
      <point x="381" y="-73"/>
      <point x="350" y="-48"/>
      <point x="312" y="-35" type="curve"/>
      <point x="341" y="21" type="line"/>
      <point x="251" y="21" type="line"/>
      <point x="194" y="-75" type="line"/>
      <point x="245" y="-81"/>
      <point x="263" y="-96"/>
      <point x="263" y="-118" type="curve" smooth="yes"/>
      <point x="263" y="-144"/>
      <point x="246" y="-158"/>
      <point x="213" y="-158" type="curve" smooth="yes"/>
      <point x="190" y="-158"/>
      <point x="166" y="-152"/>
      <point x="152" y="-147" type="curve"/>
      <point x="152" y="-229" type="line"/>
      <point x="167" y="-234"/>
      <point x="195" y="-240"/>
    </contour>
    <component base="D"/>
  </outline>
</glyph>
<glyph name="longsdiagonalstroke" format="2">
  <advance width="358"/>
  <unicode hex="1E9C"/>
  <anchor x="70" y="-240" name="bottom"/>
  <anchor x="284" y="765" name="top"/>
  <outline>
    <contour>
      <point x="29" y="220" type="line"/>
      <point x="389" y="406" type="line"/>
      <point x="345" y="494" type="line"/>
      <point x="-15" y="308" type="line"/>
    </contour>
    <component base="longs"/>
  </outline>
</glyph>
<glyph name="longshighstroke" format="2">
  <advance width="358"/>
  <unicode hex="1E9D"/>
  <anchor x="70" y="-240" name="bottom"/>
  <anchor x="284" y="765" name="top"/>
  <outline>
    <contour>
      <point x="39" y="478" type="line"/>
      <point x="386" y="478" type="line"/>
      <point x="408" y="579" type="line"/>
      <point x="61" y="579" type="line"/>
    </contour>
    <component base="longs"/>
  </outline>
</glyph>
<glyph name="LL-middleWelsh" format="2">
  <advance width="791"/>
  <unicode hex="1EFA"/>
  <anchor x="500" y="0" name="bottom"/>
  <anchor x="554" y="714" name="top"/>
  <anchor x="572" y="357" name="center"/>
  <anchor x="769" y="714" name="topright"/>
  <outline>
    <contour>
      <point x="26" y="0" type="line"/>
      <point x="175" y="0" type="line"/>
      <point x="326" y="714" type="line"/>
      <point x="177" y="714" type="line"/>
    </contour>
    <component base="L" xOffset="273"/>
  </outline>
</glyph>
<glyph name="ll-middleWelsh" format="2">
  <advance width="584"/>
  <unicode hex="1EFB"/>
  <anchor x="91" y="0" name="bottom"/>
  <anchor x="254" y="760" name="top"/>
  <anchor x="494" y="273" name="center_1"/>
  <anchor x="207" y="273" name="center_2"/>
  <anchor x="630" y="760" name="topright_1"/>
  <anchor x="343" y="760" name="topright_2"/>
  <outline>
    <contour>
      <point x="64" y="576" type="line"/>
      <point x="648" y="576" type="line"/>
      <point x="670" y="675" type="line"/>
      <point x="86" y="675" type="line"/>
    </contour>
    <component base="l" xOffset="287"/>
    <component base="l"/>
  </outline>
</glyph>
<glyph name="uni1FCD" format="2">
  <advance width="577"/>
  <unicode hex="1FCD"/>
  <anchor x="350" y="546" name="_top"/>
  <anchor x="360" y="776" name="top"/>
  <outline>
    <contour>
      <point x="216" y="595" type="line"/>
      <point x="301" y="595"/>
      <point x="356" y="641"/>
      <point x="356" y="709" type="curve" smooth="yes"/>
      <point x="356" y="748"/>
      <point x="336" y="776"/>
      <point x="296" y="776" type="curve" smooth="yes"/>
      <point x="263" y="776"/>
      <point x="240" y="756"/>
      <point x="240" y="727" type="curve" smooth="yes"/>
      <point x="240" y="697"/>
      <point x="260" y="683"/>
      <point x="289" y="677" type="curve"/>
      <point x="284" y="655"/>
      <point x="264" y="641"/>
      <point x="225" y="637" type="curve"/>
    </contour>
    <contour>
      <point x="430" y="600" type="curve"/>
      <point x="496" y="600" type="line"/>
      <point x="499" y="613" type="line"/>
      <point x="494" y="656"/>
      <point x="489" y="718"/>
      <point x="488" y="766" type="curve"/>
      <point x="373" y="766" type="line"/>
      <point x="371" y="756" type="line"/>
      <point x="380" y="712"/>
      <point x="405" y="650"/>
    </contour>
  </outline>
</glyph>
<glyph name="uni1FCE" format="2">
  <advance width="577"/>
  <unicode hex="1FCE"/>
  <anchor x="336" y="546" name="_top"/>
  <anchor x="382" y="776" name="top"/>
  <outline>
    <contour>
      <point x="362" y="606" type="line"/>
      <point x="429" y="606" type="line"/>
      <point x="467" y="645"/>
      <point x="515" y="709"/>
      <point x="543" y="756" type="curve"/>
      <point x="543" y="766" type="line"/>
      <point x="415" y="766" type="line"/>
      <point x="403" y="723"/>
      <point x="383" y="665"/>
      <point x="362" y="619" type="curve"/>
    </contour>
    <contour>
      <point x="216" y="595" type="line"/>
      <point x="301" y="595"/>
      <point x="356" y="641"/>
      <point x="356" y="709" type="curve" smooth="yes"/>
      <point x="356" y="748"/>
      <point x="336" y="776"/>
      <point x="296" y="776" type="curve" smooth="yes"/>
      <point x="263" y="776"/>
      <point x="240" y="756"/>
      <point x="240" y="727" type="curve" smooth="yes"/>
      <point x="240" y="697"/>
      <point x="260" y="683"/>
      <point x="289" y="677" type="curve"/>
      <point x="284" y="655"/>
      <point x="264" y="641"/>
      <point x="225" y="637" type="curve"/>
    </contour>
  </outline>
</glyph>
<glyph name="uni1FCF" format="2">
  <advance width="593"/>
  <unicode hex="1FCF"/>
  <outline>
    <contour>
      <point x="225" y="745" type="curve"/>
      <point x="290" y="745" type="line"/>
      <point x="297" y="769"/>
      <point x="314" y="788"/>
      <point x="338" y="788" type="curve" smooth="yes"/>
      <point x="374" y="788"/>
      <point x="418" y="745"/>
      <point x="476" y="745" type="curve" smooth="yes"/>
      <point x="531" y="745"/>
      <point x="576" y="779"/>
      <point x="591" y="860" type="curve"/>
      <point x="528" y="860" type="line"/>
      <point x="519" y="835"/>
      <point x="505" y="817"/>
      <point x="480" y="817" type="curve" smooth="yes"/>
      <point x="445" y="817"/>
      <point x="403" y="860"/>
      <point x="340" y="860" type="curve" smooth="yes"/>
      <point x="285" y="860"/>
      <point x="237" y="821"/>
    </contour>
    <contour>
      <point x="316" y="621" type="curve"/>
      <point x="308" y="582" type="line"/>
      <point x="389" y="582"/>
      <point x="442" y="623"/>
      <point x="442" y="684" type="curve" smooth="yes"/>
      <point x="442" y="715"/>
      <point x="421" y="737"/>
      <point x="386" y="737" type="curve" smooth="yes"/>
      <point x="355" y="737"/>
      <point x="333" y="717"/>
      <point x="333" y="689" type="curve" smooth="yes"/>
      <point x="333" y="666"/>
      <point x="350" y="652"/>
      <point x="375" y="648" type="curve"/>
      <point x="370" y="632"/>
      <point x="350" y="623"/>
    </contour>
  </outline>
</glyph>
<glyph name="uni1FDD" format="2">
  <advance width="577"/>
  <unicode hex="1FDD"/>
  <outline>
    <contour>
      <point x="331" y="596" type="curve"/>
      <point x="340" y="638" type="line"/>
      <point x="306" y="639"/>
      <point x="284" y="653"/>
      <point x="284" y="672" type="curve" smooth="yes"/>
      <point x="284" y="674"/>
      <point x="284" y="676"/>
      <point x="285" y="678" type="curve"/>
      <point x="323" y="681"/>
      <point x="353" y="695"/>
      <point x="353" y="734" type="curve" smooth="yes"/>
      <point x="353" y="758"/>
      <point x="335" y="776"/>
      <point x="306" y="776" type="curve" smooth="yes"/>
      <point x="263" y="776"/>
      <point x="228" y="746"/>
      <point x="228" y="687" type="curve" smooth="yes"/>
      <point x="228" y="636"/>
      <point x="262" y="597"/>
    </contour>
    <contour>
      <point x="430" y="606" type="curve"/>
      <point x="496" y="606" type="line"/>
      <point x="499" y="619" type="line"/>
      <point x="494" y="662"/>
      <point x="489" y="718"/>
      <point x="488" y="766" type="curve"/>
      <point x="373" y="766" type="line"/>
      <point x="371" y="756" type="line"/>
      <point x="380" y="712"/>
      <point x="405" y="656"/>
    </contour>
  </outline>
</glyph>
<glyph name="uni1FDE" format="2">
  <advance width="577"/>
  <unicode hex="1FDE"/>
  <anchor x="342" y="546" name="_top"/>
  <anchor x="388" y="776" name="top"/>
  <outline>
    <contour>
      <point x="362" y="606" type="line"/>
      <point x="429" y="606" type="line"/>
      <point x="467" y="645"/>
      <point x="515" y="709"/>
      <point x="543" y="756" type="curve"/>
      <point x="543" y="766" type="line"/>
      <point x="415" y="766" type="line"/>
      <point x="403" y="723"/>
      <point x="383" y="665"/>
      <point x="362" y="619" type="curve"/>
    </contour>
    <contour>
      <point x="331" y="596" type="curve"/>
      <point x="340" y="638" type="line"/>
      <point x="306" y="639"/>
      <point x="284" y="653"/>
      <point x="284" y="672" type="curve" smooth="yes"/>
      <point x="284" y="674"/>
      <point x="284" y="676"/>
      <point x="285" y="678" type="curve"/>
      <point x="323" y="681"/>
      <point x="353" y="695"/>
      <point x="353" y="734" type="curve" smooth="yes"/>
      <point x="353" y="758"/>
      <point x="335" y="776"/>
      <point x="306" y="776" type="curve" smooth="yes"/>
      <point x="263" y="776"/>
      <point x="228" y="746"/>
      <point x="228" y="687" type="curve" smooth="yes"/>
      <point x="228" y="636"/>
      <point x="262" y="597"/>
    </contour>
  </outline>
</glyph>
<glyph name="uni1FDF" format="2">
  <advance width="593"/>
  <unicode hex="1FDF"/>
  <anchor x="362" y="546" name="_top"/>
  <anchor x="410" y="860" name="top"/>
  <outline>
    <contour>
      <point x="225" y="745" type="curve"/>
      <point x="290" y="745" type="line"/>
      <point x="297" y="769"/>
      <point x="314" y="788"/>
      <point x="338" y="788" type="curve" smooth="yes"/>
      <point x="374" y="788"/>
      <point x="418" y="745"/>
      <point x="476" y="745" type="curve" smooth="yes"/>
      <point x="531" y="745"/>
      <point x="576" y="779"/>
      <point x="591" y="860" type="curve"/>
      <point x="528" y="860" type="line"/>
      <point x="519" y="835"/>
      <point x="505" y="817"/>
      <point x="480" y="817" type="curve" smooth="yes"/>
      <point x="445" y="817"/>
      <point x="403" y="860"/>
      <point x="340" y="860" type="curve" smooth="yes"/>
      <point x="285" y="860"/>
      <point x="237" y="821"/>
    </contour>
    <contour>
      <point x="419" y="582" type="curve"/>
      <point x="427" y="621" type="line"/>
      <point x="400" y="622"/>
      <point x="380" y="631"/>
      <point x="380" y="644" type="curve" smooth="yes"/>
      <point x="380" y="645"/>
      <point x="380" y="647"/>
      <point x="381" y="648" type="curve"/>
      <point x="414" y="649"/>
      <point x="440" y="663"/>
      <point x="440" y="695" type="curve" smooth="yes"/>
      <point x="440" y="720"/>
      <point x="419" y="737"/>
      <point x="392" y="737" type="curve" smooth="yes"/>
      <point x="353" y="737"/>
      <point x="325" y="710"/>
      <point x="325" y="662" type="curve" smooth="yes"/>
      <point x="325" y="621"/>
      <point x="356" y="583"/>
    </contour>
  </outline>
</glyph>
<glyph name="uni1FED" format="2">
  <advance width="577"/>
  <unicode hex="1FED"/>
  <outline>
    <contour>
      <point x="363" y="618" type="curve"/>
      <point x="426" y="618" type="line"/>
      <point x="429" y="631" type="line"/>
      <point x="421" y="674"/>
      <point x="414" y="730"/>
      <point x="413" y="778" type="curve"/>
      <point x="301" y="778" type="line"/>
      <point x="299" y="768" type="line"/>
      <point x="308" y="723"/>
      <point x="337" y="665"/>
    </contour>
    <contour>
      <point x="224" y="611" type="curve" smooth="yes"/>
      <point x="270" y="611"/>
      <point x="292" y="639"/>
      <point x="292" y="683" type="curve" smooth="yes"/>
      <point x="292" y="720"/>
      <point x="266" y="732"/>
      <point x="236" y="732" type="curve" smooth="yes"/>
      <point x="192" y="732"/>
      <point x="167" y="707"/>
      <point x="167" y="660" type="curve" smooth="yes"/>
      <point x="167" y="624"/>
      <point x="191" y="611"/>
    </contour>
    <contour>
      <point x="508" y="611" type="curve" smooth="yes"/>
      <point x="554" y="611"/>
      <point x="576" y="639"/>
      <point x="576" y="683" type="curve" smooth="yes"/>
      <point x="576" y="720"/>
      <point x="550" y="732"/>
      <point x="520" y="732" type="curve" smooth="yes"/>
      <point x="476" y="732"/>
      <point x="451" y="707"/>
      <point x="451" y="660" type="curve" smooth="yes"/>
      <point x="451" y="624"/>
      <point x="475" y="611"/>
    </contour>
  </outline>
</glyph>
<glyph name="uni1FEE" format="2">
  <advance width="577"/>
  <unicode hex="1FEE"/>
  <anchor x="337" y="546" name="_top"/>
  <outline>
    <contour>
      <point x="298" y="618" type="line"/>
      <point x="363" y="618" type="line"/>
      <point x="409" y="670"/>
      <point x="450" y="724"/>
      <point x="478" y="768" type="curve"/>
      <point x="478" y="778" type="line"/>
      <point x="355" y="778" type="line"/>
      <point x="341" y="735"/>
      <point x="317" y="670"/>
      <point x="298" y="631" type="curve"/>
    </contour>
    <contour>
      <point x="218" y="611" type="curve" smooth="yes"/>
      <point x="264" y="611"/>
      <point x="286" y="639"/>
      <point x="286" y="683" type="curve" smooth="yes"/>
      <point x="286" y="720"/>
      <point x="260" y="732"/>
      <point x="230" y="732" type="curve" smooth="yes"/>
      <point x="186" y="732"/>
      <point x="161" y="707"/>
      <point x="161" y="660" type="curve" smooth="yes"/>
      <point x="161" y="624"/>
      <point x="185" y="611"/>
    </contour>
    <contour>
      <point x="514" y="611" type="curve" smooth="yes"/>
      <point x="560" y="611"/>
      <point x="582" y="639"/>
      <point x="582" y="683" type="curve" smooth="yes"/>
      <point x="582" y="720"/>
      <point x="556" y="732"/>
      <point x="526" y="732" type="curve" smooth="yes"/>
      <point x="482" y="732"/>
      <point x="457" y="707"/>
      <point x="457" y="660" type="curve" smooth="yes"/>
      <point x="457" y="624"/>
      <point x="481" y="611"/>
    </contour>
  </outline>
</glyph>
<glyph name="uni1FEF" format="2">
  <advance width="577"/>
  <unicode hex="1FEF"/>
  <anchor x="376" y="546" name="_top"/>
  <outline>
    <contour>
      <point x="345" y="606" type="curve"/>
      <point x="425" y="606" type="line"/>
      <point x="428" y="621" type="line"/>
      <point x="420" y="667"/>
      <point x="415" y="744"/>
      <point x="415" y="796" type="curve"/>
      <point x="278" y="796" type="line"/>
      <point x="276" y="784" type="line"/>
      <point x="290" y="731"/>
      <point x="313" y="668"/>
    </contour>
  </outline>
</glyph>
<glyph name="uni1FFD" format="2">
  <advance width="577"/>
  <unicode hex="1FFD"/>
  <anchor x="348" y="546" name="_top"/>
  <outline>
    <contour>
      <point x="296" y="621" type="curve"/>
      <point x="296" y="606" type="line"/>
      <point x="384" y="606" type="line"/>
      <point x="434" y="669"/>
      <point x="476" y="732"/>
      <point x="508" y="784" type="curve"/>
      <point x="508" y="796" type="line"/>
      <point x="369" y="796" type="line"/>
      <point x="351" y="745"/>
      <point x="320" y="668"/>
    </contour>
  </outline>
</glyph>
<glyph name="uni1FFE" format="2">
  <advance width="270"/>
  <unicode hex="1FFE"/>
  <outline>
    <contour>
      <point x="268" y="596" type="curve"/>
      <point x="277" y="638" type="line"/>
      <point x="243" y="639"/>
      <point x="221" y="648"/>
      <point x="221" y="667" type="curve" smooth="yes"/>
      <point x="221" y="669"/>
      <point x="221" y="671"/>
      <point x="222" y="674" type="curve"/>
      <point x="259" y="675"/>
      <point x="295" y="691"/>
      <point x="295" y="736" type="curve" smooth="yes"/>
      <point x="295" y="760"/>
      <point x="274" y="781"/>
      <point x="243" y="781" type="curve" smooth="yes"/>
      <point x="195" y="781"/>
      <point x="162" y="747"/>
      <point x="162" y="689" type="curve" smooth="yes"/>
      <point x="162" y="635"/>
      <point x="196" y="597"/>
    </contour>
  </outline>
</glyph>
<glyph name="endash" format="2">
  <advance width="480"/>
  <unicode hex="2013"/>
  <outline>
    <contour>
      <point x="20" y="213" type="line"/>
      <point x="436" y="213" type="line"/>
      <point x="460" y="325" type="line"/>
      <point x="44" y="325" type="line"/>
    </contour>
  </outline>
</glyph>
<glyph name="quotereversed" format="2">
  <advance width="215"/>
  <unicode hex="201B"/>
  <outline>
    <contour>
      <point x="147" y="469" type="curve"/>
      <point x="249" y="469" type="line"/>
      <point x="243" y="535"/>
      <point x="243" y="628"/>
      <point x="246" y="714" type="curve"/>
      <point x="115" y="714" type="line"/>
      <point x="109" y="703" type="line"/>
      <point x="113" y="627"/>
      <point x="130" y="537"/>
    </contour>
  </outline>
</glyph>
<glyph name="quotedblleft" format="2">
  <advance width="433"/>
  <unicode hex="201C"/>
  <outline>
    <contour>
      <point x="278" y="469" type="line"/>
      <point x="417" y="469" type="line"/>
      <point x="442" y="538"/>
      <point x="478" y="635"/>
      <point x="512" y="714" type="curve"/>
      <point x="402" y="714" type="line"/>
      <point x="355" y="640"/>
      <point x="305" y="549"/>
      <point x="274" y="480" type="curve"/>
    </contour>
    <contour>
      <point x="60" y="469" type="line"/>
      <point x="199" y="469" type="line"/>
      <point x="224" y="538"/>
      <point x="260" y="635"/>
      <point x="294" y="714" type="curve"/>
      <point x="184" y="714" type="line"/>
      <point x="137" y="640"/>
      <point x="87" y="549"/>
      <point x="56" y="480" type="curve"/>
    </contour>
  </outline>
</glyph>
<glyph name="dagger" format="2">
  <advance width="506"/>
  <unicode hex="2020"/>
  <outline>
    <contour>
      <point x="117" y="0" type="line"/>
      <point x="255" y="0" type="line"/>
      <point x="329" y="468" type="line"/>
      <point x="481" y="453" type="line"/>
      <point x="506" y="571" type="line"/>
      <point x="348" y="557" type="line"/>
      <point x="417" y="760" type="line"/>
      <point x="279" y="760" type="line"/>
      <point x="262" y="557" type="line"/>
      <point x="118" y="571" type="line"/>
      <point x="93" y="453" type="line"/>
      <point x="242" y="467" type="line"/>
    </contour>
  </outline>
</glyph>
<glyph name="minute" format="2">
  <advance width="283"/>
  <unicode hex="2032"/>
  <outline>
    <contour>
      <point x="63" y="456" type="line"/>
      <point x="166" y="456" type="line"/>
      <point x="347" y="714" type="line"/>
      <point x="211" y="714" type="line"/>
    </contour>
  </outline>
</glyph>
<glyph name="caret" format="2">
  <advance width="352"/>
  <unicode hex="2038"/>
  <outline>
    <contour>
      <point x="-75" y="-240" type="line"/>
      <point x="2" y="-240" type="line"/>
      <point x="136" y="-25" type="line"/>
      <point x="173" y="-240" type="line"/>
      <point x="242" y="-240" type="line"/>
      <point x="173" y="81" type="line"/>
      <point x="128" y="81" type="line"/>
    </contour>
  </outline>
</glyph>
<glyph name="caretinsertionpoint" format="2">
  <advance width="384"/>
  <unicode hex="2041"/>
  <outline>
    <contour>
      <point x="-83" y="-240" type="line"/>
      <point x="-1" y="-240" type="line"/>
      <point x="408" y="402" type="line"/>
      <point x="325" y="402" type="line"/>
    </contour>
    <contour>
      <point x="178" y="-240" type="line"/>
      <point x="252" y="-240" type="line"/>
      <point x="183" y="60" type="line"/>
      <point x="121" y="60" type="line"/>
      <point x="136" y="-16" type="line"/>
    </contour>
  </outline>
</glyph>
<glyph name="bracketleftwithquill" format="2">
  <advance width="331"/>
  <unicode hex="2045"/>
  <outline>
    <contour>
      <point x="90" y="226" type="line"/>
      <point x="293" y="226" type="line"/>
      <point x="315" y="331" type="line"/>
      <point x="112" y="331" type="line"/>
    </contour>
    <component base="bracketleft"/>
  </outline>
</glyph>
<glyph name="bracketrightwithquill" format="2">
  <advance width="331"/>
  <unicode hex="2046"/>
  <outline>
    <contour>
      <point x="13" y="226" type="line"/>
      <point x="216" y="226" type="line"/>
      <point x="238" y="331" type="line"/>
      <point x="35" y="331" type="line"/>
    </contour>
    <component base="bracketright"/>
  </outline>
</glyph>
<glyph name="tironiansignet" format="2">
  <advance width="532"/>
  <unicode hex="204A"/>
  <outline>
    <contour>
      <point x="421" y="0" type="line"/>
      <point x="528" y="0" type="line"/>
      <point x="528" y="546" type="line"/>
      <point x="43" y="546" type="line"/>
      <point x="43" y="439" type="line"/>
      <point x="421" y="439" type="line"/>
    </contour>
  </outline>
</glyph>
<glyph name="blackleftbullet" format="2">
  <advance width="641"/>
  <unicode hex="204C"/>
  <outline>
    <contour>
      <point x="268" y="41" type="curve" smooth="yes"/>
      <point x="568" y="41" type="line"/>
      <point x="568" y="546" type="line"/>
      <point x="272" y="546" type="line" smooth="yes"/>
      <point x="136" y="546"/>
      <point x="52" y="472"/>
      <point x="52" y="294" type="curve" smooth="yes"/>
      <point x="52" y="102"/>
      <point x="135" y="41"/>
    </contour>
    <contour>
      <point x="402" y="134" type="line"/>
      <point x="402" y="453" type="line"/>
      <point x="488" y="453" type="line"/>
      <point x="488" y="134" type="line"/>
    </contour>
  </outline>
</glyph>
<glyph name="blackrightbullet" format="2">
  <advance width="641"/>
  <unicode hex="204D"/>
  <outline>
    <contour>
      <point x="74" y="41" type="line"/>
      <point x="373" y="41" type="line" smooth="yes"/>
      <point x="507" y="41"/>
      <point x="590" y="102"/>
      <point x="590" y="294" type="curve" smooth="yes"/>
      <point x="590" y="472"/>
      <point x="506" y="546"/>
      <point x="370" y="546" type="curve" smooth="yes"/>
      <point x="74" y="546" type="line"/>
    </contour>
    <contour>
      <point x="154" y="134" type="line"/>
      <point x="154" y="453" type="line"/>
      <point x="240" y="453" type="line"/>
      <point x="240" y="134" type="line"/>
    </contour>
  </outline>
</glyph>
<glyph name="plussuperior" format="2">
  <advance width="376"/>
  <unicode hex="207A"/>
  <outline>
    <contour>
      <point x="191" y="307" type="line"/>
      <point x="258" y="307" type="line"/>
      <point x="258" y="418" type="line"/>
      <point x="370" y="418" type="line"/>
      <point x="370" y="485" type="line"/>
      <point x="258" y="485" type="line"/>
      <point x="258" y="598" type="line"/>
      <point x="191" y="598" type="line"/>
      <point x="191" y="485" type="line"/>
      <point x="79" y="485" type="line"/>
      <point x="79" y="418" type="line"/>
      <point x="191" y="418" type="line"/>
    </contour>
  </outline>
</glyph>
<glyph name="minussuperior" format="2">
  <advance width="376"/>
  <unicode hex="207B"/>
  <outline>
    <contour>
      <point x="77" y="421" type="line"/>
      <point x="368" y="421" type="line"/>
      <point x="368" y="488" type="line"/>
      <point x="77" y="488" type="line"/>
    </contour>
  </outline>
</glyph>
<glyph name="equalsuperior" format="2">
  <advance width="376"/>
  <unicode hex="207C"/>
  <outline>
    <contour>
      <point x="85" y="486" type="line"/>
      <point x="376" y="486" type="line"/>
      <point x="376" y="552" type="line"/>
      <point x="85" y="552" type="line"/>
    </contour>
    <contour>
      <point x="85" y="367" type="line"/>
      <point x="376" y="367" type="line"/>
      <point x="376" y="434" type="line"/>
      <point x="85" y="434" type="line"/>
    </contour>
  </outline>
</glyph>
<glyph name="parenleftsuperior" format="2">
  <advance width="223"/>
  <unicode hex="207D"/>
  <outline>
    <contour>
      <point x="118" y="222" type="curve"/>
      <point x="189" y="222" type="line"/>
      <point x="167" y="277"/>
      <point x="154" y="340"/>
      <point x="154" y="403" type="curve"/>
      <point x="154" y="553"/>
      <point x="217" y="671"/>
      <point x="307" y="768" type="curve"/>
      <point x="226" y="768" type="line"/>
      <point x="126" y="665"/>
      <point x="72" y="551"/>
      <point x="72" y="407" type="curve"/>
      <point x="72" y="340"/>
      <point x="87" y="276"/>
    </contour>
  </outline>
</glyph>
<glyph name="parenrightsuperior" format="2">
  <advance width="223"/>
  <unicode hex="207E"/>
  <outline>
    <contour>
      <point x="8" y="221" type="curve"/>
      <point x="89" y="221" type="line"/>
      <point x="189" y="324"/>
      <point x="243" y="438"/>
      <point x="243" y="582" type="curve"/>
      <point x="243" y="649"/>
      <point x="228" y="713"/>
      <point x="197" y="767" type="curve"/>
      <point x="126" y="767" type="line"/>
      <point x="148" y="712"/>
      <point x="161" y="649"/>
      <point x="161" y="586" type="curve"/>
      <point x="161" y="436"/>
      <point x="97" y="318"/>
    </contour>
  </outline>
</glyph>
<glyph name="uni20A5" format="2">
  <advance width="905"/>
  <unicode hex="20A5"/>
  <anchor x="403" y="0" name="bottom"/>
  <anchor x="528" y="546" name="top"/>
  <anchor x="943" y="546" name="topright"/>
  <outline>
    <contour>
      <point x="133" y="-110" type="line"/>
      <point x="233" y="-110" type="line"/>
      <point x="745" y="666" type="line"/>
      <point x="645" y="666" type="line"/>
    </contour>
    <component base="m"/>
  </outline>
</glyph>
<glyph name="uni20A9" format="2">
  <advance width="727"/>
  <unicode hex="20A9"/>
  <outline>
    <contour>
      <point x="74" y="0" type="line"/>
      <point x="211" y="0" type="line"/>
      <point x="305" y="247" type="line"/>
      <point x="393" y="247" type="line"/>
      <point x="385" y="0" type="line"/>
      <point x="521" y="0" type="line"/>
      <point x="612" y="247" type="line"/>
      <point x="696" y="247" type="line"/>
      <point x="712" y="321" type="line"/>
      <point x="640" y="321" type="line"/>
      <point x="666" y="393" type="line"/>
      <point x="727" y="393" type="line"/>
      <point x="743" y="467" type="line"/>
      <point x="694" y="467" type="line"/>
      <point x="785" y="714" type="line"/>
      <point x="673" y="714" type="line"/>
      <point x="583" y="467" type="line"/>
      <point x="496" y="467" type="line"/>
      <point x="508" y="714" type="line"/>
      <point x="386" y="714" type="line"/>
      <point x="292" y="467" type="line"/>
      <point x="204" y="467" type="line"/>
      <point x="220" y="714" type="line"/>
      <point x="111" y="714" type="line"/>
      <point x="99" y="467" type="line"/>
      <point x="51" y="467" type="line"/>
      <point x="35" y="393" type="line"/>
      <point x="94" y="393" type="line"/>
      <point x="91" y="321" type="line"/>
      <point x="20" y="321" type="line"/>
      <point x="4" y="247" type="line"/>
      <point x="86" y="247" type="line"/>
    </contour>
    <contour>
      <point x="177" y="147" type="line"/>
      <point x="188" y="247" type="line"/>
      <point x="210" y="247" type="line"/>
    </contour>
    <contour>
      <point x="194" y="321" type="line"/>
      <point x="199" y="393" type="line"/>
      <point x="263" y="393" type="line"/>
      <point x="237" y="321" type="line"/>
    </contour>
    <contour>
      <point x="476" y="147" type="line"/>
      <point x="485" y="247" type="line"/>
      <point x="508" y="247" type="line"/>
    </contour>
    <contour>
      <point x="335" y="321" type="line"/>
      <point x="362" y="393" type="line"/>
      <point x="399" y="393" type="line"/>
      <point x="396" y="321" type="line"/>
    </contour>
    <contour>
      <point x="490" y="321" type="line"/>
      <point x="493" y="393" type="line"/>
      <point x="557" y="393" type="line"/>
      <point x="532" y="321" type="line"/>
    </contour>
    <contour>
      <point x="387" y="467" type="line"/>
      <point x="415" y="559" type="line"/>
      <point x="406" y="467" type="line"/>
    </contour>
  </outline>
</glyph>
<glyph name="uni20B1" format="2">
  <advance width="572"/>
  <unicode hex="20B1"/>
  <outline>
    <contour>
      <point x="5" y="0" type="line"/>
      <point x="148" y="0" type="line"/>
      <point x="188" y="192" type="line"/>
      <point x="207" y="192" type="line" smooth="yes"/>
      <point x="357" y="192"/>
      <point x="458" y="253"/>
      <point x="505" y="355" type="curve"/>
      <point x="562" y="355" type="line"/>
      <point x="577" y="424" type="line"/>
      <point x="531" y="424" type="line"/>
      <point x="536" y="444"/>
      <point x="541" y="464"/>
      <point x="542" y="483" type="curve"/>
      <point x="589" y="483" type="line"/>
      <point x="604" y="552" type="line"/>
      <point x="544" y="552" type="line"/>
      <point x="536" y="647"/>
      <point x="472" y="714"/>
      <point x="342" y="714" type="curve" smooth="yes"/>
      <point x="156" y="714" type="line"/>
      <point x="122" y="552" type="line"/>
      <point x="68" y="552" type="line"/>
      <point x="53" y="483" type="line"/>
      <point x="107" y="483" type="line"/>
      <point x="95" y="424" type="line"/>
      <point x="41" y="424" type="line"/>
      <point x="26" y="355" type="line"/>
      <point x="80" y="355" type="line"/>
    </contour>
    <contour>
      <point x="214" y="312" type="line"/>
      <point x="223" y="355" type="line"/>
      <point x="349" y="355" type="line"/>
      <point x="321" y="324"/>
      <point x="281" y="312"/>
      <point x="228" y="312" type="curve" smooth="yes"/>
    </contour>
    <contour>
      <point x="238" y="424" type="line"/>
      <point x="250" y="483" type="line"/>
      <point x="397" y="483" type="line"/>
      <point x="397" y="465"/>
      <point x="395" y="445"/>
      <point x="385" y="424" type="curve"/>
    </contour>
    <contour>
      <point x="265" y="552" type="line"/>
      <point x="274" y="594" type="line"/>
      <point x="325" y="594" type="line" smooth="yes"/>
      <point x="366" y="594"/>
      <point x="388" y="579"/>
      <point x="397" y="552" type="curve"/>
    </contour>
  </outline>
</glyph>
<glyph name="response" format="2">
  <advance width="609"/>
  <unicode hex="211F"/>
  <anchor x="260" y="0" name="bottom"/>
  <anchor x="399" y="714" name="top"/>
  <anchor x="683" y="714" name="topright"/>
  <outline>
    <contour>
      <point x="174" y="-145" type="line"/>
      <point x="237" y="-145" type="line"/>
      <point x="462" y="805" type="line"/>
      <point x="184" y="876" type="line"/>
      <point x="168" y="814" type="line"/>
      <point x="388" y="762" type="line"/>
    </contour>
    <component base="R"/>
  </outline>
</glyph>
<glyph name="versicle" format="2">
  <advance width="590"/>
  <unicode hex="2123"/>
  <anchor x="234" y="0" name="bottom"/>
  <anchor x="383" y="714" name="top"/>
  <anchor x="664" y="714" name="topright"/>
  <outline>
    <contour>
      <point x="96" y="-146" type="line"/>
      <point x="159" y="-146" type="line"/>
      <point x="436" y="791" type="line"/>
      <point x="163" y="877" type="line"/>
      <point x="142" y="816" type="line"/>
      <point x="359" y="752" type="line"/>
    </contour>
    <component base="V"/>
  </outline>
</glyph>
<glyph name="daletsymbol" format="2">
  <advance width="489"/>
  <unicode hex="2138"/>
  <outline>
    <contour>
      <point x="290" y="0" type="line"/>
      <point x="390" y="0" type="line"/>
      <point x="390" y="493" type="line"/>
      <point x="467" y="493" type="line"/>
      <point x="467" y="581" type="line"/>
      <point x="2" y="581" type="line"/>
      <point x="2" y="493" type="line"/>
      <point x="290" y="493" type="line"/>
    </contour>
  </outline>
</glyph>
<glyph name="reversedSansSerifL" format="2">
  <advance width="514"/>
  <unicode hex="2143"/>
  <outline>
    <contour>
      <point x="-23" y="0" type="line"/>
      <point x="373" y="0" type="line"/>
      <point x="525" y="714" type="line"/>
      <point x="379" y="714" type="line"/>
      <point x="254" y="126" type="line"/>
      <point x="4" y="126" type="line"/>
    </contour>
  </outline>
</glyph>
<glyph name="uni2C65" format="2">
  <advance width="594"/>
  <unicode hex="2C65"/>
  <anchor x="195" y="-208" name="bottom"/>
  <anchor x="400" y="760" name="top"/>
  <anchor x="632" y="546" name="topright"/>
  <outline>
    <contour>
      <point x="-5" y="-208" type="line"/>
      <point x="92" y="-208" type="line"/>
      <point x="591" y="760" type="line"/>
      <point x="494" y="760" type="line"/>
    </contour>
    <component base="a"/>
  </outline>
</glyph>
<glyph name="uni2C76" format="2">
  <advance width="444"/>
  <unicode hex="2C76"/>
  <anchor x="164" y="0" name="bottom"/>
  <anchor x="280" y="546" name="top"/>
  <outline>
    <contour>
      <point x="17" y="0" type="line"/>
      <point x="165" y="0" type="line"/>
      <point x="213" y="225" type="line"/>
      <point x="402" y="225" type="line"/>
      <point x="427" y="336" type="line"/>
      <point x="237" y="336" type="line"/>
      <point x="282" y="546" type="line"/>
      <point x="134" y="546" type="line"/>
    </contour>
  </outline>
</glyph>
<glyph name="uni2DF5" format="2">
  <unicode hex="2DF5"/>
  <anchor x="58" y="546" name="_top"/>
  <anchor x="118" y="838" name="top"/>
  <anchor x="313" y="838" name="topright"/>
  <outline>
    <contour>
      <point x="-5" y="616" type="curve" smooth="yes"/>
      <point x="26" y="616"/>
      <point x="48" y="622"/>
      <point x="69" y="632" type="curve"/>
      <point x="69" y="680" type="line"/>
      <point x="49" y="670"/>
      <point x="31" y="664"/>
      <point x="9" y="664" type="curve" smooth="yes"/>
      <point x="-15" y="664"/>
      <point x="-29" y="676"/>
      <point x="-29" y="701" type="curve" smooth="yes"/>
      <point x="-29" y="746"/>
      <point x="-5" y="793"/>
      <point x="37" y="793" type="curve" smooth="yes"/>
      <point x="148" y="793" type="line"/>
      <point x="107" y="620" type="line"/>
      <point x="172" y="620" type="line"/>
      <point x="213" y="793" type="line"/>
      <point x="284" y="793" type="line"/>
      <point x="295" y="838" type="line"/>
      <point x="34" y="838" type="line" smooth="yes"/>
      <point x="-49" y="838"/>
      <point x="-96" y="773"/>
      <point x="-96" y="696" type="curve" smooth="yes"/>
      <point x="-96" y="639"/>
      <point x="-56" y="616"/>
    </contour>
  </outline>
</glyph>
<glyph name="leftsubstitutionbracket" format="2">
  <advance width="500"/>
  <unicode hex="2E02"/>
  <outline>
    <contour>
      <point x="130" y="276" type="line"/>
      <point x="201" y="276" type="line"/>
      <point x="201" y="545" type="line"/>
      <point x="369" y="654" type="line"/>
      <point x="330" y="714" type="line"/>
      <point x="130" y="584" type="line"/>
    </contour>
  </outline>
</glyph>
<glyph name="rightdottedsubstitutionbracket" format="2">
  <advance width="500"/>
  <unicode hex="2E05"/>
  <outline>
    <contour>
      <point x="310" y="276" type="line"/>
      <point x="381" y="276" type="line"/>
      <point x="381" y="584" type="line"/>
      <point x="181" y="714" type="line"/>
      <point x="142" y="654" type="line"/>
      <point x="310" y="545" type="line"/>
    </contour>
    <contour>
      <point x="171" y="398" type="curve" smooth="yes"/>
      <point x="198" y="398"/>
      <point x="222" y="416"/>
      <point x="222" y="454" type="curve" smooth="yes"/>
      <point x="222" y="493"/>
      <point x="198" y="510"/>
      <point x="171" y="510" type="curve" smooth="yes"/>
      <point x="142" y="510"/>
      <point x="119" y="493"/>
      <point x="119" y="454" type="curve" smooth="yes"/>
      <point x="119" y="416"/>
      <point x="142" y="398"/>
    </contour>
  </outline>
</glyph>
<glyph name="raisedinterpolationmarker" format="2">
  <advance width="500"/>
  <unicode hex="2E06"/>
  <outline>
    <contour>
      <point x="214" y="276" type="line"/>
      <point x="285" y="276" type="line"/>
      <point x="285" y="643" type="line"/>
      <point x="464" y="643" type="line"/>
      <point x="464" y="714" type="line"/>
      <point x="35" y="714" type="line"/>
      <point x="35" y="643" type="line"/>
      <point x="214" y="643" type="line"/>
    </contour>
  </outline>
</glyph>
<glyph name="leftraisedomissionbracket" format="2">
  <advance width="500"/>
  <unicode hex="2E0C"/>
  <outline>
    <contour>
      <point x="392" y="334" type="line"/>
      <point x="441" y="382" type="line"/>
      <point x="108" y="715" type="line"/>
      <point x="59" y="667" type="line"/>
    </contour>
  </outline>
</glyph>
<glyph name="rightraisedomissionbracket" format="2">
  <advance width="500"/>
  <unicode hex="2E0D"/>
  <outline>
    <contour>
      <point x="108" y="334" type="line"/>
      <point x="441" y="667" type="line"/>
      <point x="392" y="715" type="line"/>
      <point x="59" y="382" type="line"/>
    </contour>
  </outline>
</glyph>
<glyph name="paragraphos" format="2">
  <advance width="1000"/>
  <unicode hex="2E0F"/>
  <outline>
    <contour>
      <point x="0" y="-154" type="line"/>
      <point x="1000" y="-154" type="line"/>
      <point x="1000" y="-90" type="line"/>
      <point x="0" y="-90" type="line"/>
    </contour>
  </outline>
</glyph>
<glyph name="forkedparagraphos" format="2">
  <advance width="1000"/>
  <unicode hex="2E10"/>
  <outline>
    <contour>
      <point x="34" y="-346" type="line"/>
      <point x="366" y="-154" type="line"/>
      <point x="1000" y="-154" type="line"/>
      <point x="1000" y="-90" type="line"/>
      <point x="0" y="-90" type="line"/>
      <point x="0" y="-154" type="line"/>
      <point x="237" y="-154" type="line"/>
      <point x="2" y="-290" type="line"/>
    </contour>
  </outline>
</glyph>
<glyph name="reversedforkedparagraphos" format="2">
  <advance width="1000"/>
  <unicode hex="2E11"/>
  <outline>
    <contour>
      <point x="966" y="-346" type="line"/>
      <point x="998" y="-290" type="line"/>
      <point x="763" y="-154" type="line"/>
      <point x="1000" y="-154" type="line"/>
      <point x="1000" y="-90" type="line"/>
      <point x="0" y="-90" type="line"/>
      <point x="0" y="-154" type="line"/>
      <point x="634" y="-154" type="line"/>
    </contour>
  </outline>
</glyph>
<glyph name="downwardsancora" format="2">
  <advance width="750"/>
  <unicode hex="2E14"/>
  <outline>
    <contour>
      <point x="470" y="81" type="curve"/>
      <point x="423" y="127" type="line"/>
      <point x="370" y="106"/>
      <point x="324" y="112"/>
      <point x="274" y="152" type="curve"/>
      <point x="662" y="539" type="line"/>
      <point x="619" y="581" type="line"/>
      <point x="232" y="194" type="line"/>
      <point x="192" y="244"/>
      <point x="187" y="290"/>
      <point x="208" y="343" type="curve"/>
      <point x="161" y="390" type="line"/>
      <point x="113" y="294"/>
      <point x="133" y="207"/>
      <point x="210" y="130" type="curve" smooth="yes"/>
      <point x="287" y="53"/>
      <point x="374" y="33"/>
    </contour>
  </outline>
</glyph>
<glyph name="leftlowparaphrasebracket" format="2">
  <advance width="500"/>
  <unicode hex="2E1C"/>
  <outline>
    <contour>
      <point x="392" y="-82" type="line"/>
      <point x="441" y="-34" type="line"/>
      <point x="108" y="299" type="line"/>
      <point x="59" y="251" type="line"/>
    </contour>
  </outline>
</glyph>
<glyph name="rightlowparaphrasebracket" format="2">
  <advance width="500"/>
  <unicode hex="2E1D"/>
  <outline>
    <contour>
      <point x="108" y="-82" type="line"/>
      <point x="441" y="251" type="line"/>
      <point x="392" y="299" type="line"/>
      <point x="59" y="-34" type="line"/>
    </contour>
  </outline>
</glyph>
<glyph name="tildedotabove" format="2">
  <advance width="551"/>
  <unicode hex="2E1E"/>
  <outline>
    <contour>
      <point x="290" y="479" type="curve" smooth="yes"/>
      <point x="324" y="479"/>
      <point x="354" y="502"/>
      <point x="354" y="552" type="curve" smooth="yes"/>
      <point x="354" y="605"/>
      <point x="324" y="624"/>
      <point x="290" y="624" type="curve" smooth="yes"/>
      <point x="254" y="624"/>
      <point x="226" y="605"/>
      <point x="226" y="552" type="curve" smooth="yes"/>
      <point x="226" y="502"/>
      <point x="254" y="479"/>
    </contour>
    <component base="asciitilde"/>
  </outline>
</glyph>
<glyph name="leftverticalbarwithquill" format="2">
  <advance width="551"/>
  <unicode hex="2E20"/>
  <outline>
    <contour>
      <point x="157" y="-240" type="line"/>
      <point x="240" y="-240" type="line"/>
      <point x="240" y="222" type="line"/>
      <point x="382" y="222" type="line"/>
      <point x="382" y="297" type="line"/>
      <point x="240" y="297" type="line"/>
      <point x="240" y="760" type="line"/>
      <point x="157" y="760" type="line"/>
    </contour>
  </outline>
</glyph>
<glyph name="rightverticalbarwithquill" format="2">
  <advance width="551"/>
  <unicode hex="2E21"/>
  <outline>
    <contour>
      <point x="310" y="-240" type="line"/>
      <point x="394" y="-240" type="line"/>
      <point x="394" y="760" type="line"/>
      <point x="310" y="760" type="line"/>
      <point x="310" y="297" type="line"/>
      <point x="169" y="297" type="line"/>
      <point x="169" y="222" type="line"/>
      <point x="310" y="222" type="line"/>
    </contour>
  </outline>
</glyph>
<glyph name="brackhalftopright" format="2">
  <advance width="340"/>
  <unicode hex="2E23"/>
  <outline>
    <contour>
      <point x="166" y="268" type="line"/>
      <point x="260" y="268" type="line"/>
      <point x="260" y="714" type="line"/>
      <point x="25" y="714" type="line"/>
      <point x="25" y="630" type="line"/>
      <point x="166" y="630" type="line"/>
    </contour>
  </outline>
</glyph>
<glyph name="brackhalfbottomleft" format="2">
  <advance width="340"/>
  <unicode hex="2E24"/>
  <outline>
    <contour>
      <point x="80" y="-158" type="line"/>
      <point x="315" y="-158" type="line"/>
      <point x="315" y="-74" type="line"/>
      <point x="175" y="-74" type="line"/>
      <point x="175" y="288" type="line"/>
      <point x="80" y="288" type="line"/>
    </contour>
  </outline>
</glyph>
<glyph name="onedotovertwodotspunctuation" format="2">
  <advance width="848"/>
  <unicode hex="2E2B"/>
  <outline>
    <contour>
      <point x="714" y="-21" type="curve" smooth="yes"/>
      <point x="761" y="-21"/>
      <point x="796" y="3"/>
      <point x="796" y="59" type="curve" smooth="yes"/>
      <point x="796" y="116"/>
      <point x="761" y="139"/>
      <point x="714" y="139" type="curve" smooth="yes"/>
      <point x="665" y="139"/>
      <point x="629" y="116"/>
      <point x="629" y="59" type="curve" smooth="yes"/>
      <point x="629" y="3"/>
      <point x="665" y="-21"/>
    </contour>
    <contour>
      <point x="137" y="-21" type="curve" smooth="yes"/>
      <point x="184" y="-21"/>
      <point x="219" y="3"/>
      <point x="219" y="59" type="curve" smooth="yes"/>
      <point x="219" y="116"/>
      <point x="184" y="139"/>
      <point x="137" y="139" type="curve" smooth="yes"/>
      <point x="88" y="139"/>
      <point x="52" y="116"/>
      <point x="52" y="59" type="curve" smooth="yes"/>
      <point x="52" y="3"/>
      <point x="88" y="-21"/>
    </contour>
    <contour>
      <point x="421" y="574" type="curve" smooth="yes"/>
      <point x="468" y="574"/>
      <point x="503" y="599"/>
      <point x="503" y="653" type="curve" smooth="yes"/>
      <point x="503" y="711"/>
      <point x="468" y="733"/>
      <point x="421" y="733" type="curve" smooth="yes"/>
      <point x="372" y="733"/>
      <point x="336" y="711"/>
      <point x="336" y="653" type="curve" smooth="yes"/>
      <point x="336" y="599"/>
      <point x="372" y="574"/>
    </contour>
  </outline>
</glyph>
<glyph name="twoemdash" format="2">
  <advance width="1880"/>
  <unicode hex="2E3A"/>
  <outline>
    <contour>
      <point x="20" y="213" type="line"/>
      <point x="1836" y="213" type="line"/>
      <point x="1860" y="325" type="line"/>
      <point x="44" y="325" type="line"/>
    </contour>
  </outline>
</glyph>
<glyph name="uni2E42" format="2">
  <advance width="503"/>
  <unicode hex="2E42"/>
  <outline>
    <contour>
      <point x="113" y="-129" type="curve"/>
      <point x="223" y="-129" type="line"/>
      <point x="202" y="-50"/>
      <point x="183" y="47"/>
      <point x="170" y="116" type="curve"/>
      <point x="31" y="116" type="line"/>
      <point x="25" y="105" type="line"/>
      <point x="44" y="36"/>
      <point x="79" y="-55"/>
    </contour>
    <contour>
      <point x="332" y="-129" type="curve"/>
      <point x="442" y="-129" type="line"/>
      <point x="421" y="-50"/>
      <point x="402" y="47"/>
      <point x="389" y="116" type="curve"/>
      <point x="250" y="116" type="line"/>
      <point x="244" y="105" type="line"/>
      <point x="263" y="36"/>
      <point x="298" y="-55"/>
    </contour>
  </outline>
</glyph>
<glyph name="uni2E4D" format="2">
  <advance width="503"/>
  <unicode hex="2E4D"/>
  <anchor x="194" y="0" name="bottom"/>
  <anchor x="382" y="714" name="top"/>
  <outline>
    <contour>
      <point x="216" y="284" type="line"/>
      <point x="533" y="601" type="line"/>
      <point x="484" y="649" type="line"/>
      <point x="167" y="332" type="line"/>
    </contour>
    <component base="afii10020"/>
  </outline>
</glyph>
<glyph name="uniA642" format="2">
  <advance width="536"/>
  <unicode hex="A642"/>
  <outline>
    <contour>
      <point x="46" y="291" type="line"/>
      <point x="480" y="291" type="line"/>
      <point x="507" y="415" type="line"/>
      <point x="73" y="415" type="line"/>
    </contour>
    <component base="uniA640"/>
  </outline>
</glyph>
<glyph name="uniA643" format="2">
  <advance width="455"/>
  <unicode hex="A643"/>
  <outline>
    <contour>
      <point x="36" y="230" type="line"/>
      <point x="405" y="230" type="line"/>
      <point x="426" y="327" type="line"/>
      <point x="57" y="327" type="line"/>
    </contour>
    <component base="uniA641"/>
  </outline>
</glyph>
<glyph name="uniA64E" format="2">
  <advance width="637"/>
  <unicode hex="A64E"/>
  <outline>
    <contour>
      <point x="71" y="0" type="line"/>
      <point x="285" y="0" type="line"/>
      <point x="471" y="0"/>
      <point x="585" y="80"/>
      <point x="585" y="240" type="curve" smooth="yes"/>
      <point x="585" y="359"/>
      <point x="514" y="440"/>
      <point x="346" y="440" type="curve" smooth="yes"/>
      <point x="313" y="440" type="line"/>
      <point x="335" y="546" type="line" smooth="yes"/>
      <point x="340" y="569"/>
      <point x="342" y="590"/>
      <point x="342" y="608" type="curve" smooth="yes"/>
      <point x="342" y="697"/>
      <point x="285" y="725"/>
      <point x="198" y="725" type="curve" smooth="yes"/>
      <point x="144" y="725"/>
      <point x="93" y="714"/>
      <point x="63" y="702" type="curve"/>
      <point x="77" y="592" type="line"/>
      <point x="98" y="599"/>
      <point x="121" y="606"/>
      <point x="152" y="606" type="curve" smooth="yes"/>
      <point x="177" y="606"/>
      <point x="188" y="589"/>
      <point x="188" y="564" type="curve" smooth="yes"/>
      <point x="188" y="557"/>
      <point x="187" y="549"/>
      <point x="185" y="540" type="curve" smooth="yes"/>
    </contour>
    <contour>
      <point x="246" y="124" type="line"/>
      <point x="287" y="316" type="line"/>
      <point x="340" y="316" type="line" smooth="yes"/>
      <point x="403" y="316"/>
      <point x="434" y="288"/>
      <point x="434" y="233" type="curve" smooth="yes"/>
      <point x="434" y="175"/>
      <point x="399" y="124"/>
      <point x="295" y="124" type="curve" smooth="yes"/>
    </contour>
  </outline>
</glyph>
<glyph name="uniA650" format="2">
  <advance width="989"/>
  <unicode hex="A650"/>
  <anchor x="489" y="0" name="bottom"/>
  <anchor x="635" y="714" name="top"/>
  <outline>
    <contour>
      <point x="82" y="588" type="line"/>
      <point x="255" y="588" type="line"/>
      <point x="430" y="714" type="line"/>
      <point x="109" y="714" type="line"/>
    </contour>
    <component base="afii10045" xOffset="104"/>
  </outline>
</glyph>
<glyph name="uniA651" format="2">
  <advance width="914"/>
  <unicode hex="A651"/>
  <anchor x="455" y="0" name="bottom"/>
  <anchor x="557" y="546" name="top"/>
  <outline>
    <contour>
      <point x="45" y="434" type="line"/>
      <point x="217" y="434" type="line"/>
      <point x="387" y="546" type="line"/>
      <point x="69" y="546" type="line"/>
    </contour>
    <component base="afii10093" xOffset="111"/>
  </outline>
</glyph>
<glyph name="uniA655" format="2">
  <advance width="836"/>
  <unicode hex="A655"/>
  <anchor x="251" y="0" name="bottom"/>
  <anchor x="351" y="273" name="center"/>
  <anchor x="343" y="546" name="top"/>
  <anchor x="623" y="546" name="topright"/>
  <outline>
    <contour>
      <point x="458" y="336" type="line"/>
      <point x="434" y="225" type="line"/>
      <point x="603" y="225" type="line"/>
      <point x="556" y="0" type="line"/>
      <point x="703" y="0" type="line"/>
      <point x="819" y="546" type="line"/>
      <point x="672" y="546" type="line"/>
      <point x="628" y="336" type="line"/>
    </contour>
    <component base="o"/>
  </outline>
</glyph>
<glyph name="uniA657" format="2">
  <advance width="872"/>
  <unicode hex="A657"/>
  <anchor x="383" y="3" name="bottom"/>
  <anchor x="484" y="547" name="top"/>
  <outline>
    <contour>
      <point x="225" y="0" type="line"/>
      <point x="367" y="0" type="line"/>
      <point x="479" y="206" type="line"/>
      <point x="653" y="206" type="line"/>
      <point x="679" y="0" type="line"/>
      <point x="812" y="0" type="line"/>
      <point x="721" y="546" type="line"/>
      <point x="547" y="546" type="line"/>
    </contour>
    <contour>
      <point x="18" y="0" type="line"/>
      <point x="166" y="0" type="line"/>
      <point x="210" y="206" type="line"/>
      <point x="440" y="206" type="line"/>
      <point x="457" y="317" type="line"/>
      <point x="234" y="317" type="line"/>
      <point x="283" y="546" type="line"/>
      <point x="135" y="546" type="line"/>
    </contour>
    <contour>
      <point x="535" y="308" type="line"/>
      <point x="556" y="347" type="line" smooth="yes"/>
      <point x="562" y="359"/>
      <point x="601" y="428"/>
      <point x="617" y="460" type="curve"/>
      <point x="621" y="460" type="line"/>
      <point x="622" y="429"/>
      <point x="632" y="365"/>
      <point x="634" y="350" type="curve" smooth="yes"/>
      <point x="639" y="308" type="line"/>
    </contour>
  </outline>
</glyph>
<glyph name="uniA65C" format="2">
  <advance width="967"/>
  <unicode hex="A65C"/>
  <outline>
    <contour>
      <point x="398" y="0" type="line"/>
      <point x="800" y="0" type="line"/>
      <point x="827" y="128" type="line"/>
      <point x="425" y="128" type="line"/>
    </contour>
    <component base="uniA656"/>
  </outline>
</glyph>
<glyph name="uniA662" format="2">
  <advance width="865"/>
  <unicode hex="A662"/>
  <anchor x="250" y="-209" name="bottom"/>
  <anchor x="454" y="714" name="top"/>
  <outline>
    <contour>
      <point x="387" y="0" type="line"/>
      <point x="534" y="0" type="line"/>
      <point x="659" y="590" type="line"/>
      <point x="909" y="590" type="line"/>
      <point x="935" y="714" type="line"/>
      <point x="538" y="714" type="line"/>
    </contour>
    <component base="afii10021"/>
  </outline>
</glyph>
<glyph name="uniA663" format="2">
  <advance width="737"/>
  <unicode hex="A663"/>
  <outline>
    <contour>
      <point x="-73" y="-196" type="line"/>
      <point x="56" y="-196" type="line"/>
      <point x="98" y="0" type="line"/>
      <point x="419" y="0" type="line"/>
      <point x="377" y="-196" type="line"/>
      <point x="506" y="-196" type="line"/>
      <point x="571" y="110" type="line"/>
      <point x="500" y="110" type="line"/>
      <point x="569" y="433" type="line"/>
      <point x="745" y="433" type="line"/>
      <point x="769" y="546" type="line"/>
      <point x="231" y="546" type="line"/>
      <point x="181" y="383"/>
      <point x="116" y="220"/>
      <point x="34" y="110" type="curve"/>
      <point x="-8" y="110" type="line"/>
    </contour>
    <contour>
      <point x="185" y="110" type="line"/>
      <point x="244" y="205"/>
      <point x="286" y="312"/>
      <point x="328" y="433" type="curve"/>
      <point x="424" y="433" type="line"/>
      <point x="355" y="110" type="line"/>
    </contour>
  </outline>
</glyph>
<glyph name="uniA664" format="2">
  <advance width="861"/>
  <unicode hex="A664"/>
  <anchor x="290" y="0" name="bottom"/>
  <anchor x="442" y="714" name="top"/>
  <outline>
    <contour>
      <point x="655" y="590" type="line"/>
      <point x="905" y="590" type="line"/>
      <point x="931" y="714" type="line"/>
      <point x="534" y="714" type="line"/>
    </contour>
    <component base="afii10029"/>
  </outline>
</glyph>
<glyph name="uniA666" format="2">
  <advance width="1044"/>
  <unicode hex="A666"/>
  <anchor x="371" y="0" name="bottom"/>
  <anchor x="517" y="714" name="top"/>
  <anchor x="954" y="714" name="topright"/>
  <outline>
    <contour>
      <point x="838" y="590" type="line"/>
      <point x="1088" y="590" type="line"/>
      <point x="1114" y="714" type="line"/>
      <point x="717" y="714" type="line"/>
    </contour>
    <component base="M"/>
  </outline>
</glyph>
<glyph name="uniA684" format="2">
  <advance width="1216"/>
  <unicode hex="A684"/>
  <anchor x="240" y="0" name="bottom_1"/>
  <anchor x="861" y="0" name="bottom_2"/>
  <anchor x="392" y="714" name="top_1"/>
  <anchor x="1032" y="714" name="top_2"/>
  <outline>
    <contour>
      <point x="200" y="312" type="line"/>
      <point x="786" y="312" type="line"/>
      <point x="786" y="430" type="line"/>
      <point x="200" y="430" type="line"/>
    </contour>
    <component base="afii10025"/>
    <component base="afii10028" xOffset="621"/>
  </outline>
</glyph>
<glyph name="uniA685" format="2">
  <advance width="1095"/>
  <unicode hex="A685"/>
  <anchor x="204" y="0" name="bottom_1"/>
  <anchor x="748" y="0" name="bottom_2"/>
  <anchor x="320" y="546" name="top_1"/>
  <anchor x="877" y="546" name="top_2"/>
  <outline>
    <contour>
      <point x="181" y="233" type="line"/>
      <point x="657" y="233" type="line"/>
      <point x="657" y="336" type="line"/>
      <point x="181" y="336" type="line"/>
    </contour>
    <component base="afii10073"/>
    <component base="afii10076" xOffset="517"/>
  </outline>
</glyph>
<glyph name="uniA690" format="2">
  <advance width="531"/>
  <unicode hex="A690"/>
  <anchor x="208" y="0" name="bottom"/>
  <anchor x="306" y="357" name="center"/>
  <anchor x="360" y="714" name="top"/>
  <anchor x="605" y="714" name="topright"/>
  <outline>
    <contour>
      <point x="86" y="-198" type="curve" smooth="yes"/>
      <point x="107" y="-198"/>
      <point x="129" y="-193"/>
      <point x="149" y="-187" type="curve"/>
      <point x="168" y="-99" type="line"/>
      <point x="155" y="-103"/>
      <point x="141" y="-108"/>
      <point x="127" y="-108" type="curve" smooth="yes"/>
      <point x="105" y="-108"/>
      <point x="92" y="-96"/>
      <point x="92" y="-75" type="curve" smooth="yes"/>
      <point x="92" y="-38"/>
      <point x="126" y="0"/>
      <point x="188" y="0" type="curve"/>
      <point x="174" y="67" type="line"/>
      <point x="90" y="67"/>
      <point x="-11" y="14"/>
      <point x="-11" y="-100" type="curve" smooth="yes"/>
      <point x="-11" y="-159"/>
      <point x="24" y="-198"/>
    </contour>
    <component base="T"/>
  </outline>
</glyph>
<glyph name="uniA692" format="2">
  <advance width="833"/>
  <unicode hex="A692"/>
  <outline>
    <contour>
      <point x="538" y="0" type="line"/>
      <point x="687" y="0" type="line"/>
      <point x="838" y="714" type="line"/>
      <point x="689" y="714" type="line"/>
      <point x="621" y="394" type="line"/>
      <point x="569" y="373"/>
      <point x="516" y="358"/>
      <point x="457" y="358" type="curve" smooth="yes"/>
      <point x="409" y="358"/>
      <point x="382" y="380"/>
      <point x="382" y="422" type="curve" smooth="yes"/>
      <point x="382" y="434"/>
      <point x="384" y="447"/>
      <point x="387" y="462" type="curve" smooth="yes"/>
      <point x="440" y="714" type="line"/>
      <point x="291" y="714" type="line"/>
      <point x="236" y="446" type="line" smooth="yes"/>
      <point x="232" y="425"/>
      <point x="230" y="406"/>
      <point x="230" y="389" type="curve" smooth="yes"/>
      <point x="230" y="273"/>
      <point x="318" y="232"/>
      <point x="406" y="232" type="curve" smooth="yes"/>
      <point x="474" y="232"/>
      <point x="542" y="252"/>
      <point x="596" y="274" type="curve"/>
    </contour>
    <contour>
      <point x="103" y="586" type="line"/>
      <point x="574" y="586" type="line"/>
      <point x="601" y="714" type="line"/>
      <point x="130" y="714" type="line"/>
    </contour>
  </outline>
</glyph>
<glyph name="uniA69A" format="2">
  <advance width="730"/>
  <unicode hex="A69A"/>
  <anchor x="307" y="0" name="bottom"/>
  <anchor x="459" y="714" name="top"/>
  <outline>
    <contour>
      <point x="260" y="29" type="line"/>
      <point x="358" y="29" type="line"/>
      <point x="492" y="661" type="line"/>
      <point x="394" y="661" type="line"/>
    </contour>
    <component base="uni04E8"/>
  </outline>
</glyph>
<glyph name="uniA69E" format="2">
  <unicode hex="A69E"/>
  <anchor x="-44" y="67" name="_top"/>
  <outline>
    <contour>
      <point x="-74" y="127" type="line"/>
      <point x="15" y="127" type="line"/>
      <point x="45" y="272" type="line"/>
      <point x="218" y="289"/>
      <point x="258" y="397"/>
      <point x="258" y="479" type="curve" smooth="yes"/>
      <point x="258" y="555"/>
      <point x="210" y="610"/>
      <point x="119" y="622" type="curve"/>
      <point x="147" y="754" type="line"/>
      <point x="59" y="754" type="line"/>
      <point x="32" y="622" type="line"/>
      <point x="-129" y="613"/>
      <point x="-185" y="507"/>
      <point x="-185" y="416" type="curve" smooth="yes"/>
      <point x="-185" y="342"/>
      <point x="-135" y="285"/>
      <point x="-42" y="275" type="curve"/>
    </contour>
    <contour>
      <point x="-27" y="346" type="line"/>
      <point x="-62" y="351"/>
      <point x="-80" y="382"/>
      <point x="-80" y="424" type="curve" smooth="yes"/>
      <point x="-80" y="471"/>
      <point x="-57" y="546"/>
      <point x="17" y="551" type="curve"/>
    </contour>
    <contour>
      <point x="60" y="346" type="curve"/>
      <point x="104" y="550" type="line"/>
      <point x="138" y="543"/>
      <point x="156" y="514"/>
      <point x="156" y="477" type="curve" smooth="yes"/>
      <point x="156" y="432"/>
      <point x="137" y="357"/>
    </contour>
  </outline>
</glyph>
<glyph name="uniA717" format="2">
  <advance width="376"/>
  <unicode hex="A717"/>
  <outline>
    <contour>
      <point x="320" y="637" type="line"/>
      <point x="413" y="637" type="line"/>
      <point x="413" y="968" type="line"/>
      <point x="320" y="968" type="line"/>
    </contour>
    <contour>
      <point x="218" y="741" type="curve" smooth="yes"/>
      <point x="256" y="741"/>
      <point x="281" y="761"/>
      <point x="281" y="802" type="curve" smooth="yes"/>
      <point x="281" y="841"/>
      <point x="256" y="862"/>
      <point x="218" y="862" type="curve" smooth="yes"/>
      <point x="181" y="862"/>
      <point x="154" y="841"/>
      <point x="154" y="802" type="curve" smooth="yes"/>
      <point x="154" y="761"/>
      <point x="181" y="741"/>
    </contour>
  </outline>
</glyph>
<glyph name="uniA718" format="2">
  <advance width="405"/>
  <unicode hex="A718"/>
  <outline>
    <contour>
      <point x="240" y="550" type="line"/>
      <point x="474" y="784" type="line"/>
      <point x="408" y="850" type="line"/>
      <point x="174" y="616" type="line"/>
    </contour>
    <contour>
      <point x="218" y="741" type="curve" smooth="yes"/>
      <point x="256" y="741"/>
      <point x="281" y="761"/>
      <point x="281" y="802" type="curve" smooth="yes"/>
      <point x="281" y="841"/>
      <point x="256" y="862"/>
      <point x="218" y="862" type="curve" smooth="yes"/>
      <point x="181" y="862"/>
      <point x="154" y="841"/>
      <point x="154" y="802" type="curve" smooth="yes"/>
      <point x="154" y="761"/>
      <point x="181" y="741"/>
    </contour>
  </outline>
</glyph>
<glyph name="uniA719" format="2">
  <advance width="431"/>
  <unicode hex="A719"/>
  <outline>
    <contour>
      <point x="131" y="606" type="line"/>
      <point x="462" y="606" type="line"/>
      <point x="462" y="699" type="line"/>
      <point x="131" y="699" type="line"/>
    </contour>
    <contour>
      <point x="297" y="741" type="curve" smooth="yes"/>
      <point x="335" y="741"/>
      <point x="360" y="761"/>
      <point x="360" y="802" type="curve" smooth="yes"/>
      <point x="360" y="841"/>
      <point x="335" y="862"/>
      <point x="297" y="862" type="curve" smooth="yes"/>
      <point x="260" y="862"/>
      <point x="233" y="841"/>
      <point x="233" y="802" type="curve" smooth="yes"/>
      <point x="233" y="761"/>
      <point x="260" y="741"/>
    </contour>
  </outline>
</glyph>
<glyph name="uniA71D" format="2">
  <advance width="260"/>
  <unicode hex="A71D"/>
  <outline>
    <contour>
      <point x="135" y="525" type="line"/>
      <point x="226" y="525" type="line"/>
      <point x="325" y="869" type="line"/>
      <point x="182" y="869" type="line"/>
    </contour>
    <contour>
      <point x="148" y="328" type="curve" smooth="yes"/>
      <point x="198" y="328"/>
      <point x="222" y="360"/>
      <point x="222" y="408" type="curve" smooth="yes"/>
      <point x="222" y="450"/>
      <point x="193" y="463"/>
      <point x="160" y="463" type="curve" smooth="yes"/>
      <point x="113" y="463"/>
      <point x="85" y="435"/>
      <point x="85" y="384" type="curve" smooth="yes"/>
      <point x="85" y="342"/>
      <point x="112" y="328"/>
    </contour>
  </outline>
</glyph>
